<svg 
 xmlns="http://www.w3.org/2000/svg"
 xmlns:xlink="http://www.w3.org/1999/xlink"
 width="176px" height="36px">
<path fill-rule="evenodd"  fill="rgb(230, 58, 130)"
 d="M176.002,17.907 C176.049,27.851 168.026,35.950 158.083,35.997 C148.138,36.043 140.040,28.020 139.993,18.077 C139.946,8.133 147.969,0.034 157.913,-0.013 C167.857,-0.060 175.956,7.964 176.002,17.907 ZM158.662,6.929 L155.571,9.988 L162.288,16.268 L146.557,16.268 L146.557,20.400 L162.274,20.401 L155.506,26.518 L158.662,29.707 L170.087,18.211 L158.662,6.929 Z"/>
<path fill-rule="evenodd"  fill="rgb(230, 58, 130)"
 d="M126.279,24.571 L122.467,24.571 L119.998,16.447 L117.467,24.571 L113.593,24.571 L107.718,10.136 L113.061,10.136 L115.749,17.916 L118.186,10.136 L121.842,10.136 L124.248,17.916 L126.935,10.136 L131.903,10.136 L126.279,24.571 ZM99.967,25.103 C95.030,25.103 91.437,21.822 91.437,17.354 C91.437,12.854 95.030,9.604 100.061,9.604 C105.060,9.604 108.497,12.760 108.497,17.322 C108.497,21.978 105.091,25.103 99.967,25.103 ZM100.029,13.573 C98.092,13.573 96.686,15.166 96.686,17.354 C96.686,19.510 98.061,21.134 99.936,21.134 C102.060,21.134 103.310,19.728 103.310,17.354 C103.310,15.041 102.029,13.573 100.029,13.573 ZM85.248,16.635 C85.248,14.698 84.530,13.791 82.998,13.791 C81.374,13.791 80.280,14.916 80.280,16.635 L80.280,24.571 L75.218,24.571 L75.218,10.136 L80.218,10.136 L80.218,11.792 C81.499,10.136 82.623,9.604 84.686,9.604 C86.935,9.604 88.810,10.511 89.654,12.010 C90.091,12.792 90.310,13.698 90.310,14.823 L90.310,24.571 L85.248,24.571 L85.248,16.635 ZM63.374,24.571 L57.812,18.447 L57.812,24.571 L52.750,24.571 L52.750,2.668 L57.812,2.668 L57.812,16.197 L62.999,10.136 L69.436,10.136 L62.968,17.104 L70.092,24.571 L63.374,24.571 ZM43.124,25.103 C38.187,25.103 34.594,21.822 34.594,17.354 C34.594,12.854 38.187,9.604 43.218,9.604 C48.217,9.604 51.654,12.760 51.654,17.322 C51.654,21.978 48.249,25.103 43.124,25.103 ZM43.187,13.573 C41.249,13.573 39.843,15.166 39.843,17.354 C39.843,19.510 41.218,21.134 43.093,21.134 C45.218,21.134 46.467,19.728 46.467,17.354 C46.467,15.041 45.186,13.573 43.187,13.573 ZM25.280,25.103 C20.343,25.103 16.750,21.822 16.750,17.354 C16.750,12.854 20.343,9.604 25.374,9.604 C30.374,9.604 33.811,12.760 33.811,17.322 C33.811,21.978 30.405,25.103 25.280,25.103 ZM25.343,13.573 C23.406,13.573 22.000,15.166 22.000,17.354 C22.000,19.510 23.374,21.134 25.249,21.134 C27.374,21.134 28.624,19.728 28.624,17.354 C28.624,15.041 27.343,13.573 25.343,13.573 ZM16.092,18.697 C16.092,20.603 15.030,22.540 13.499,23.478 C12.374,24.197 10.749,24.571 8.968,24.571 L0.094,24.571 L0.094,3.761 L8.749,3.761 C12.592,3.761 14.936,5.730 14.936,8.948 C14.936,11.042 13.874,12.573 11.874,13.354 C13.186,13.823 13.936,14.229 14.592,14.916 C15.467,15.791 16.092,17.322 16.092,18.697 ZM7.468,7.948 L5.718,7.948 L5.718,12.010 L7.093,12.010 C8.843,12.010 9.749,11.260 9.749,9.792 C9.749,8.605 8.937,7.948 7.468,7.948 ZM8.187,15.979 L5.718,15.979 L5.718,20.228 L7.968,20.228 C9.655,20.228 10.593,19.447 10.593,18.010 C10.593,16.697 9.718,15.979 8.187,15.979 Z"/>
</svg>