<svg xmlns="http://www.w3.org/2000/svg" width="199" height="83">
  <path fill-rule="evenodd" fill="#E63A82" d="M191.742 12.158c-.13 0-.223-.003-.274-.01-.05-.008-.135-.026-.25-.055.043.73.23 1.254.557 1.575.328.32.842.48 1.542.48.22 0 .405-.013.558-.043.153-.03.295-.083.426-.164.133-.08.253-.192.362-.338.11-.145.23-.328.36-.547h3.698c-.087.803-.387 1.48-.897 2.035-.452.48-1.072.864-1.86 1.148-.787.285-1.64.427-2.56.427-.903 0-1.712-.128-2.427-.383-.714-.255-1.327-.616-1.837-1.083-.512-.467-.902-1.032-1.172-1.696-.27-.664-.404-1.41-.404-2.242 0-.832.134-1.583.404-2.254.27-.67.653-1.243 1.15-1.717.494-.472 1.093-.837 1.793-1.092.7-.255 1.48-.383 2.34-.383 1.095 0 2.076.21 2.943.634.868.422 1.506.998 1.915 1.727.218.41.393.908.525 1.5.13.59.196 1.19.196 1.803v.678h-7.088zm2.745-3.62c-.27-.255-.682-.383-1.236-.383-1.122 0-1.77.562-1.946 1.685.175-.03.303-.047.383-.055.08-.007.222-.01.427-.01h2.165c.19 0 .328.003.415.01.088.008.21.026.372.055-.117-.613-.31-1.047-.58-1.302zm-3.576 20.05l-1.29 2.317c-.437-.247-.874-.44-1.312-.58-.437-.138-.824-.207-1.16-.207-.626 0-.955.233-.984.7 0 .233.11.423.33.57.115.072.25.137.403.195.153.06.31.11.47.154l.35.065.372.088.35.087c.45.102.827.23 1.126.383.3.153.543.34.733.558.188.22.323.48.403.787.08.307.12.67.12 1.094 0 .51-.094.994-.284 1.454-.19.46-.46.85-.81 1.17-.452.423-.952.718-1.498.886-.547.167-1.266.252-2.155.252-.365 0-.784-.048-1.258-.143-.475-.096-.902-.223-1.28-.383-.205-.073-.402-.16-.59-.263-.19-.102-.453-.255-.79-.46l1.095-2.384c.554.32 1.028.55 1.422.69.394.138.787.222 1.18.25.35.03.643-.02.876-.152.233-.13.35-.3.35-.503 0-.19-.106-.35-.317-.482-.212-.13-.558-.255-1.04-.37-.35-.09-.644-.165-.885-.23-.24-.067-.447-.132-.622-.198s-.325-.135-.45-.208c-.123-.073-.243-.167-.36-.284-.292-.248-.51-.565-.656-.952-.146-.385-.205-.804-.175-1.257.058-1.18.514-2.096 1.367-2.745.853-.65 1.98-.937 3.38-.864.598.03 1.163.117 1.695.263.53.146 1.162.38 1.89.7zm-8.29-18.136c0-1.166-.547-1.75-1.64-1.75-.6 0-1.054.194-1.368.58-.313.386-.47.95-.47 1.695v5.272h-3.544V1.023h3.544v3.85c0 .292-.004.533-.01.722l-.023.536c-.008.168-.023.343-.045.525l-.076.667.086.044c.51-.57 1-.97 1.466-1.203.467-.233 1.028-.35 1.684-.35.76 0 1.455.16 2.09.48.634.322 1.11.752 1.432 1.292.146.248.252.536.317.864.066.33.1.748.1 1.258v6.54h-3.545v-5.796zm-5.894 24.993c.27-.152.462-.36.58-.622.072-.16.13-.39.174-.687.044-.298.066-.62.066-.97v-5.148h3.544v5.447c0 .743-.066 1.367-.197 1.87-.132.503-.343.944-.635 1.323-.452.57-1.075 1.01-1.87 1.324-.795.313-1.703.47-2.723.47-1.094 0-2.046-.19-2.855-.57-.81-.378-1.404-.917-1.783-1.617-.336-.627-.503-1.524-.503-2.69v-5.557h3.544v5.148c0 .48.03.854.087 1.123.058.268.153.504.285.708.32.45.78.676 1.378.676.335 0 .638-.076.908-.23zM172.83 8.833c-.05 0-.127-.014-.23-.043.03.102.045.178.045.23v7.23H169.1V9.27v-.25c0-.052.016-.128.045-.23-.102.03-.18.043-.23.043H167.68v-2.69h1.236c.05 0 .127.015.23.044-.03-.102-.045-.18-.045-.23V3.343h3.545v2.614c0 .05-.014.128-.044.23.103-.03.18-.044.23-.044H174.506v2.69h-1.674zM169.17 33.05c0 .816-.142 1.56-.427 2.23-.283.67-.688 1.244-1.213 1.718-.525.474-1.156.842-1.892 1.104-.736.263-1.55.394-2.44.394-.86 0-1.654-.135-2.383-.405-.73-.268-1.36-.644-1.892-1.125-.533-.482-.95-1.054-1.247-1.717-.3-.664-.45-1.39-.45-2.177 0-.787.15-1.512.45-2.176.298-.663.714-1.236 1.247-1.717.532-.48 1.17-.856 1.914-1.126.743-.27 1.553-.404 2.428-.404s1.673.13 2.395.394c.722.262 1.345.63 1.87 1.104.525.474.93 1.043 1.214 1.707.286.664.428 1.397.428 2.2zm-4.255-1.915c-.415-.474-.973-.71-1.673-.71-.686 0-1.247.247-1.685.743-.437.496-.656 1.13-.656 1.903 0 .38.057.73.174 1.05.117.322.274.603.47.843.197.24.434.427.71.558.278.132.585.198.92.198.744 0 1.324-.233 1.74-.7.415-.467.623-1.116.623-1.947 0-.816-.208-1.46-.624-1.935zm-6.31-15.323c0-.073.006-.15.02-.23.015-.08.052-.186.11-.317l-.065-.022c-.525.51-1.032.87-1.52 1.083-.49.21-1.076.317-1.762.317-.714 0-1.367-.13-1.957-.394-.592-.263-1.103-.635-1.533-1.117-.43-.48-.762-1.053-.995-1.717-.233-.663-.35-1.396-.35-2.198 0-.788.124-1.513.372-2.177.248-.662.598-1.235 1.05-1.716.452-.48.984-.853 1.597-1.116.613-.262 1.29-.393 2.035-.393.598 0 1.123.087 1.575.262.452.175.89.452 1.313.83l.065-.042c-.03-.292-.05-.54-.065-.744-.015-.203-.026-.396-.033-.58-.008-.18-.01-.382-.01-.6V.98h3.543v15.27h-3.39v-.438zm-.504-6.344c-.395-.438-.92-.656-1.576-.656-.67 0-1.222.233-1.652.7-.43.466-.645 1.07-.645 1.815 0 .73.19 1.313.57 1.75.378.438.896.656 1.552.656.7 0 1.264-.225 1.694-.678.43-.452.646-1.057.646-1.815 0-.744-.197-1.335-.59-1.772zm-6.75 18.55c.052 0 .128.015.23.044-.03-.102-.043-.18-.043-.23v-2.614h3.543v2.614c0 .05-.014.128-.043.23.102-.03.178-.044.23-.044h1.673v2.69h-1.674c-.05 0-.127-.014-.23-.043.03.102.044.178.044.23v7.23h-3.543v-6.98-.25c0-.052.014-.128.043-.23-.102.03-.178.043-.23.043H150.116v-2.69h1.234zm-3.16 8.98c-.525.474-1.156.842-1.892 1.104-.737.263-1.55.394-2.44.394-.86 0-1.655-.135-2.384-.405-.73-.268-1.36-.644-1.892-1.125-.532-.482-.948-1.054-1.247-1.717-.3-.664-.448-1.39-.448-2.177 0-.787.15-1.512.448-2.176.3-.663.715-1.236 1.247-1.717.532-.48 1.17-.856 1.914-1.126.744-.27 1.553-.404 2.428-.404s1.674.13 2.396.394c.722.262 1.345.63 1.87 1.104.525.474.93 1.043 1.214 1.707.284.664.427 1.397.427 2.2 0 .816-.142 1.56-.426 2.23-.284.67-.69 1.244-1.214 1.718zm-2.614-5.863c-.416-.474-.974-.71-1.674-.71-.685 0-1.246.247-1.684.743-.437.496-.656 1.13-.656 1.903 0 .38.058.73.175 1.05.116.322.273.603.47.843.197.24.434.427.71.558.278.132.584.198.92.198.744 0 1.323-.233 1.74-.7.415-.467.622-1.116.622-1.947 0-.816-.208-1.46-.624-1.935zm.01-20.442c0-1.327-.524-1.99-1.574-1.99-.57 0-1.03.178-1.38.535-.35.358-.524.842-.524 1.455v5.556h-3.543V6.142h3.5v.59c0 .117-.01.23-.033.34-.022.11-.07.266-.142.47l.087.044c.233-.336.423-.59.57-.766.145-.174.312-.327.502-.458.276-.19.6-.336.973-.438.37-.102.76-.153 1.17-.153.787 0 1.49.15 2.11.45.62.298 1.076.71 1.368 1.235.307.555.46 1.21.46 1.97v6.824h-3.543v-5.557zm-9.033 47.84c-.452.57-1.076 1.01-1.87 1.324-.796.313-1.703.47-2.724.47-1.095 0-2.046-.19-2.856-.57-.81-.378-1.403-.917-1.783-1.617-.334-.627-.502-1.524-.502-2.69v-5.557h3.544v5.148c0 .48.03.855.088 1.124.058.27.153.505.284.71.32.45.78.675 1.378.675.335 0 .638-.077.908-.23.27-.152.463-.36.58-.622.072-.16.13-.39.175-.687.043-.297.065-.62.065-.97v-5.147h3.544v5.447c0 .743-.066 1.367-.197 1.87-.13.503-.343.944-.634 1.323zM134.715 5.18c-.54 0-1-.19-1.378-.568-.38-.38-.57-.846-.57-1.4 0-.54.19-1 .57-1.38.38-.378.838-.567 1.378-.567.554 0 1.02.19 1.4.568.38.38.57.84.57 1.38 0 .553-.19 1.02-.57 1.4-.38.378-.846.567-1.4.567zm-1.75.963h3.544V16.25h-3.545V6.142zm3.456 31.98h-3.542V28.02h3.543v10.106zm-3.17-14.415c.38-.38.838-.568 1.378-.568.554 0 1.02.19 1.4.568.38.38.568.84.568 1.38 0 .553-.19 1.02-.568 1.4-.38.378-.846.567-1.4.567-.54 0-1-.19-1.38-.568-.378-.38-.567-.846-.567-1.4 0-.54.19-1 .57-1.38zm-2.43 7.22c-1.91 0-2.864.976-2.864 2.93v4.266h-3.544V28.018h3.39v.634c0 .117-.014.24-.043.372-.03.13-.08.32-.154.57l.11.02c.378-.7.78-1.19 1.202-1.476.423-.284.955-.426 1.597-.426.073 0 .17.003.295.01.124.008.252.02.383.033l.175.022.197.022.175.02v3.238c-.204-.058-.372-.094-.503-.11-.13-.013-.27-.02-.416-.02zm-3.368-20.476c0-1.166-.546-1.75-1.64-1.75-.598 0-1.054.194-1.367.58-.314.386-.47.95-.47 1.695v5.272h-3.544V1.023h3.544v3.85c0 .292-.003.533-.01.722l-.022.536c-.008.168-.022.343-.044.525s-.048.405-.077.667l.09.044c.51-.57.997-.97 1.464-1.203.467-.233 1.028-.35 1.685-.35.757 0 1.453.16 2.088.48.634.322 1.112.752 1.433 1.292.146.248.252.536.318.864.065.33.098.748.098 1.258v6.54h-3.544v-5.796zm-4.22 39.528c.582.263 1.005.62 1.268 1.072.29.496.437 1.218.437 2.166v6.78h-3.543V53.94c0-1.123-.467-1.685-1.4-1.685-1.05 0-1.575.606-1.575 1.816V60h-3.545v-6.06c0-1.108-.452-1.663-1.356-1.663-.497 0-.89.16-1.183.48-.292.322-.437.76-.437 1.314V60h-3.544V49.892h3.5v.59c0 .103-.01.212-.033.33-.022.115-.07.283-.142.502l.09.022c.217-.336.403-.59.556-.766.154-.174.31-.32.47-.437.278-.204.61-.357.996-.46.386-.1.784-.152 1.192-.152.467 0 .915.063 1.346.187.43.124.805.303 1.126.536.16.117.3.244.416.383.116.138.248.34.394.6.218-.305.437-.564.656-.775.22-.21.444-.378.678-.502.233-.124.488-.215.766-.274.276-.058.59-.087.94-.087.7 0 1.342.13 1.925.393zm-11.584-37.832c-.05-.008-.135-.026-.252-.055.044.73.23 1.254.558 1.575.328.32.842.48 1.542.48.22 0 .405-.013.558-.043.153-.03.295-.083.427-.164.132-.08.252-.192.362-.338.11-.145.23-.328.36-.547h3.697c-.088.803-.387 1.48-.897 2.035-.453.48-1.072.864-1.86 1.148-.787.285-1.64.427-2.56.427-.904 0-1.713-.128-2.427-.383-.715-.255-1.328-.616-1.838-1.083-.51-.467-.9-1.032-1.17-1.696-.27-.664-.405-1.41-.405-2.242 0-.832.135-1.583.405-2.254.27-.67.652-1.243 1.148-1.717.496-.472 1.094-.837 1.794-1.092.7-.255 1.48-.383 2.34-.383 1.094 0 2.075.21 2.943.634.867.422 1.505.998 1.914 1.727.22.41.394.908.525 1.5.13.59.197 1.19.197 1.803v.678h-7.09c-.13 0-.22-.003-.272-.01zm2.81-2.374c.19 0 .33.004.416.01.088.01.212.027.372.056-.117-.613-.31-1.047-.58-1.302-.27-.255-.68-.383-1.235-.383-1.123 0-1.77.562-1.946 1.685.175-.03.302-.047.383-.055.08-.007.222-.01.426-.01h2.166zm-9.12 5.513c-.876.89-2.035 1.334-3.48 1.334-.51 0-.987-.068-1.432-.207-.445-.14-.813-.33-1.104-.58-.103-.072-.197-.16-.285-.262-.087-.1-.19-.24-.306-.415l-.108.022c.072.19.12.325.142.405.022.08.033.157.033.23v.437h-3.39V.98h3.543V4.885c0 .226-.008.438-.022.634-.015.196-.03.4-.044.612-.015.21-.036.47-.066.776l.066.044c.423-.423.853-.725 1.29-.908.438-.182.963-.273 1.576-.273.743 0 1.43.14 2.056.417.627.277 1.167.66 1.62 1.148.45.49.804 1.068 1.06 1.74.255.67.382 1.407.382 2.208 0 .788-.135 1.528-.404 2.22-.27.694-.646 1.288-1.127 1.784zm-2.757-5.83c-.393-.445-.94-.667-1.64-.667-.685 0-1.228.218-1.63.656-.4.437-.6 1.014-.6 1.728 0 .76.207 1.37.623 1.838.415.466.965.7 1.65.7.686 0 1.222-.215 1.61-.646.385-.43.58-1.024.58-1.783 0-.772-.198-1.38-.592-1.826zm-4.1 18.637c.62.3 1.075.71 1.367 1.236.307.555.46 1.21.46 1.97v6.824h-3.544v-5.556c0-1.327-.525-1.99-1.575-1.99-.57 0-1.028.178-1.378.535-.35.358-.525.842-.525 1.455v5.556H89.74V28.018h3.5v.59c0 .117-.01.23-.032.34-.022.11-.07.266-.142.47l.088.044c.233-.336.422-.59.568-.766.146-.175.314-.328.504-.46.276-.19.6-.335.973-.437.37-.103.76-.154 1.17-.154.787 0 1.49.15 2.11.448zm-19.502-7.798l2.997-5.644-4.33-7.91v2.44c-.205-.057-.373-.093-.504-.108-.13-.014-.27-.022-.415-.022-1.91 0-2.865.977-2.865 2.93v4.267h-3.544V6.142h3.39v.634c0 .117-.014.24-.043.372-.03.13-.08.32-.153.568l.11.022c.378-.7.78-1.192 1.202-1.477.423-.284.955-.426 1.597-.426.072 0 .17.003.294.01.124.008.252.02.383.033l.175.022.197.022.174.022v.197h3.72l1.355 3.02c.145.305.265.567.36.786.095.218.182.426.262.623.08.196.157.4.23.612.073.212.168.47.285.777h.087c.102-.307.193-.565.273-.777.08-.21.157-.416.23-.612.073-.197.157-.405.252-.624.093-.22.214-.482.36-.788l1.356-3.02h3.806l-7.394 14.154h-3.85zM72.92 34.362c-.35-.088-.646-.164-.886-.23s-.45-.13-.624-.197c-.175-.066-.324-.135-.448-.208-.124-.073-.245-.167-.36-.284-.293-.248-.512-.565-.657-.952-.146-.385-.205-.804-.175-1.257.058-1.18.514-2.096 1.367-2.745.853-.65 1.98-.937 3.38-.864.597.03 1.162.117 1.695.263.532.146 1.163.38 1.892.7l-1.29 2.318c-.438-.247-.876-.44-1.313-.58-.437-.138-.823-.207-1.158-.207-.628 0-.956.233-.985.7 0 .233.11.423.328.57.117.072.252.137.405.195.153.06.31.11.47.154l.35.065.372.088.35.087c.452.102.828.23 1.127.383.297.153.542.34.732.558.19.22.324.48.404.787.08.307.12.67.12 1.094 0 .51-.094.994-.284 1.454-.19.46-.46.85-.81 1.17-.45.423-.95.718-1.498.886-.547.167-1.265.252-2.154.252-.365 0-.784-.048-1.258-.143-.474-.096-.9-.223-1.28-.383-.204-.073-.4-.16-.59-.263-.19-.102-.453-.255-.788-.46l1.094-2.384c.554.32 1.028.55 1.422.69.393.138.787.222 1.18.25.35.03.642-.02.876-.152.233-.13.35-.3.35-.503 0-.19-.106-.35-.317-.482-.213-.13-.56-.255-1.04-.37zm-5.458-3.654c-.05 0-.128-.014-.23-.043.03.102.044.178.044.23v7.23h-3.544v-6.98-.25c0-.052.015-.128.044-.23-.102.03-.18.043-.23.043H62.31v-2.69H63.545c.052 0 .13.015.23.044-.028-.102-.043-.18-.043-.23v-2.614h3.544v2.614c0 .05-.015.128-.044.23.102-.03.18-.044.23-.044h1.673v2.69h-1.672zm-.23-15.585c-.525.474-1.156.842-1.892 1.104-.737.263-1.55.394-2.44.394-.86 0-1.655-.134-2.384-.404-.73-.27-1.36-.645-1.892-1.126-.532-.482-.948-1.054-1.247-1.717-.3-.664-.448-1.39-.448-2.177 0-.788.148-1.513.447-2.177.3-.664.715-1.237 1.247-1.718.532-.48 1.17-.856 1.914-1.126.744-.27 1.553-.405 2.428-.405s1.674.132 2.396.395c.72.262 1.345.63 1.87 1.104.525.473.93 1.042 1.214 1.706.284.663.427 1.396.427 2.198 0 .817-.143 1.56-.427 2.23-.284.672-.69 1.245-1.214 1.72zM64.618 9.26c-.416-.474-.974-.71-1.674-.71-.685 0-1.246.247-1.684.743-.437.496-.656 1.13-.656 1.903 0 .38.058.73.175 1.05.115.32.272.602.47.842.196.24.433.427.71.558.277.13.583.197.92.197.743 0 1.322-.233 1.738-.7.415-.467.623-1.116.623-1.947 0-.817-.207-1.462-.622-1.936zm-9.647-.427c-.05 0-.127-.014-.23-.043.03.102.045.178.045.23v7.23H51.24V9.27v-.25c0-.052.016-.128.045-.23-.102.03-.18.043-.23.043H49.82v-2.69h1.234c.052 0 .13.015.23.044-.028-.102-.043-.18-.043-.23V3.343h3.545v2.614c0 .05-.015.128-.044.23.103-.03.18-.044.23-.044h1.674v2.69h-1.672zm-8.235-.382c-.438-.138-.824-.207-1.16-.207-.627 0-.955.233-.984.7 0 .233.11.423.33.57.116.072.25.137.404.195.153.06.31.11.47.154l.35.065.372.088.35.087c.452.102.828.23 1.127.383.298.153.543.34.733.558.19.22.324.48.404.787.08.307.12.67.12 1.094 0 .51-.094.995-.284 1.455-.19.458-.46.848-.81 1.17-.45.422-.95.717-1.498.885-.546.167-1.265.252-2.154.252-.365 0-.784-.048-1.258-.143-.474-.095-.9-.222-1.28-.382-.204-.073-.4-.16-.59-.263-.19-.103-.453-.256-.788-.46l1.094-2.385c.554.32 1.028.55 1.422.69.393.138.787.222 1.18.25.35.03.643-.02.876-.152.233-.13.35-.3.35-.503 0-.19-.106-.35-.317-.482-.212-.13-.558-.255-1.04-.37-.35-.09-.645-.165-.885-.23-.24-.067-.45-.132-.624-.198-.175-.066-.324-.135-.448-.208-.124-.073-.244-.167-.36-.284-.293-.248-.512-.565-.657-.952-.147-.386-.206-.805-.176-1.258.058-1.18.514-2.096 1.367-2.745.854-.65 1.98-.937 3.38-.864.598.028 1.163.116 1.696.262.532.146 1.163.38 1.892.7l-1.29 2.318c-.438-.247-.876-.44-1.313-.58zM40.982 30.71H39.31c-.052 0-.13-.014-.23-.043.028.102.043.178.043.23v7.23H35.58v-6.98-.25c0-.052.013-.128.043-.23-.102.03-.18.043-.23.043h-1.236v-2.69H35.392c.052 0 .13.015.23.044-.03-.102-.043-.18-.043-.23v-2.614h3.543v2.614c0 .05-.015.128-.044.23.1-.03.178-.044.23-.044h1.672v2.69zm-12.917-18.56c-.05-.008-.135-.026-.252-.055.044.73.23 1.254.558 1.575.33.32.843.48 1.543.48.22 0 .405-.013.558-.043.154-.03.297-.083.428-.164.13-.08.25-.192.36-.338.11-.145.23-.328.362-.547h3.697c-.088.803-.387 1.48-.897 2.035-.453.48-1.072.864-1.86 1.148-.787.285-1.64.427-2.56.427-.903 0-1.713-.128-2.427-.383-.715-.255-1.327-.616-1.838-1.083-.51-.467-.9-1.032-1.17-1.696-.27-.664-.405-1.41-.405-2.242 0-.832.135-1.583.405-2.254.27-.67.652-1.243 1.148-1.717.496-.472 1.094-.837 1.794-1.092.7-.255 1.48-.383 2.34-.383 1.095 0 2.075.21 2.943.634.867.422 1.506.998 1.914 1.727.22.41.394.908.525 1.5.13.59.196 1.19.196 1.803v.678h-7.088c-.13 0-.222-.003-.273-.01zm2.81-2.374c.19 0 .33.004.417.01.087.01.21.027.37.056-.115-.613-.31-1.047-.578-1.302-.27-.255-.682-.383-1.236-.383-1.123 0-1.772.562-1.947 1.685.176-.03.303-.047.384-.055.08-.007.222-.01.426-.01h2.166zm-2.908 17.872c.875 0 1.673.13 2.395.394.722.262 1.345.63 1.87 1.104.525.474.93 1.043 1.214 1.707.285.664.427 1.397.427 2.2 0 .816-.142 1.56-.427 2.23-.284.67-.69 1.244-1.214 1.718-.525.474-1.156.842-1.892 1.104-.736.263-1.55.394-2.44.394-.86 0-1.654-.135-2.383-.405-.73-.268-1.36-.644-1.892-1.125-.533-.482-.95-1.054-1.247-1.717-.3-.664-.45-1.39-.45-2.177 0-.787.15-1.512.45-2.176.298-.663.714-1.236 1.247-1.717.532-.48 1.17-.856 1.914-1.126.742-.27 1.552-.404 2.427-.404zM25.78 34.12c.116.322.273.603.47.843.196.24.433.427.71.558.277.132.584.198.92.198.743 0 1.323-.233 1.738-.7.416-.467.624-1.116.624-1.947 0-.816-.208-1.46-.624-1.935-.415-.474-.973-.71-1.673-.71-.686 0-1.247.247-1.684.743-.437.496-.656 1.13-.656 1.903 0 .38.058.73.175 1.05zm-6.563-23.668c0-1.166-.547-1.75-1.64-1.75-.6 0-1.055.194-1.368.58-.315.386-.47.95-.47 1.695v5.272h-3.545V1.023h3.544v3.85c0 .292-.005.533-.012.722l-.022.536c-.008.168-.022.343-.044.525s-.048.405-.077.667l.088.044c.51-.57 1-.97 1.466-1.203.465-.233 1.027-.35 1.683-.35.758 0 1.455.16 2.09.48.633.322 1.11.752 1.432 1.292.145.248.25.536.317.864.066.33.098.748.098 1.258v6.54h-3.543v-5.796zm-6.475 22.663c0 .817-.12 1.56-.36 2.23-.242.672-.58 1.244-1.018 1.718-.438.474-.967.842-1.586 1.105-.62.262-1.31.394-2.067.394-.67 0-1.22-.088-1.65-.263-.43-.176-.858-.482-1.28-.92l-.088.044c.03.248.05.46.065.634l.044.515c.016.167.023.346.023.535v3.019H1.28v-14.11h3.39v.438c0 .073-.008.15-.022.23-.015.08-.05.186-.11.317l.066.044c.263-.277.507-.503.733-.678.226-.175.46-.317.7-.427.24-.108.5-.185.777-.228.277-.044.598-.066.962-.066.758 0 1.444.128 2.056.383.613.254 1.134.622 1.565 1.103.43.482.76 1.058.995 1.73.233.67.35 1.42.35 2.252zm-4.3-1.86c-.4-.466-.936-.7-1.606-.7-.657 0-1.196.24-1.62.722-.422.48-.634 1.1-.634 1.86 0 .743.205 1.34.613 1.793.408.453.94.678 1.597.678.7 0 1.25-.222 1.65-.667.402-.443.603-1.045.603-1.803 0-.788-.2-1.415-.602-1.882zm-.48-26.14c-.05 0-.128-.015-.23-.044.03.103.044.18.044.23V16.25H3.73V5.55v-.25c0-.052.014-.13.043-.23-.102.028-.18.043-.23.043H.493V1.68H10.97v3.435H7.962zM2.264 51.04c.495-.472 1.093-.837 1.793-1.092.7-.255 1.48-.383 2.34-.383 1.095 0 2.075.21 2.943.634.868.422 1.506.998 1.914 1.727.22.41.394.908.525 1.5.13.59.196 1.19.196 1.803v.678H4.89c-.133 0-.224-.003-.275-.01-.05-.008-.135-.026-.25-.055.042.73.228 1.254.557 1.575.328.32.842.48 1.542.48.218 0 .404-.013.558-.043.153-.03.295-.083.426-.164.13-.08.252-.192.36-.338.11-.145.23-.328.362-.547h3.697c-.088.803-.387 1.48-.897 2.035-.452.48-1.072.864-1.86 1.148-.787.285-1.64.427-2.56.427-.903 0-1.713-.128-2.427-.383-.715-.255-1.327-.616-1.837-1.083-.51-.467-.9-1.032-1.17-1.696-.27-.664-.405-1.41-.405-2.242 0-.832.135-1.583.405-2.254.27-.67.653-1.243 1.15-1.717zm2.57 2.495c.08-.007.222-.01.427-.01h2.166c.19 0 .328.003.416.01.087.008.21.026.372.055-.117-.613-.31-1.047-.58-1.302-.27-.255-.682-.383-1.236-.383-1.123 0-1.772.562-1.947 1.685.176-.03.304-.047.384-.055zM2.154 72.95c.452-.482.985-.854 1.597-1.117.614-.262 1.292-.393 2.036-.393.656 0 1.203.095 1.64.284.438.19.91.54 1.422 1.05l.066-.022c-.06-.13-.095-.237-.11-.317-.014-.08-.022-.157-.022-.23v-.437h3.39v10.106h-3.39v-.35c0-.058.008-.12.022-.186.015-.065.05-.156.11-.273l-.066-.044c-.233.25-.456.45-.667.603-.21.153-.433.276-.666.37-.234.096-.485.162-.755.198-.27.038-.58.056-.93.056-.803 0-1.496-.113-2.08-.34-.582-.225-1.1-.57-1.552-1.038-.48-.51-.846-1.105-1.094-1.783-.248-.678-.372-1.425-.372-2.242 0-.788.124-1.513.372-2.177.248-.663.598-1.236 1.05-1.717zm2.844 5.774c.394.423.94.634 1.64.634.686 0 1.23-.225 1.63-.678.4-.452.602-1.064.602-1.837 0-.73-.2-1.316-.602-1.76-.4-.446-.93-.668-1.586-.668-.335 0-.64.062-.918.186-.277.125-.514.3-.71.526-.198.226-.355.496-.472.81-.116.313-.175.652-.175 1.016 0 .76.197 1.35.59 1.772zm12.71-6.366c0 .117-.012.23-.034.34-.022.11-.07.266-.142.47l.088.044c.233-.336.422-.59.568-.766.146-.175.314-.328.504-.46.276-.19.6-.335.973-.437.372-.103.762-.154 1.17-.154.788 0 1.49.15 2.11.448.62.3 1.077.71 1.368 1.236.307.555.46 1.21.46 1.97v6.824H21.23v-5.556c0-1.327-.526-1.99-1.576-1.99-.57 0-1.028.178-1.378.535-.35.358-.525.842-.525 1.455v5.556h-3.543V71.768h3.5v.59zm8.62-22.41c.7-.255 1.48-.383 2.34-.383 1.093 0 2.074.21 2.94.634.87.422 1.507.998 1.915 1.727.22.41.394.908.525 1.5.132.59.197 1.19.197 1.803v.678h-7.087c-.13 0-.223-.003-.274-.01-.05-.008-.135-.026-.25-.055.043.73.228 1.254.557 1.575.33.32.843.48 1.543.48.22 0 .404-.013.558-.043.154-.03.296-.083.427-.164.13-.08.252-.192.36-.338.11-.145.23-.328.362-.547h3.696c-.088.803-.387 1.48-.897 2.035-.453.48-1.073.864-1.86 1.148-.788.285-1.64.427-2.56.427-.904 0-1.713-.128-2.428-.383-.715-.255-1.327-.616-1.837-1.083-.51-.467-.9-1.032-1.17-1.696-.27-.664-.405-1.41-.405-2.242 0-.832.134-1.583.404-2.254.27-.67.653-1.243 1.15-1.717.494-.472 1.093-.837 1.793-1.092zm.775 3.587c.08-.007.222-.01.427-.01h2.165c.19 0 .328.003.416.01.088.008.212.026.373.055-.117-.613-.31-1.047-.58-1.302-.27-.255-.682-.383-1.236-.383-1.123 0-1.772.562-1.947 1.685.175-.03.303-.047.383-.055zM18.955 60H16.09l-4.66-10.107h3.937l1.094 2.91c.132.364.245.67.34.918.095.25.175.486.24.712l.208.71c.073.25.153.548.24.898h.11c.088-.35.168-.646.24-.886.074-.24.143-.474.21-.7.064-.226.144-.463.24-.71.094-.25.207-.562.338-.942l1.094-2.91h3.806L18.956 60zm-.198-31.862c.423-.284.955-.426 1.597-.426.073 0 .17.003.295.01.123.008.25.02.382.033l.175.022.197.022.175.02v3.238c-.205-.058-.373-.094-.504-.11-.13-.013-.27-.02-.416-.02-1.91 0-2.865.976-2.865 2.93v4.266H14.25V28.018h3.392v.634c0 .117-.015.24-.044.372-.03.13-.08.32-.153.57l.11.02c.378-.7.78-1.19 1.202-1.476zm8.86 44.81c.45-.48.984-.852 1.596-1.115.613-.262 1.29-.393 2.035-.393.597 0 1.122.087 1.575.262.452.175.89.452 1.312.83l.066-.042c-.03-.292-.05-.54-.065-.744-.015-.204-.025-.397-.033-.58-.007-.182-.01-.383-.01-.6v-3.96h3.543v15.268h-3.39v-.437c0-.073.007-.15.02-.23.016-.08.052-.186.11-.317l-.065-.022c-.525.51-1.032.87-1.52 1.083-.49.212-1.076.318-1.76.318-.716 0-1.368-.13-1.96-.394-.59-.262-1.1-.634-1.53-1.116-.43-.48-.762-1.053-.995-1.717-.234-.662-.35-1.395-.35-2.197 0-.788.123-1.513.37-2.177.25-.663.6-1.236 1.05-1.717zm2.82 5.754c.38.438.898.656 1.554.656.7 0 1.266-.225 1.697-.678.43-.452.645-1.057.645-1.815 0-.744-.197-1.335-.59-1.772-.394-.438-.92-.656-1.576-.656-.67 0-1.22.233-1.65.7-.43.466-.646 1.07-.646 1.815 0 .73.19 1.313.568 1.75zM35.668 60V49.892h3.5v.59c0 .117-.01.23-.033.34-.022.11-.07.266-.142.47l.088.044c.233-.336.422-.59.568-.766.146-.174.314-.327.504-.458.276-.19.6-.336.973-.438.372-.102.762-.153 1.17-.153.788 0 1.49.15 2.11.45.62.298 1.076.71 1.368 1.235.307.555.46 1.21.46 1.97v6.824H42.69v-5.557c0-1.327-.526-1.99-1.576-1.99-.57 0-1.028.178-1.378.535-.35.358-.525.842-.525 1.455V60h-3.543zm9.012-21.843c-.716-.255-1.328-.616-1.838-1.083-.51-.466-.9-1.03-1.17-1.695-.27-.665-.405-1.412-.405-2.243 0-.832.134-1.583.404-2.254.27-.67.654-1.243 1.15-1.717.495-.473 1.094-.838 1.794-1.093s1.48-.383 2.34-.383c1.094 0 2.075.21 2.942.634.868.423 1.506 1 1.914 1.728.22.41.394.908.525 1.5.132.59.197 1.19.197 1.803v.678h-7.087c-.13 0-.223-.003-.274-.01-.05-.008-.134-.026-.25-.055.044.73.23 1.254.558 1.575.328.32.842.48 1.542.48.22 0 .404-.013.558-.043.153-.03.295-.083.426-.164.13-.08.252-.193.36-.34.11-.144.23-.327.362-.546h3.697c-.088.803-.387 1.48-.897 2.035-.452.48-1.072.864-1.86 1.148-.787.285-1.64.427-2.56.427-.903 0-1.712-.128-2.427-.383zm.71-6.497c.08-.007.222-.01.427-.01h2.165c.19 0 .328.003.416.01.087.008.21.026.372.055-.117-.613-.31-1.047-.58-1.302-.27-.255-.682-.383-1.236-.383-1.123 0-1.772.562-1.947 1.685.175-.03.303-.047.383-.055zM51.745 60H48.2V49.892h3.545V60zm-3.172-14.417c.38-.38.84-.568 1.378-.568.555 0 1.022.19 1.4.568.38.38.57.84.57 1.38 0 .553-.19 1.02-.57 1.4-.378.378-.845.567-1.4.567-.538 0-.998-.19-1.377-.568-.38-.38-.568-.846-.568-1.4 0-.54.19-1 .568-1.38zm-.788 29.094c.13.365.244.67.34.92.093.247.174.484.24.71l.207.71c.073.25.153.548.24.898h.11c.088-.35.168-.646.24-.886.074-.242.143-.475.21-.7.064-.227.144-.464.24-.712.094-.248.207-.56.338-.94l1.094-2.91h3.806l-4.572 10.106h-2.865l-4.66-10.106h3.938l1.095 2.91zm9.274-7.787c.553 0 1.02.19 1.4.568.378.38.568.84.568 1.38 0 .553-.19 1.02-.57 1.4-.378.378-.845.567-1.4.567-.538 0-.998-.19-1.377-.568-.378-.38-.567-.846-.567-1.4 0-.54.19-1 .568-1.38.38-.378.84-.567 1.38-.567zm1.793 14.984H55.31V71.768h3.543v10.106zm-2.208-47.512c-.35-.088-.646-.164-.886-.23-.242-.066-.45-.13-.625-.197-.175-.066-.324-.135-.448-.208-.124-.073-.244-.167-.36-.284-.293-.248-.512-.565-.657-.952-.146-.385-.205-.804-.175-1.257.058-1.18.514-2.096 1.367-2.745.853-.65 1.98-.937 3.38-.864.597.03 1.162.117 1.695.263.532.146 1.163.38 1.892.7l-1.29 2.318c-.44-.247-.876-.44-1.314-.58-.437-.138-.824-.207-1.16-.207-.627 0-.955.233-.984.7 0 .233.11.423.328.57.117.072.252.137.405.195.153.06.31.11.47.154l.35.065.372.088.35.087c.452.102.828.23 1.127.383.3.153.543.34.733.558.19.22.324.48.404.787.08.307.122.67.122 1.094 0 .51-.095.994-.285 1.454-.19.46-.46.85-.81 1.17-.45.423-.95.718-1.498.886-.547.167-1.266.252-2.155.252-.365 0-.784-.048-1.258-.143-.474-.096-.9-.223-1.28-.383-.204-.073-.4-.16-.59-.263-.19-.102-.453-.255-.788-.46l1.093-2.384c.554.32 1.028.55 1.422.69.394.138.787.222 1.18.25.35.03.643-.02.876-.152.234-.13.35-.3.35-.503 0-.19-.105-.35-.316-.482-.212-.13-.558-.255-1.04-.37zm1.225 18.626c-.35.358-.525.842-.525 1.455V60H53.8V49.892h3.5v.59c0 .117-.01.23-.032.34-.02.11-.07.266-.142.47l.088.044c.233-.336.423-.59.568-.766.146-.174.314-.327.504-.458.276-.19.6-.336.973-.438.37-.102.76-.153 1.17-.153.787 0 1.49.15 2.11.45.62.298 1.076.71 1.368 1.235.306.555.46 1.21.46 1.97v6.824h-3.545v-5.557c0-1.327-.525-1.99-1.575-1.99-.57 0-1.028.178-1.378.535zm4.68 26.38c.394.14.787.224 1.18.253.35.03.643-.02.876-.152.233-.13.35-.3.35-.503 0-.19-.106-.35-.317-.482-.213-.13-.56-.255-1.04-.37-.35-.09-.645-.165-.886-.23-.24-.067-.448-.132-.623-.198-.174-.066-.324-.135-.448-.208-.124-.073-.244-.167-.36-.284-.293-.248-.51-.565-.657-.952-.146-.385-.204-.804-.175-1.257.058-1.18.514-2.096 1.367-2.745.853-.65 1.98-.937 3.38-.864.598.03 1.163.117 1.695.263.532.146 1.163.38 1.892.7l-1.29 2.318c-.438-.247-.875-.44-1.313-.58-.436-.138-.823-.207-1.158-.207-.627 0-.956.233-.985.7 0 .233.11.423.33.57.115.072.25.137.403.195.153.06.31.11.47.154l.35.065.372.088.35.087c.452.102.828.23 1.127.383.298.153.542.34.732.558.19.22.324.48.405.787.08.307.12.67.12 1.094 0 .51-.095.994-.285 1.454-.19.46-.46.85-.81 1.17-.45.423-.95.718-1.497.886-.547.168-1.266.252-2.155.252-.365 0-.784-.048-1.258-.143-.474-.096-.9-.223-1.28-.383-.204-.073-.4-.16-.59-.263-.19-.102-.452-.255-.788-.46l1.094-2.384c.554.32 1.028.55 1.422.69zm11.245-28.972v-.503h3.39v9.8c0 .758-.073 1.39-.218 1.892-.146.503-.387.922-.722 1.258-.467.495-1.123.875-1.97 1.137-.845.263-1.83.394-2.952.394-.977 0-1.84-.142-2.592-.426-.75-.285-1.344-.704-1.782-1.258-.204-.263-.347-.525-.427-.788-.08-.262-.134-.62-.163-1.072h3.697c.073.394.226.67.46.832.233.16.605.24 1.115.24.772 0 1.32-.193 1.64-.58.32-.386.48-1.053.48-2v-.242c0-.03.005-.062.012-.098.007-.036.047-.12.12-.252l-.087-.043c-.467.496-.923.842-1.367 1.04-.445.196-.988.294-1.63.294-.73 0-1.404-.13-2.023-.393-.62-.262-1.153-.623-1.597-1.083-.445-.46-.792-1.01-1.04-1.65-.248-.643-.37-1.35-.37-2.123 0-.772.115-1.48.35-2.12.232-.642.564-1.193.994-1.652.43-.46.948-.813 1.553-1.06.605-.25 1.272-.373 2.002-.373.32 0 .616.025.886.076.27.053.528.133.776.242.247.11.49.262.732.46.24.196.5.433.777.71l.086-.022c-.058-.145-.095-.258-.11-.34-.014-.08-.02-.177-.02-.294zm-.503 2.67c-.423-.453-.97-.68-1.64-.68-.657 0-1.193.223-1.61.668-.414.445-.622 1.017-.622 1.717 0 .76.2 1.354.6 1.784.402.43.953.645 1.653.645.7 0 1.25-.212 1.652-.635.4-.423.6-1.007.6-1.75 0-.715-.21-1.298-.633-1.75zm.37 23.85c0 .48.03.854.088 1.123.058.268.153.504.284.708.32.45.78.676 1.378.676.336 0 .638-.076.908-.23.27-.15.463-.36.58-.62.073-.16.13-.39.175-.688.044-.298.066-.62.066-.97v-5.148h3.544v5.447c0 .743-.065 1.367-.197 1.87-.13.503-.342.944-.634 1.323-.452.57-1.076 1.01-1.87 1.324-.795.313-1.703.47-2.724.47-1.094 0-2.046-.19-2.855-.57-.81-.378-1.404-.917-1.783-1.617-.336-.627-.503-1.524-.503-2.69v-5.557h3.542v5.148zm9.822-3.967c.452-.482.984-.854 1.597-1.117.613-.262 1.292-.393 2.035-.393.657 0 1.203.095 1.64.284.438.19.912.54 1.423 1.05l.065-.022c-.058-.13-.095-.237-.11-.317-.014-.08-.02-.157-.02-.23v-.437h3.39v10.106h-3.39v-.35c0-.058.006-.12.02-.186.015-.065.052-.156.11-.273l-.065-.044c-.234.25-.456.45-.667.603-.21.153-.433.276-.667.37-.233.096-.485.162-.754.198-.27.038-.58.056-.93.056-.803 0-1.496-.113-2.08-.34-.582-.225-1.1-.57-1.552-1.038-.48-.51-.846-1.105-1.094-1.783-.248-.678-.372-1.425-.372-2.242 0-.788.124-1.513.372-2.177.248-.663.598-1.236 1.05-1.717zm2.844 5.774c.394.423.94.634 1.64.634.686 0 1.23-.225 1.63-.678.4-.452.602-1.064.602-1.837 0-.73-.2-1.316-.602-1.76-.4-.446-.93-.668-1.586-.668-.335 0-.642.062-.92.186-.276.125-.513.3-.71.526-.196.226-.353.496-.47.81-.117.313-.175.652-.175 1.016 0 .76.197 1.35.59 1.772zm1.357-40.6H84.14V28.018h3.545v10.106zm-3.172-14.416c.38-.38.84-.568 1.378-.568.555 0 1.022.19 1.4.568.38.38.57.84.57 1.38 0 .553-.19 1.02-.57 1.4-.378.378-.845.567-1.4.567-.538 0-.998-.19-1.377-.568-.38-.38-.57-.846-.57-1.4 0-.54.19-1 .57-1.38zm4.703 36.663c-.86 0-1.655-.134-2.384-.404-.73-.27-1.36-.645-1.892-1.126-.533-.482-.95-1.054-1.247-1.717-.3-.664-.45-1.39-.45-2.177 0-.788.15-1.513.45-2.177.298-.664.714-1.237 1.247-1.718.532-.48 1.17-.856 1.914-1.126.743-.27 1.553-.405 2.428-.405s1.673.132 2.395.395c.722.262 1.345.63 1.87 1.104.525.473.93 1.042 1.214 1.706.286.663.428 1.396.428 2.198 0 .817-.142 1.56-.427 2.23-.283.672-.688 1.245-1.213 1.72-.525.473-1.156.84-1.892 1.103s-1.55.394-2.44.394zm1.717-7.36c-.415-.474-.973-.71-1.673-.71-.686 0-1.247.247-1.684.743-.438.496-.657 1.13-.657 1.903 0 .38.057.73.174 1.05.117.32.274.602.47.842.197.24.434.427.712.558.276.13.583.197.918.197.744 0 1.324-.233 1.74-.7.415-.467.623-1.116.623-1.947 0-.817-.208-1.462-.624-1.936zm8.148 28.864h-3.543V66.65h3.544v15.224zm-2.098-32.42V48.21c0-1.283.317-2.212.95-2.79.636-.575 1.675-.863 3.118-.863.307 0 .58.01.82.033.24.022.537.07.887.142v2.69c-.234-.057-.42-.097-.558-.12-.14-.02-.282-.032-.428-.032-.423 0-.73.117-.918.35-.19.233-.285.62-.285 1.16v.929c0 .05-.016.128-.045.23.102-.03.18-.044.23-.044h1.849v2.69H100.71c-.05 0-.126-.014-.228-.043.03.102.043.178.043.23V60h-3.543v-6.98-.25c0-.052.014-.128.043-.23-.102.03-.178.043-.23.043H95.56v-2.69h1.236c.05 0 .127.015.23.044-.03-.102-.044-.18-.044-.23v-.252zm16.81-11.58c-.21.152-.434.275-.667.37-.233.095-.485.16-.755.197-.27.037-.58.056-.93.056-.8 0-1.494-.113-2.077-.34-.584-.225-1.102-.57-1.554-1.038-.482-.51-.846-1.105-1.094-1.783-.248-.678-.372-1.425-.372-2.242 0-.788.124-1.513.372-2.177.248-.663.598-1.236 1.05-1.717.452-.482.984-.854 1.597-1.117.612-.262 1.29-.393 2.034-.393.656 0 1.203.095 1.64.284.438.19.912.54 1.422 1.05l.065-.022c-.058-.13-.095-.237-.11-.317-.014-.08-.02-.157-.02-.23v-.437h3.39v10.106h-3.39v-.35c0-.058.006-.12.02-.186.015-.065.052-.156.11-.273l-.066-.044c-.234.25-.456.45-.668.603zm.088-6.542c-.4-.445-.93-.667-1.586-.667-.336 0-.642.062-.92.186-.276.125-.513.3-.71.526-.197.226-.354.496-.47.81-.117.313-.175.652-.175 1.016 0 .76.196 1.35.59 1.772.393.423.94.634 1.64.634.685 0 1.23-.225 1.63-.678.4-.452.6-1.064.6-1.837 0-.73-.2-1.316-.6-1.76zM102.8 79.37c.393.138.787.222 1.18.25.35.03.642-.02.875-.152.234-.13.35-.3.35-.503 0-.19-.105-.35-.317-.482-.21-.13-.558-.255-1.04-.37-.35-.09-.644-.165-.885-.23-.24-.067-.448-.132-.623-.198s-.325-.135-.45-.208c-.123-.073-.243-.167-.36-.284-.29-.248-.51-.565-.656-.952-.146-.385-.204-.804-.175-1.257.057-1.18.513-2.096 1.366-2.745.854-.65 1.98-.937 3.38-.864.598.03 1.163.117 1.695.263.534.146 1.164.38 1.894.7l-1.29 2.318c-.44-.247-.876-.44-1.314-.58-.437-.138-.824-.207-1.16-.207-.626 0-.954.233-.983.7 0 .233.11.423.328.57.116.072.25.137.405.195.153.06.31.11.47.154l.35.065.372.088.35.087c.452.102.827.23 1.126.383.3.153.543.34.733.558.19.22.325.48.406.787.08.307.12.67.12 1.094 0 .51-.095.994-.284 1.454-.19.46-.46.85-.81 1.17-.452.423-.95.718-1.498.886-.547.168-1.265.252-2.155.252-.365 0-.785-.048-1.26-.143-.473-.096-.9-.223-1.278-.383-.205-.073-.402-.16-.59-.263-.19-.102-.453-.255-.788-.46l1.093-2.384c.554.32 1.028.55 1.422.69zm38.17-21.876c.395.14.79.223 1.183.252.35.03.64-.022.875-.153.233-.13.35-.3.35-.503 0-.19-.106-.35-.318-.482-.21-.13-.557-.255-1.04-.37-.35-.09-.644-.165-.885-.23-.24-.067-.448-.132-.623-.198s-.325-.135-.45-.208c-.123-.073-.243-.167-.36-.284-.29-.248-.51-.565-.656-.952-.146-.386-.204-.805-.175-1.258.06-1.18.515-2.096 1.368-2.745.854-.65 1.98-.937 3.38-.864.598.028 1.163.116 1.695.262.533.146 1.163.38 1.893.7l-1.29 2.318c-.438-.247-.876-.44-1.313-.58-.438-.138-.825-.207-1.16-.207-.627 0-.955.233-.984.7 0 .233.108.423.327.57.116.072.25.137.405.195.153.06.31.11.47.154l.35.065.372.088.35.087c.452.102.827.23 1.126.383.3.153.543.34.733.558.19.22.325.48.405.787.08.307.12.67.12 1.094 0 .51-.095.995-.284 1.455-.19.458-.46.848-.81 1.17-.452.422-.95.717-1.498.885-.547.167-1.265.252-2.155.252-.363 0-.783-.048-1.257-.143-.474-.095-.9-.222-1.28-.382-.204-.073-.4-.16-.59-.263-.19-.103-.452-.256-.787-.46l1.093-2.385c.553.32 1.028.55 1.42.69zm9.408-12.48c.554 0 1.02.19 1.4.57.38.38.568.838.568 1.378 0 .554-.19 1.02-.568 1.4-.38.38-.846.568-1.4.568-.54 0-1-.19-1.38-.568-.378-.38-.567-.846-.567-1.4 0-.54.19-1 .57-1.38.378-.378.838-.567 1.378-.567zM152.17 60h-3.543V49.892h3.544V60zm2.932-8.948c.452-.495.992-.878 1.62-1.148.626-.27 1.326-.405 2.1-.405.597 0 1.133.068 1.607.207.473.14 1.016.376 1.63.71v3.545c-.22-.248-.428-.456-.625-.624-.197-.167-.386-.3-.57-.394-.18-.094-.37-.164-.567-.207-.197-.044-.413-.066-.646-.066-.685 0-1.225.205-1.618.613-.394.41-.59.97-.59 1.685 0 .7.196 1.254.59 1.662.393.41.926.613 1.596.613.452 0 .857-.084 1.215-.252.357-.166.76-.462 1.214-.885v3.457c-.395.175-.73.32-1.008.437-.277.116-.543.203-.798.262-.255.058-.507.098-.755.12-.25.022-.533.033-.854.033-1.458 0-2.574-.38-3.347-1.138-.51-.48-.91-1.083-1.193-1.804-.284-.722-.426-1.513-.426-2.374 0-.832.124-1.59.372-2.276.248-.685.598-1.276 1.05-1.772z"/>
</svg>