<svg xmlns="http://www.w3.org/2000/svg" width="210" height="98">
  <path fill-rule="evenodd" fill="#FC0" d="M181.12 73.587c-1.834-1.008-3.76-1.65-5.18-1.65-1.283 0-2.016.55-2.062 1.467 0 .458.23.87.687 1.19.504.322 1.146.55 1.833.734l.734.138.78.183.732.183c3.758.87 4.996 2.383 4.996 5.912 0 2.154-.825 4.17-2.292 5.5-1.88 1.74-3.94 2.382-7.654 2.382-1.512 0-3.712-.458-5.316-1.1-.825-.32-1.512-.687-2.887-1.512l2.292-4.995c2.292 1.33 3.804 1.88 5.454 1.97 1.467.092 2.567-.504 2.567-1.375 0-.78-.825-1.33-2.842-1.787-2.978-.687-3.85-1.008-4.857-1.925-1.19-1.054-1.833-2.75-1.74-4.63.228-4.902 4.123-7.88 9.944-7.56 2.475.137 4.49.687 7.516 2.016l-2.704 4.857zM143.17 97.19l6.28-11.825-9.763-17.828h8.478l5.317 11.78 5.27-11.78h7.975l-15.49 29.652h-8.067zm-11.46-9.946c-1.924 1.742-3.253 2.246-6.186 2.246-3.346 0-5.73-.917-7.608-2.887-2.017-2.11-3.07-5.042-3.07-8.433 0-6.645 4.4-11.32 10.586-11.32 2.704 0 4.216.596 6.28 2.52v-1.833h7.102V88.71h-7.103v-1.466zm-4.4-14.16c-2.75 0-4.765 2.244-4.765 5.315 0 3.16 1.74 5.04 4.674 5.04 2.84 0 4.674-2.062 4.674-5.27 0-3.025-1.833-5.087-4.583-5.087zM98.575 88.71H86.29V58.19h12.513c8.845 0 14.803 6.05 14.803 15.078 0 9.487-5.775 15.445-15.032 15.445zm3.987-21.86c-1.19-1.1-2.703-1.65-4.582-1.65H94.86v16.636h3.118c4.4 0 6.874-2.933 6.874-8.066 0-3.437-.64-5.408-2.29-6.92zM74.19 88.71h-7.423V73.175h-2.98v-5.637h2.98V61.67h7.424v5.867h3.897v5.637H74.19V88.71zm-23.74.78c-7.242 0-12.512-4.812-12.512-11.366 0-6.6 5.27-11.366 12.65-11.366 7.332 0 12.373 4.63 12.373 11.32 0 6.83-4.994 11.412-12.51 11.412zm.09-16.91c-2.84 0-4.903 2.336-4.903 5.544 0 3.162 2.017 5.546 4.767 5.546 3.116 0 4.95-2.063 4.95-5.546 0-3.39-1.88-5.545-4.813-5.545zm-18.194-7.06c-2.246 0-4.08-1.832-4.08-4.124 0-2.246 1.834-4.08 4.08-4.08 2.292 0 4.125 1.834 4.125 4.08 0 2.292-1.832 4.125-4.124 4.125zM17.038 88.71l-6.875-10.494V88.71H2.005V58.19H14.61c2.702 0 5.177.687 6.736 1.925 2.29 1.74 3.574 4.63 3.574 7.883 0 4.4-2.658 7.928-6.508 8.524l8.89 12.19H17.04zM12.82 65.063h-2.565v7.013h2.566c2.11 0 3.53-1.42 3.53-3.484 0-2.198-1.33-3.528-3.53-3.528zm23.284 23.65H28.68V67.536h7.424V88.71zM206.834 39.23c-1.354 0-2.474-1.173-2.474-2.553 0-1.328 1.146-2.448 2.526-2.448 1.33 0 2.475 1.12 2.475 2.447 0 1.38-1.145 2.552-2.526 2.552zm-.026 2.11c1.38 0 2.5 1.12 2.5 2.5s-1.12 2.473-2.526 2.473c-1.354 0-2.448-1.12-2.448-2.5 0-1.328 1.146-2.474 2.474-2.474zm-10.286 2.056c1.042 0 1.38-.234 2.032-1.302h4.4c-.312 2.63-2.76 4.297-6.354 4.297-4.062 0-6.667-2.525-6.667-6.432 0-3.906 2.578-6.485 6.51-6.485 2.58 0 4.767 1.094 5.705 2.813.52.964.86 2.474.86 3.933v.806h-8.726c.105 1.59.834 2.37 2.24 2.37zm2.162-5.21c-.235-1.353-.886-1.926-2.136-1.926-1.172 0-1.953.677-2.16 1.927h4.296zm-9.74-.858c-2.24 0-3.412 1.198-3.412 3.49v5.078h-4.22V33.864h4.038v1.51c.886-1.38 1.77-1.874 3.23-1.874.286 0 .468.026 1.458.13v3.854c-.495-.13-.755-.156-1.094-.156zm-10.755 8.568h-4.22v-8.828h-1.693v-3.204h1.693V30.53h4.22v3.334h2.213v3.204h-2.214v8.828zm-10.834-.833c-1.094.99-1.85 1.276-3.516 1.276-1.9 0-3.255-.522-4.323-1.642-1.146-1.198-1.745-2.864-1.745-4.792 0-3.776 2.5-6.433 6.016-6.433 1.537 0 2.396.34 3.568 1.433v-1.042h4.037v12.032h-4.037v-.833zm-2.5-8.048c-1.563 0-2.71 1.277-2.71 3.02 0 1.8.99 2.866 2.658 2.866 1.615 0 2.656-1.17 2.656-2.994 0-1.72-1.04-2.89-2.604-2.89zm-14.297 6.38c1.04 0 1.38-.233 2.03-1.3h4.402c-.313 2.63-2.76 4.296-6.355 4.296-4.062 0-6.667-2.525-6.667-6.432 0-3.906 2.578-6.485 6.51-6.485 2.58 0 4.767 1.094 5.705 2.813.52.964.86 2.474.86 3.933v.806h-8.726c.104 1.59.833 2.37 2.24 2.37zm2.16-5.208c-.234-1.354-.885-1.927-2.135-1.927-1.172 0-1.953.677-2.16 1.927h4.296zm-13.957.808c0-1.355-.677-2.084-1.954-2.084-1.407 0-2.188.965-2.188 2.71v6.276h-4.22V27.77h4.22v7.318c1.172-1.198 2.135-1.615 3.672-1.615 1.797 0 3.438.834 4.193 2.11.338.573.495 1.328.495 2.526v7.786h-4.22v-6.9zm-13.047 6.9h-4.818V32.64h-3.854v-4.09h12.474v4.09h-3.802v13.256zm-14.61 0h-4.218V37.07h-1.693v-3.204h1.693V30.53h4.22v3.334h2.212v3.204h-2.213v8.828zm-13.49.444c-4.114 0-7.11-2.736-7.11-6.46 0-3.75 2.996-6.46 7.19-6.46 4.166 0 7.03 2.632 7.03 6.434 0 3.88-2.838 6.485-7.11 6.485zm.053-9.61c-1.615 0-2.787 1.327-2.787 3.15 0 1.797 1.146 3.152 2.708 3.152 1.772 0 2.814-1.172 2.814-3.152 0-1.927-1.068-3.15-2.735-3.15zm-10.34-4.012c-1.276 0-2.317-1.042-2.317-2.344 0-1.276 1.04-2.318 2.318-2.318 1.303 0 2.344 1.042 2.344 2.318 0 1.302-1.04 2.344-2.343 2.344zm-8.697 13.178l-3.906-5.964v5.964H70.09V28.55h7.163c1.537 0 2.943.392 3.83 1.095 1.3.99 2.03 2.63 2.03 4.48 0 2.5-1.51 4.505-3.698 4.844l5.052 6.926h-5.834zm-2.396-13.438H74.78v3.984h1.457c1.198 0 2.006-.807 2.006-1.98 0-1.25-.756-2.004-2.006-2.004zM52.175 50.714l3.568-6.72-5.547-10.13h4.818l3.02 6.693 2.996-6.693h4.53l-8.8 16.85h-4.585zm-3.463-13.412c-1.042-.573-2.136-.938-2.943-.938-.73 0-1.147.313-1.173.834 0 .26.13.495.39.677.287.182.652.312 1.042.417l.416.078.443.104.415.104c2.136.495 2.84 1.354 2.84 3.36 0 1.224-.47 2.37-1.303 3.125-1.068.99-2.24 1.354-4.35 1.354-.86 0-2.11-.26-3.02-.625-.47-.182-.86-.39-1.64-.86l1.3-2.838c1.303.755 2.163 1.068 3.1 1.12.834.052 1.46-.287 1.46-.78 0-.444-.47-.757-1.616-1.017-1.693-.39-2.188-.573-2.76-1.094-.678-.6-1.042-1.563-.99-2.63.13-2.787 2.344-4.48 5.65-4.298 1.407.078 2.553.39 4.272 1.146l-1.536 2.762zm-13.672-.938c-.73 0-1.146.313-1.172.834 0 .26.13.495.39.677.287.182.65.312 1.042.417l.417.078.443.104.416.104c2.136.495 2.84 1.354 2.84 3.36 0 1.224-.47 2.37-1.303 3.125-1.068.99-2.24 1.354-4.35 1.354-.86 0-2.11-.26-3.02-.625-.47-.182-.86-.39-1.64-.86l1.3-2.838c1.303.755 2.163 1.068 3.1 1.12.833.052 1.46-.287 1.46-.78 0-.444-.47-.757-1.616-1.017-1.693-.39-2.188-.573-2.76-1.094-.678-.6-1.043-1.563-.99-2.63.13-2.787 2.343-4.48 5.65-4.298 1.407.078 2.553.39 4.272 1.146l-1.537 2.762c-1.042-.573-2.136-.938-2.943-.938zm-13.073 9.923c-2.604 0-4.636-.964-5.52-2.604-.392-.73-.6-1.85-.6-3.204v-6.616h4.22v6.146c0 1.146.13 1.72.442 2.188.363.52.936.807 1.64.807.807 0 1.484-.39 1.77-1.015.183-.365.287-1.146.287-1.98v-6.146h4.22v6.485c0 1.744-.314 2.916-.99 3.8-1.07 1.356-3.048 2.137-5.47 2.137zM7.41 40.245l-1.042-.026v5.676H1.55V28.55h7.266c1.9 0 3.386.47 4.35 1.356 1.12 1.015 1.77 2.76 1.77 4.61 0 2.083-.885 3.906-2.343 4.843-.99.65-2.422.885-5.183.885zm.547-7.84H6.42v3.907h1.59c1.3 0 1.952-.677 1.952-2.005 0-1.328-.6-1.9-2.005-1.9zm81.51 13.49h-4.22v-12.03h4.22v12.03zM78.857 16.9L74.35 7.15h1.88l1.495 3.46c.185.448.37.916.555 1.404l.577 1.522h.086c.235-.755.608-1.737 1.12-2.948l1.422-3.44h1.73l-4.358 9.753zm-7.392-.78c-.79.293-1.548.44-2.275.44-.555 0-1.136-.1-1.74-.3-.606-.2-1.105-.46-1.496-.78-.527-.42-.94-.965-1.24-1.634-.298-.67-.448-1.4-.448-2.19 0-.698.125-1.342.374-1.933.25-.59.595-1.102 1.036-1.533.442-.43.965-.77 1.57-1.02.605-.25 1.268-.374 1.987-.374 1.06 0 2 .278 2.82.833.406.263.747.558 1.025.886.278.328.497.666.657 1.015.16.35.278.707.353 1.074.074.367.112.725.112 1.074 0 1.046-.264 1.972-.79 2.777-.5.804-1.147 1.36-1.945 1.666zm.71-5.932c-.21-.41-.47-.757-.784-1.042-.313-.285-.66-.504-1.04-.657-.382-.154-.743-.23-1.085-.23-.69 0-1.314.206-1.87.62-.57.405-.948.864-1.137 1.377-.188.513-.283 1.008-.283 1.485 0 .555.102 1.04.305 1.458.203.416.457.767.763 1.052.306.285.638.5.994.646.356.146.747.22 1.175.22.555 0 1.03-.104 1.42-.31.392-.207.727-.47 1.004-.79.278-.322.49-.67.636-1.048.146-.377.22-.794.22-1.25 0-.612-.106-1.123-.316-1.532zm-19.685-3.6c-.374-.43-.75-.892-1.127-1.383l-.064.02c.027.464.052.977.074 1.54.02.562.032 1.185.032 1.868v7.616H49.59V.824l8.47 9.304.673.762c.178.203.34.396.486.577.145.18.298.366.458.555.16.188.354.422.582.7l.075-.022c-.036-.45-.064-.954-.085-1.517-.022-.562-.032-1.192-.032-1.89V1.68h1.815v15.38l-8.438-9.28c-.363-.364-.73-.76-1.105-1.192zM33.91 16.1l5.68-11.12c.122-.25.263-.523.423-.822.16-.3.333-.616.518-.95-.227.014-.504.024-.832.03-.327.01-.712.012-1.153.012H33.6V1.68h9.303L35.33 16.75l-1.42-.65zM29.753 3.688c0-.114.003-.206.01-.278.007-.07.018-.14.032-.203-.142.03-.302.043-.48.043H26.72l.92-1.57h3.76v14.57h-1.646V3.687zm-11.74 1.27c-.292 0-.546-.107-.763-.325-.217-.217-.325-.478-.325-.785 0-.292.108-.548.326-.77.218-.22.472-.33.764-.33.306 0 .57.11.79.33.22.222.332.478.332.77 0 .307-.11.568-.33.785-.222.218-.486.326-.792.326zm-4.09 3.462c-.45 0-.85.19-1.197.566-.35.363-.582.778-.7 1.244-.117.467-.176.935-.176 1.405v4.614h-1.623v-9.1h1.624v.65c0 .22-.05.527-.15.92l.087.03c.306-.61.662-1.06 1.068-1.345.406-.285.893-.427 1.463-.427.335 0 .63.043.887.128.256.085.53.246.822.48l-.897 1.25c-.42-.277-.823-.416-1.207-.416zM2.77 9.04c-.07-.008-.134-.018-.19-.033.013.057.024.123.03.198.008.075.012.17.012.283v6.76H.806V1.68h7.787v1.506H3.06c-.12 0-.217-.003-.29-.01-.07-.008-.134-.018-.19-.033.013.057.024.123.03.198.008.076.012.17.012.284v3.482c0 .114-.004.208-.01.283-.008.074-.02.14-.033.197.056-.015.12-.025.19-.032.073-.007.17-.01.29-.01h5.533V9.05H3.06c-.12 0-.217-.004-.29-.01zm16.077 7.21h-1.623v-9.1h1.623v9.1z"/>
</svg>