<svg 
 xmlns="http://www.w3.org/2000/svg"
 xmlns:xlink="http://www.w3.org/1999/xlink"
 width="46px" height="229px">
<path fill-rule="evenodd"  fill="rgb(246, 246, 246)"
 d="M29.899,219.558 C34.328,219.558 37.344,216.928 37.344,213.046 C37.344,209.165 34.648,206.786 30.220,206.786 C25.728,206.786 22.903,209.227 22.903,213.172 C22.903,217.053 25.728,219.558 29.899,219.558 M-0.009,229.011 L-0.009,218.869 L17.063,218.869 C14.881,216.490 14.047,214.236 14.047,210.855 C14.047,202.340 20.849,196.205 30.220,196.205 C34.777,196.205 39.077,197.833 41.966,200.588 C44.597,203.092 45.880,206.410 45.880,210.542 C45.880,214.674 44.853,217.116 42.286,219.307 L44.789,219.307 L44.789,229.011 L-0.009,229.011 ZM30.349,184.310 C34.777,184.310 37.408,181.931 37.408,177.925 C37.408,174.043 34.521,171.538 30.027,171.538 C25.792,171.538 22.904,174.043 22.904,177.799 C22.904,181.556 26.049,184.310 30.349,184.310 M42.735,171.789 C45.175,174.418 45.880,176.234 45.880,180.240 C45.880,184.811 44.597,188.067 41.837,190.633 C38.885,193.389 34.777,194.829 30.027,194.829 C20.722,194.829 14.175,188.818 14.175,180.366 C14.175,176.672 15.009,174.606 17.705,171.789 L15.138,171.789 L15.138,162.084 L44.789,162.084 L44.789,171.789 L42.735,171.789 ZM15.138,159.769 L15.138,150.064 L18.860,150.064 C15.459,147.936 14.239,145.807 14.239,142.301 C14.239,141.613 14.303,141.174 14.560,138.795 L24.059,138.795 C23.738,139.985 23.674,140.611 23.674,141.425 C23.674,146.809 26.626,149.627 32.274,149.627 L44.789,149.627 L44.789,159.769 L15.138,159.769 ZM29.899,127.455 C34.328,127.455 37.344,124.825 37.344,120.943 C37.344,117.062 34.648,114.683 30.220,114.683 C25.728,114.683 22.903,117.124 22.903,121.069 C22.903,124.951 25.728,127.455 29.899,127.455 M-0.009,136.908 L-0.009,126.767 L17.063,126.767 C14.881,124.387 14.047,122.133 14.047,118.752 C14.047,110.238 20.849,104.103 30.220,104.103 C34.777,104.103 39.077,105.730 41.966,108.485 C44.597,110.989 45.880,114.308 45.880,118.439 C45.880,122.571 44.853,125.013 42.286,127.205 L44.789,127.205 L44.789,136.908 L-0.009,136.908 ZM15.138,102.049 L15.138,91.906 L44.789,91.906 L44.789,102.049 L15.138,102.049 ZM6.538,91.406 C9.747,91.406 12.314,93.910 12.314,97.040 C12.314,100.108 9.747,102.613 6.538,102.613 C3.393,102.613 0.825,100.108 0.825,97.040 C0.825,93.910 3.393,91.406 6.538,91.406 M43.505,66.990 C45.623,71.184 46.009,72.687 46.009,76.193 C46.009,80.200 44.918,83.331 42.671,85.522 C39.847,88.402 35.419,90.029 30.413,90.029 C20.657,90.029 13.983,84.206 13.983,75.755 C13.983,72.499 14.624,70.308 16.678,66.990 L27.075,66.990 C24.188,69.369 23.288,70.872 23.288,73.313 C23.288,77.007 25.856,79.261 30.028,79.261 C34.135,79.261 36.702,77.007 36.702,73.376 C36.702,71.060 35.804,69.369 33.365,66.990 L43.505,66.990 ZM30.349,54.832 C34.777,54.832 37.408,52.453 37.408,48.446 C37.408,44.564 34.521,42.060 30.027,42.060 C25.792,42.060 22.904,44.564 22.904,48.321 C22.904,52.077 26.049,54.832 30.349,54.832 M42.735,42.310 C45.175,44.940 45.880,46.756 45.880,50.763 C45.880,55.332 44.597,58.588 41.837,61.155 C38.885,63.910 34.777,65.349 30.027,65.349 C20.722,65.349 14.175,59.339 14.175,50.887 C14.175,47.193 15.009,45.127 17.705,42.310 L15.138,42.310 L15.138,32.606 L44.789,32.606 L44.789,42.310 L42.735,42.310 ZM15.138,30.228 L15.138,20.211 L18.539,20.211 C15.138,17.644 14.047,15.390 14.047,11.258 C14.047,6.750 15.908,2.994 18.989,1.303 C20.593,0.427 22.454,-0.011 24.765,-0.011 L44.789,-0.011 L44.789,10.131 L28.488,10.131 C24.508,10.131 22.647,11.571 22.647,14.639 C22.647,17.895 24.957,20.085 28.488,20.085 L44.789,20.085 L44.789,30.228 L15.138,30.228 Z"/>
</svg>