<svg xmlns="http://www.w3.org/2000/svg" xmlns:xlink="http://www.w3.org/1999/xlink" width="156" height="30"><path fill-rule="evenodd" fill="#FC0" d="M155.171,15.299 C155.209,23.353 148.710,29.914 140.656,29.952 C132.601,29.989 126.041,23.491 126.003,15.436 C125.965,7.382 132.464,0.822 140.518,0.784 C148.573,0.746 155.133,7.245 155.171,15.299 ZM141.125,6.407 L138.621,8.885 L144.062,13.971 L131.320,13.971 L131.320,17.318 L144.051,17.319 L138.569,22.274 L141.125,24.857 L150.379,15.545 L141.125,6.407 Z"/><path fill-rule="evenodd" fill="#FC0" d="M113.660,21.290 L110.229,21.290 L108.008,13.978 L105.730,21.290 L102.243,21.290 L96.956,8.297 L101.765,8.297 L104.183,15.300 L106.377,8.297 L109.667,8.297 L111.832,15.300 L114.251,8.297 L118.722,8.297 L113.660,21.290 ZM89.980,21.768 C85.536,21.768 82.302,18.815 82.302,14.794 C82.302,10.744 85.536,7.819 90.064,7.819 C94.563,7.819 97.657,10.660 97.657,14.765 C97.657,18.956 94.592,21.768 89.980,21.768 ZM90.036,11.391 C88.292,11.391 87.027,12.825 87.027,14.794 C87.027,16.734 88.264,18.196 89.951,18.196 C91.864,18.196 92.989,16.931 92.989,14.794 C92.989,12.712 91.836,11.391 90.036,11.391 ZM76.733,14.147 C76.733,12.403 76.086,11.588 74.708,11.588 C73.246,11.588 72.261,12.600 72.261,14.147 L72.261,21.290 L67.706,21.290 L67.706,8.297 L72.205,8.297 L72.205,9.788 C73.358,8.297 74.371,7.819 76.227,7.819 C78.251,7.819 79.939,8.635 80.698,9.985 C81.092,10.688 81.288,11.503 81.288,12.516 L81.288,21.290 L76.733,21.290 L76.733,14.147 ZM57.046,21.290 L52.040,15.778 L52.040,21.290 L47.484,21.290 L47.484,1.576 L52.040,1.576 L52.040,13.753 L56.708,8.297 L62.501,8.297 L56.680,14.569 L63.092,21.290 L57.046,21.290 ZM38.821,21.768 C34.378,21.768 31.144,18.815 31.144,14.794 C31.144,10.744 34.378,7.819 38.905,7.819 C43.405,7.819 46.498,10.660 46.498,14.765 C46.498,18.956 43.433,21.768 38.821,21.768 ZM38.877,11.391 C37.134,11.391 35.868,12.825 35.868,14.794 C35.868,16.734 37.106,18.196 38.793,18.196 C40.705,18.196 41.830,16.931 41.830,14.794 C41.830,12.712 40.677,11.391 38.877,11.391 ZM22.762,21.768 C18.318,21.768 15.084,18.815 15.084,14.794 C15.084,10.744 18.318,7.819 22.846,7.819 C27.346,7.819 30.439,10.660 30.439,14.765 C30.439,18.956 27.374,21.768 22.762,21.768 ZM22.818,11.391 C21.074,11.391 19.809,12.825 19.809,14.794 C19.809,16.734 21.046,18.196 22.734,18.196 C24.646,18.196 25.771,16.931 25.771,14.794 C25.771,12.712 24.618,11.391 22.818,11.391 ZM14.492,16.003 C14.492,17.718 13.536,19.462 12.158,20.305 C11.146,20.952 9.683,21.290 8.080,21.290 L0.094,21.290 L0.094,2.561 L7.884,2.561 C11.343,2.561 13.452,4.332 13.452,7.229 C13.452,9.113 12.496,10.491 10.696,11.194 C11.877,11.616 12.552,11.981 13.142,12.600 C13.930,13.387 14.492,14.765 14.492,16.003 ZM6.731,6.329 L5.156,6.329 L5.156,9.985 L6.393,9.985 C7.968,9.985 8.783,9.310 8.783,7.988 C8.783,6.919 8.052,6.329 6.731,6.329 ZM7.377,13.556 L5.156,13.556 L5.156,17.381 L7.181,17.381 C8.699,17.381 9.543,16.678 9.543,15.384 C9.543,14.203 8.755,13.556 7.377,13.556 Z"/></svg>