<svg xmlns="http://www.w3.org/2000/svg" width="207" height="85"><path fill-rule="evenodd" fill="#FC0" d="M199.34 12.016c-.135 0-.23-.004-.283-.01-.054-.01-.14-.028-.262-.058.046.758.24 1.304.58 1.637.34.334.876.5 1.603.5.228 0 .42-.015.58-.045.16-.03.307-.087.443-.17.138-.084.263-.202.377-.353.113-.152.238-.34.375-.57h3.843c-.09.835-.402 1.54-.933 2.116-.47.5-1.114.898-1.932 1.194-.82.295-1.706.443-2.66.443-.94 0-1.782-.133-2.525-.398-.743-.265-1.38-.64-1.91-1.125s-.936-1.073-1.216-1.763c-.282-.69-.422-1.466-.422-2.33 0-.864.14-1.645.42-2.342.28-.698.68-1.293 1.194-1.785.516-.493 1.137-.872 1.865-1.137s1.538-.398 2.433-.398c1.137 0 2.156.22 3.058.66.902.44 1.565 1.038 1.99 1.795.227.425.41.944.546 1.558.136.614.204 1.24.204 1.876v.706h-7.367zm2.855-3.763c-.28-.265-.71-.398-1.285-.398-1.168 0-1.842.583-2.024 1.75.182-.03.315-.048.398-.056.083-.01.23-.013.444-.013h2.25c.198 0 .342.004.433.012.092.007.22.025.387.056-.12-.637-.322-1.088-.602-1.353zm-3.717 20.84l-1.342 2.41c-.455-.257-.91-.458-1.364-.602-.455-.143-.857-.215-1.206-.215-.652 0-.993.242-1.023.727 0 .243.114.44.34.592.122.076.263.144.422.204.16.06.322.114.49.16l.363.068.386.09.364.092c.47.106.86.238 1.17.397.312.16.566.353.763.58.198.228.338.5.422.82.083.317.125.696.125 1.136 0 .532-.1 1.036-.296 1.513-.196.478-.477.883-.84 1.217-.47.44-.99.746-1.558.92-.568.175-1.315.262-2.24.262-.38 0-.815-.05-1.307-.148-.493-.1-.936-.23-1.33-.398-.213-.075-.418-.166-.614-.273-.197-.105-.47-.265-.818-.477l1.137-2.48c.575.335 1.068.574 1.477.718.41.144.82.23 1.228.26.364.032.667-.022.91-.158.242-.137.363-.31.363-.523 0-.197-.11-.364-.33-.5-.22-.137-.58-.265-1.08-.387-.363-.09-.67-.17-.92-.24-.25-.067-.467-.135-.65-.203-.18-.07-.336-.14-.465-.216-.13-.076-.254-.174-.375-.296-.303-.257-.53-.586-.682-.988-.152-.402-.213-.838-.182-1.308.06-1.227.534-2.18 1.42-2.853.888-.674 2.06-.973 3.514-.898.622.03 1.21.122 1.763.273.554.152 1.21.395 1.968.728zm-8.62-18.85c0-1.213-.567-1.82-1.704-1.82-.622 0-1.096.2-1.422.603-.326.402-.49.99-.49 1.762v5.48h-3.682V.442h3.683v4.002c0 .303-.003.553-.01.75-.01.197-.016.383-.024.557-.008.176-.023.358-.046.547-.023.19-.05.42-.08.694l.09.046c.532-.59 1.04-1.008 1.525-1.25.484-.243 1.068-.364 1.75-.364.788 0 1.512.167 2.17.5.66.334 1.157.78 1.49 1.342.152.257.262.557.33.898.07.34.103.777.103 1.307v6.798h-3.684v-6.026zm-6.126 25.98c.28-.16.48-.375.602-.647.076-.166.137-.404.182-.714.045-.31.068-.646.068-1.01v-5.35h3.684v5.662c0 .773-.068 1.42-.205 1.944-.136.523-.356.982-.66 1.376-.47.59-1.117 1.05-1.943 1.375-.827.325-1.77.488-2.83.488-1.138 0-2.127-.197-2.97-.59-.84-.395-1.458-.956-1.852-1.684-.35-.65-.523-1.584-.523-2.796v-5.776h3.684v5.35c0 .5.03.89.09 1.17.06.278.16.524.295.736.334.468.81.702 1.433.702.348 0 .663-.08.944-.238zm-4.05-27.663c-.052 0-.132-.015-.237-.046.03.106.045.186.045.24V16.267h-3.684V9.014v-.26c0-.054.015-.134.046-.24-.106.03-.186.046-.24.046h-1.284V5.763h1.284c.054 0 .134.015.24.045-.03-.106-.046-.185-.046-.24V2.853h3.684v2.716c0 .055-.015.134-.045.24.105-.03.185-.045.238-.045h1.74V8.56h-1.74zm-3.807 25.172c0 .85-.147 1.622-.443 2.32-.296.697-.716 1.292-1.262 1.784-.546.493-1.202.876-1.967 1.148-.766.273-1.61.41-2.535.41-.895 0-1.72-.14-2.48-.42-.757-.28-1.413-.672-1.966-1.172-.553-.5-.985-1.095-1.296-1.785-.31-.69-.466-1.444-.466-2.262 0-.82.155-1.573.466-2.263.31-.69.743-1.285 1.296-1.785s1.217-.89 1.99-1.17c.773-.28 1.614-.422 2.524-.422.91 0 1.74.137 2.49.41.75.272 1.398.655 1.944 1.148.546.493.966 1.084 1.262 1.773.296.69.443 1.452.443 2.286zm-4.422-1.99c-.432-.492-1.012-.74-1.74-.74-.713 0-1.296.26-1.75.774-.456.516-.683 1.175-.683 1.98 0 .393.06.757.182 1.09.12.334.284.625.49.875.204.252.45.445.738.58.288.138.606.206.955.206.773 0 1.376-.242 1.808-.728.432-.485.648-1.16.648-2.023 0-.85-.215-1.52-.647-2.013zm-6.56-15.93c0-.074.007-.154.022-.237.015-.084.053-.194.114-.33l-.07-.023c-.545.53-1.072.906-1.58 1.126-.508.22-1.118.33-1.83.33-.743 0-1.422-.137-2.036-.41-.614-.273-1.144-.66-1.59-1.16-.45-.5-.794-1.095-1.036-1.785-.243-.69-.364-1.45-.364-2.285 0-.818.13-1.572.387-2.262.258-.69.622-1.285 1.092-1.785.47-.5 1.024-.886 1.66-1.16.637-.272 1.342-.408 2.115-.408.62 0 1.167.09 1.637.273.47.18.925.47 1.364.864l.07-.047c-.032-.303-.055-.56-.07-.773-.015-.212-.026-.413-.034-.603-.007-.19-.01-.398-.01-.625V.396h3.683v15.872h-3.525v-.455zm-.524-6.593c-.41-.456-.956-.683-1.638-.683-.697 0-1.27.243-1.717.728-.447.485-.67 1.114-.67 1.887 0 .758.196 1.364.59 1.82.395.454.933.68 1.615.68.728 0 1.315-.234 1.762-.704.447-.47.67-1.1.67-1.887 0-.772-.204-1.386-.613-1.84zM157.353 28.5c.053 0 .133.015.24.045-.03-.106-.046-.185-.046-.238V25.59h3.683v2.719c0 .052-.014.13-.044.237.106-.03.185-.045.24-.045h1.738V31.3h-1.738c-.055 0-.134-.016-.24-.047.03.106.045.186.045.24V39.006h-3.682v-7.254-.26c0-.054.015-.134.045-.24-.106.03-.186.046-.24.046h-1.283V28.5h1.283zm-3.285 9.334c-.547.493-1.203.876-1.968 1.148-.766.273-1.61.41-2.536.41-.894 0-1.72-.14-2.478-.42-.758-.28-1.414-.672-1.967-1.172-.553-.5-.985-1.095-1.295-1.785-.31-.69-.466-1.444-.466-2.262 0-.82.154-1.573.465-2.263.31-.69.742-1.285 1.296-1.785s1.218-.89 1.99-1.17c.774-.28 1.615-.422 2.525-.422.91 0 1.74.137 2.49.41.75.272 1.398.655 1.944 1.148.545.493.965 1.084 1.26 1.773.296.69.444 1.452.444 2.286 0 .85-.148 1.622-.443 2.32-.295.697-.715 1.292-1.26 1.784zm-2.72-6.094c-.43-.492-1.01-.74-1.738-.74-.713 0-1.296.26-1.75.774-.456.516-.683 1.175-.683 1.98 0 .393.06.757.18 1.09.122.334.285.625.49.875.204.252.45.445.74.58.286.138.605.206.954.206.773 0 1.375-.242 1.807-.728.434-.485.65-1.16.65-2.023 0-.85-.216-1.52-.65-2.013zm.013-21.25c0-1.38-.546-2.07-1.638-2.07-.59 0-1.068.187-1.432.558-.364.372-.546.876-.546 1.512v5.776h-3.684V5.763h3.64v.614c0 .12-.013.238-.036.352-.022.113-.072.276-.147.488l.09.046c.243-.35.44-.614.592-.796.15-.182.326-.34.523-.478.288-.197.625-.348 1.012-.455.386-.106.792-.16 1.216-.16.82 0 1.55.157 2.195.467.644.31 1.117.74 1.42 1.285.32.576.478 1.26.478 2.047v7.094h-3.683v-5.776zm-9.39 49.73c-.47.592-1.12 1.05-1.945 1.376-.827.326-1.77.49-2.83.49-1.138 0-2.127-.198-2.97-.592-.84-.394-1.458-.955-1.852-1.683-.35-.65-.523-1.583-.523-2.796V51.24h3.684v5.352c0 .5.03.888.09 1.168.06.28.16.525.296.737.334.468.81.703 1.433.703.348 0 .663-.08.944-.24.28-.157.48-.373.602-.645.076-.166.137-.404.182-.714.046-.31.068-.645.068-1.008v-5.35h3.684v5.66c0 .774-.068 1.422-.205 1.945-.135.523-.355.982-.658 1.376zm-1.912-55.46c-.56 0-1.037-.197-1.43-.59-.396-.395-.592-.88-.592-1.456 0-.56.196-1.038.59-1.433.395-.394.872-.59 1.433-.59.577 0 1.062.196 1.457.59.394.395.59.872.59 1.433 0 .576-.196 1.06-.59 1.455-.395.395-.88.592-1.456.592zm-1.818 1h3.684V16.27h-3.684V5.763zm3.593 33.245h-3.683V28.502h3.683v10.505zm-3.297-14.985c.394-.394.872-.59 1.433-.59.577 0 1.062.196 1.456.59.394.395.59.872.59 1.433 0 .576-.196 1.06-.59 1.455-.394.394-.88.59-1.455.59-.56 0-1.038-.196-1.432-.59-.394-.394-.59-.88-.59-1.455 0-.56.196-1.038.59-1.433zm-2.524 7.504c-1.986 0-2.98 1.016-2.98 3.047v4.434h-3.682V28.502h3.524v.66c0 .12-.015.25-.045.386s-.083.333-.158.59l.113.024c.394-.728.81-1.24 1.25-1.535.44-.296.994-.444 1.66-.444.077 0 .18.004.308.012s.26.02.398.034l.183.022.204.022.182.023v3.366c-.213-.06-.387-.1-.524-.114-.136-.016-.28-.024-.432-.024zm-3.502-21.284c0-1.212-.568-1.82-1.705-1.82-.622 0-1.096.202-1.42.604-.328.402-.49.99-.49 1.762v5.48h-3.684V.442h3.684v4.002c0 .303-.004.553-.012.75l-.022.557c-.008.176-.023.358-.046.547-.023.19-.05.42-.08.694l.09.046c.532-.59 1.04-1.008 1.525-1.25.485-.243 1.07-.364 1.75-.364.79 0 1.513.167 2.172.5.66.334 1.156.78 1.49 1.342.15.257.26.557.33.898.068.34.102.777.102 1.307v6.798h-3.684v-6.026zm-4.388 41.09c.606.273 1.046.644 1.32 1.114.302.516.454 1.266.454 2.25v7.05h-3.684v-6.298c0-1.168-.485-1.75-1.455-1.75-1.093 0-1.638.628-1.638 1.886v6.162h-3.684v-6.298c0-1.152-.47-1.73-1.41-1.73-.516 0-.925.168-1.228.502-.303.333-.455.788-.455 1.364v6.162h-3.683V51.24h3.638v.615c0 .106-.012.22-.034.34-.023.122-.072.296-.148.524l.09.022c.228-.35.422-.614.58-.796.16-.182.323-.334.49-.455.287-.21.632-.37 1.034-.477.402-.105.815-.16 1.24-.16.484 0 .95.066 1.398.195.447.13.837.314 1.17.557.168.12.312.254.433.398.12.144.258.352.41.625.227-.318.454-.587.682-.807.227-.22.462-.393.704-.522.242-.13.507-.224.795-.285.288-.06.614-.09.978-.09.728 0 1.395.136 2 .41zm-12.04-39.327c-.054-.008-.14-.027-.262-.057.045.758.24 1.304.58 1.637.34.334.875.5 1.603.5.227 0 .42-.015.58-.045.16-.03.307-.087.443-.17.136-.084.262-.202.375-.353.114-.152.24-.34.375-.57h3.843c-.09.835-.4 1.54-.93 2.116-.47.5-1.115.898-1.934 1.194-.818.295-1.705.443-2.66.443-.94 0-1.782-.133-2.524-.398-.743-.265-1.38-.64-1.91-1.125s-.937-1.073-1.217-1.763-.42-1.466-.42-2.33c0-.864.14-1.645.42-2.342.28-.698.678-1.293 1.194-1.785.514-.493 1.136-.872 1.863-1.137.728-.265 1.54-.398 2.434-.398 1.136 0 2.156.22 3.058.66.902.44 1.565 1.038 1.99 1.795.227.425.41.944.545 1.558.137.614.205 1.24.205 1.876v.706h-7.367c-.137 0-.232-.004-.285-.01zm2.92-2.468c.198 0 .342.004.433.012.09.007.22.025.387.056-.122-.637-.322-1.088-.603-1.353-.28-.265-.708-.398-1.283-.398-1.168 0-1.842.583-2.024 1.75.182-.03.314-.048.398-.056.084-.01.232-.013.444-.013h2.25zm-9.48 5.73c-.91.925-2.115 1.388-3.616 1.388-.53 0-1.027-.072-1.49-.216-.462-.146-.845-.346-1.148-.604-.106-.076-.204-.166-.295-.273-.09-.106-.198-.25-.32-.432l-.112.024c.075.197.125.337.147.42.023.084.034.164.034.24v.454H99.2V.396h3.684v4.059c0 .235-.008.455-.023.66l-.045.636c-.015.22-.038.49-.068.81l.068.044c.44-.44.887-.754 1.342-.944.455-.19 1-.284 1.637-.284.773 0 1.486.144 2.138.432.65.288 1.212.686 1.682 1.194.47.508.838 1.11 1.103 1.808.265.697.398 1.463.398 2.296 0 .82-.14 1.59-.42 2.308-.28.72-.67 1.338-1.172 1.854zm-2.866-6.06c-.41-.462-.978-.693-1.705-.693-.713 0-1.277.228-1.694.682-.418.455-.627 1.054-.627 1.797 0 .788.216 1.425.65 1.91.43.485 1.003.727 1.715.727.713 0 1.27-.223 1.672-.67.4-.447.602-1.065.602-1.854 0-.803-.204-1.436-.614-1.898zm-4.262 19.374c.644.312 1.117.74 1.42 1.286.32.576.478 1.26.478 2.047v7.094h-3.683v-5.775c0-1.38-.545-2.07-1.637-2.07-.59 0-1.068.186-1.432.557-.363.37-.545.875-.545 1.512v5.775H93.31V28.502h3.64v.614c0 .12-.012.24-.035.352-.022.114-.072.277-.147.49l.09.045c.243-.35.44-.614.592-.796.15-.182.326-.34.523-.478.288-.198.625-.35 1.012-.456.386-.105.792-.16 1.216-.16.82 0 1.55.157 2.196.467zm-20.273-8.105l3.116-5.867-4.504-8.222v2.537c-.212-.06-.386-.098-.523-.113-.136-.015-.28-.023-.432-.023-1.985 0-2.977 1.016-2.977 3.047v4.434H73.12V5.763h3.523v.66c0 .12-.015.25-.045.386-.03.135-.084.332-.16.59l.114.023c.394-.728.81-1.24 1.25-1.535.44-.296.994-.444 1.66-.444.077 0 .18.004.308.012.13.008.262.02.398.034l.182.023.205.022.18.023v.205h3.867l1.41 3.138c.15.32.276.592.375.82.098.227.19.443.273.647.083.205.163.418.24.637.074.22.173.49.294.807h.09c.107-.317.202-.586.285-.806l.238-.637c.076-.204.163-.42.262-.648.098-.228.223-.5.375-.82l1.41-3.137h3.956l-7.684 14.712h-4.003zm-6.298 14.62c-.363-.09-.67-.17-.92-.238-.25-.068-.467-.136-.65-.204-.18-.07-.336-.14-.465-.216-.13-.076-.254-.174-.375-.296-.303-.257-.53-.586-.682-.988-.152-.402-.213-.838-.182-1.308.06-1.227.535-2.18 1.422-2.853.887-.674 2.058-.973 3.513-.898.622.03 1.21.122 1.763.273.553.152 1.208.395 1.967.728l-1.342 2.41c-.455-.257-.91-.458-1.364-.602-.456-.143-.858-.215-1.207-.215-.65 0-.993.242-1.023.727 0 .243.114.44.34.592.122.076.263.144.422.204.16.06.322.114.49.16l.363.068.386.09.365.092c.47.106.86.238 1.17.397.312.16.566.353.763.58.197.228.337.5.42.82.084.317.126.696.126 1.136 0 .532-.1 1.036-.296 1.513-.197.478-.477.883-.84 1.217-.47.44-.99.746-1.56.92-.567.175-1.314.262-2.24.262-.378 0-.814-.05-1.306-.148-.493-.1-.936-.23-1.33-.398-.213-.075-.418-.166-.614-.273-.198-.105-.47-.265-.82-.477l1.138-2.48c.576.335 1.07.574 1.478.718.41.144.82.23 1.228.26.364.032.667-.022.91-.158.242-.137.363-.31.363-.523 0-.197-.11-.364-.33-.5-.22-.137-.58-.265-1.08-.387zM70.152 31.3c-.053 0-.133-.016-.24-.047.032.106.047.186.047.24V39.006h-3.685v-7.254-.26c0-.054.015-.134.046-.24-.106.03-.185.046-.238.046h-1.285V28.5h1.285c.053 0 .132.015.24.045-.032-.106-.047-.185-.047-.238V25.59h3.684v2.719c0 .052-.016.13-.047.237.106-.03.186-.045.24-.045h1.74V31.3h-1.74zm-.24-16.203c-.545.493-1.2.876-1.966 1.148-.766.273-1.61.41-2.535.41-.894 0-1.72-.14-2.478-.42-.758-.28-1.414-.672-1.967-1.172-.553-.5-.985-1.095-1.296-1.785-.312-.69-.467-1.444-.467-2.263 0-.818.155-1.572.466-2.262.31-.69.742-1.285 1.295-1.785.553-.5 1.217-.89 1.99-1.17.773-.28 1.614-.422 2.524-.422.908 0 1.738.137 2.49.41.75.272 1.397.655 1.943 1.148.546.493.966 1.084 1.262 1.773.296.69.443 1.452.443 2.286 0 .85-.147 1.622-.443 2.32-.296.697-.716 1.292-1.262 1.784zm-2.716-6.094c-.432-.492-1.012-.74-1.74-.74-.713 0-1.296.26-1.75.774-.456.516-.683 1.175-.683 1.978 0 .395.06.76.182 1.092.12.334.284.625.49.875.203.25.45.444.738.58.288.137.606.205.955.205.773 0 1.376-.242 1.808-.728.432-.486.648-1.16.648-2.025 0-.848-.216-1.52-.648-2.012zM57.168 8.56c-.054 0-.133-.015-.24-.046.03.106.046.186.046.24V16.267H53.29V9.014v-.26c0-.054.016-.134.046-.24-.106.03-.186.046-.24.046h-1.283V5.763h1.283c.054 0 .134.015.24.045-.03-.106-.045-.185-.045-.24V2.853h3.684v2.716c0 .055-.015.134-.045.24.105-.03.184-.045.238-.045h1.74V8.56h-1.74zm-8.562-.398c-.454-.144-.856-.216-1.205-.216-.65 0-.992.242-1.022.727 0 .243.114.44.34.592.122.076.263.144.422.204.16.06.322.113.49.158l.362.07.387.09.363.09c.47.107.86.24 1.17.398.31.16.565.353.763.58.196.228.337.5.42.82.083.317.125.696.125 1.136 0 .53-.097 1.034-.294 1.512-.197.478-.478.883-.842 1.217-.47.44-.99.747-1.557.92-.57.176-1.315.263-2.24.263-.38 0-.815-.05-1.307-.148-.493-.1-.937-.23-1.33-.398-.213-.075-.418-.166-.615-.273-.197-.106-.47-.265-.818-.477l1.137-2.48c.576.335 1.068.574 1.478.718.41.144.818.23 1.228.26.363.032.667-.022.91-.158.242-.137.363-.31.363-.523 0-.197-.11-.364-.33-.5-.22-.137-.58-.265-1.08-.387-.364-.09-.67-.17-.92-.24-.25-.067-.467-.135-.65-.203-.18-.07-.336-.14-.465-.216-.13-.076-.254-.174-.375-.296-.304-.258-.53-.587-.682-.99-.15-.4-.212-.837-.18-1.307.06-1.228.533-2.18 1.42-2.853.887-.675 2.058-.974 3.513-.9.622.032 1.21.123 1.762.274.554.152 1.21.395 1.967.728l-1.34 2.41c-.456-.257-.91-.458-1.366-.602zM42.626 31.3h-1.738c-.054 0-.134-.016-.24-.047.03.106.046.186.046.24V39.006H37.01v-7.254-.26c0-.054.015-.134.045-.24-.106.03-.185.046-.238.046h-1.285V28.5h1.285c.053 0 .132.015.238.045-.03-.106-.045-.185-.045-.238V25.59h3.684v2.719c0 .052-.016.13-.046.237.106-.03.186-.045.24-.045h1.738V31.3zM29.2 12.004c-.054-.008-.14-.027-.263-.057.046.758.24 1.304.58 1.637.34.334.876.5 1.603.5.228 0 .42-.015.58-.045.16-.03.307-.087.444-.17.136-.084.26-.202.375-.353.113-.152.238-.34.374-.57h3.843c-.09.835-.402 1.54-.932 2.116-.47.5-1.115.898-1.933 1.194-.82.295-1.706.443-2.66.443-.94 0-1.782-.133-2.525-.398-.743-.265-1.38-.64-1.91-1.125s-.936-1.073-1.216-1.763c-.28-.69-.42-1.466-.42-2.33 0-.864.14-1.645.42-2.342.28-.698.68-1.293 1.195-1.785.515-.493 1.136-.872 1.864-1.137.727-.265 1.538-.398 2.432-.398 1.137 0 2.157.22 3.06.66.9.44 1.564 1.038 1.988 1.795.228.425.41.944.546 1.558.136.614.205 1.24.205 1.876v.706h-7.367c-.136 0-.23-.004-.284-.01zm2.92-2.468c.198 0 .342.004.433.012.09.007.22.025.387.056-.122-.637-.323-1.088-.603-1.353-.28-.265-.71-.398-1.285-.398-1.167 0-1.842.583-2.024 1.75.182-.03.315-.048.398-.056.084-.01.23-.013.444-.013h2.25zm-3.023 18.578c.91 0 1.74.137 2.49.41.75.272 1.398.655 1.944 1.148.547.493.967 1.084 1.263 1.773.296.69.443 1.452.443 2.286 0 .85-.147 1.622-.443 2.32-.296.697-.716 1.292-1.262 1.784-.545.493-1.2.876-1.966 1.148-.766.273-1.61.41-2.535.41-.896 0-1.722-.14-2.48-.42-.758-.28-1.414-.672-1.967-1.172-.553-.5-.985-1.095-1.296-1.785-.31-.69-.466-1.444-.466-2.262 0-.82.156-1.573.467-2.263.31-.69.743-1.285 1.296-1.785s1.217-.89 1.99-1.17c.773-.28 1.614-.422 2.524-.422zm-2.274 6.73c.12.335.284.626.49.876.204.252.45.445.738.58.29.138.607.206.956.206.773 0 1.376-.242 1.808-.728.432-.485.648-1.16.648-2.023 0-.85-.216-1.52-.648-2.013-.432-.492-1.012-.74-1.74-.74-.713 0-1.296.26-1.75.774-.456.516-.683 1.175-.683 1.98 0 .393.06.757.183 1.09zM20 10.243c0-1.212-.567-1.82-1.704-1.82-.622 0-1.096.202-1.42.604-.328.402-.49.99-.49 1.762v5.48h-3.684V.442h3.684v4.002c0 .303-.004.553-.012.75l-.022.557c-.008.176-.023.358-.046.547-.023.19-.05.42-.08.694l.09.046c.532-.59 1.04-1.008 1.525-1.25.486-.243 1.07-.364 1.752-.364.788 0 1.512.167 2.17.5.66.334 1.157.78 1.49 1.342.152.257.262.557.33.898.07.34.103.777.103 1.307v6.798H20v-6.026zM13.27 33.8c0 .85-.124 1.622-.375 2.32-.25.697-.602 1.292-1.057 1.784-.455.493-1.004.876-1.65 1.15-.643.272-1.36.408-2.147.408-.697 0-1.27-.09-1.716-.273-.447-.183-.89-.5-1.33-.956l-.09.046c.03.258.052.477.067.66.016.18.03.36.046.533.015.174.023.36.023.557v3.138H1.354V28.502H4.88v.455c0 .076-.008.155-.023.238-.015.084-.053.194-.114.33l.07.046c.272-.287.525-.522.76-.704.235-.182.478-.33.728-.444.25-.113.52-.193.808-.24.288-.044.622-.067 1-.067.79 0 1.502.133 2.138.398.637.266 1.18.648 1.626 1.148.447.502.792 1.1 1.035 1.798.242.697.364 1.478.364 2.342zm-4.468-1.933c-.417-.485-.974-.727-1.67-.727-.683 0-1.244.25-1.684.75-.44.5-.66 1.145-.66 1.933 0 .773.213 1.395.638 1.864.424.47.977.705 1.66.705.727 0 1.3-.23 1.716-.693.417-.464.626-1.09.626-1.877 0-.82-.21-1.47-.626-1.956zm-.5-27.173c-.053 0-.133-.015-.24-.045.032.105.047.184.047.237v11.38H3.9V5.148v-.26c0-.054.015-.133.046-.24-.107.03-.186.046-.24.046H.54v-3.57h10.89v3.57H8.303zM2.38 52.434c.514-.492 1.136-.87 1.863-1.136.728-.265 1.54-.398 2.433-.398 1.137 0 2.157.22 3.06.66.9.44 1.564 1.038 1.988 1.796.228.424.41.943.546 1.557.137.614.205 1.24.205 1.876v.704H5.107c-.136 0-.23-.003-.284-.01-.053-.01-.14-.028-.26-.058.044.758.237 1.304.578 1.637.343.334.877.5 1.605.5.227 0 .42-.015.58-.045.16-.03.306-.087.443-.17.136-.084.26-.2.375-.353.114-.15.24-.34.375-.57h3.843c-.09.835-.4 1.54-.93 2.116-.47.5-1.115.9-1.934 1.195-.82.296-1.705.443-2.66.443-.94 0-1.782-.133-2.525-.398-.74-.265-1.378-.64-1.91-1.125-.53-.485-.935-1.072-1.215-1.762s-.42-1.467-.42-2.33c0-.865.14-1.646.42-2.343.28-.697.678-1.293 1.194-1.785zm2.67 2.593c.084-.008.23-.01.444-.01h2.25c.198 0 .342.002.433.01.09.008.22.027.387.057-.122-.637-.323-1.088-.603-1.353-.28-.264-.708-.397-1.284-.397-1.167 0-1.842.584-2.023 1.75.18-.03.314-.048.397-.056zm-2.785 20.18c.47-.5 1.023-.886 1.66-1.16.637-.272 1.34-.408 2.115-.408.682 0 1.25.098 1.705.294.455.198.947.56 1.478 1.092l.068-.023c-.06-.136-.097-.246-.112-.33-.016-.083-.023-.162-.023-.238v-.455h3.524v10.505H9.154v-.363c0-.06.007-.126.023-.194.015-.068.053-.162.113-.284l-.067-.045c-.243.256-.474.465-.693.624-.22.16-.452.288-.694.386-.243.1-.504.167-.784.205-.28.038-.603.057-.967.057-.834 0-1.554-.118-2.16-.353-.607-.235-1.145-.595-1.615-1.08-.5-.53-.88-1.15-1.137-1.854-.257-.705-.386-1.48-.386-2.33 0-.82.13-1.573.386-2.263.258-.69.622-1.285 1.092-1.785zm2.956 6.004c.41.44.98.66 1.706.66.713 0 1.277-.234 1.694-.705.417-.47.626-1.106.626-1.91 0-.757-.21-1.368-.626-1.83-.417-.462-.966-.694-1.648-.694-.35 0-.667.066-.955.195-.288.13-.534.31-.74.545-.204.236-.367.516-.488.842-.123.326-.183.678-.183 1.057 0 .787.205 1.4.614 1.84zm13.212-6.616c0 .12-.01.24-.034.352-.023.114-.072.277-.148.49l.09.045c.243-.348.44-.613.592-.795.152-.182.326-.34.523-.478.288-.197.626-.348 1.012-.454.387-.106.792-.16 1.217-.16.818 0 1.55.156 2.194.466.644.31 1.118.74 1.42 1.284.32.577.48 1.26.48 2.047v7.095h-3.685V78.71c0-1.38-.546-2.07-1.637-2.07-.59 0-1.07.186-1.433.557-.364.372-.545.876-.545 1.513v5.775h-3.684V73.98h3.638v.614zm8.96-23.296c.728-.265 1.538-.398 2.433-.398 1.137 0 2.156.22 3.058.66.902.44 1.565 1.038 1.99 1.796.227.424.41.943.546 1.557.135.614.203 1.24.203 1.876v.704h-7.367c-.136 0-.23-.003-.284-.01-.054-.01-.14-.028-.262-.058.046.758.24 1.304.58 1.637.34.334.876.5 1.603.5.228 0 .42-.015.58-.045.16-.03.307-.087.443-.17.137-.084.262-.2.376-.353.113-.15.238-.34.375-.57h3.843c-.09.835-.402 1.54-.933 2.116-.47.5-1.114.9-1.932 1.195-.82.296-1.706.443-2.66.443-.94 0-1.782-.133-2.525-.398-.743-.265-1.38-.64-1.91-1.125s-.936-1.072-1.216-1.762c-.28-.69-.42-1.467-.42-2.33 0-.865.14-1.646.42-2.343.28-.697.678-1.293 1.193-1.785.516-.493 1.137-.872 1.865-1.137zm.807 3.73c.082-.01.23-.012.443-.012h2.25c.198 0 .342.003.433.01.09.01.22.028.386.058-.12-.637-.322-1.088-.602-1.353-.28-.264-.71-.397-1.285-.397-1.168 0-1.842.584-2.024 1.75.183-.03.316-.048.4-.056zm-8.47 6.718h-2.98L11.906 51.24H16l1.136 3.025c.137.38.254.698.353.955.097.258.18.504.25.74.067.234.14.48.215.738.076.258.16.57.25.933h.114c.09-.363.173-.67.25-.92.075-.25.147-.493.215-.728s.15-.48.25-.74c.1-.257.216-.582.353-.977l1.137-3.024h3.956l-4.75 10.506zm-.206-33.12c.44-.295.992-.443 1.66-.443.075 0 .178.004.307.012.13.008.262.02.4.034l.18.022.205.022.182.023v3.366c-.212-.06-.387-.1-.523-.114-.136-.016-.28-.024-.432-.024-1.986 0-2.98 1.016-2.98 3.047v4.434H14.84V28.502h3.524v.66c0 .12-.015.25-.046.386-.03.136-.083.333-.16.59l.115.024c.394-.728.81-1.24 1.25-1.535zm9.21 46.582c.468-.5 1.022-.887 1.66-1.16.635-.273 1.34-.41 2.113-.41.622 0 1.168.092 1.638.274.47.182.924.47 1.364.864l.067-.046c-.03-.303-.053-.56-.068-.773-.016-.212-.028-.413-.035-.602-.008-.19-.012-.398-.012-.626v-4.117h3.684v15.872h-3.524v-.454c0-.075.007-.155.022-.238.015-.083.053-.193.114-.33l-.07-.023c-.545.53-1.072.905-1.58 1.125-.508.22-1.118.33-1.83.33-.743 0-1.42-.137-2.035-.41-.614-.273-1.145-.66-1.592-1.16-.447-.5-.792-1.094-1.034-1.784-.244-.69-.365-1.45-.365-2.285 0-.818.128-1.572.386-2.262.26-.69.623-1.285 1.093-1.785zm2.932 5.98c.394.455.932.682 1.615.682.728 0 1.315-.234 1.763-.705.447-.47.67-1.098.67-1.887 0-.773-.204-1.387-.613-1.842-.41-.455-.955-.682-1.638-.682-.697 0-1.27.243-1.716.728-.448.485-.67 1.114-.67 1.887 0 .757.196 1.363.59 1.818zM37.1 61.746V51.24h3.64v.615c0 .12-.012.24-.034.352-.023.114-.073.277-.148.49l.09.045c.243-.35.44-.614.592-.796.15-.182.326-.34.523-.478.288-.197.625-.348 1.012-.455.386-.105.792-.16 1.216-.16.82 0 1.55.157 2.196.467.644.31 1.117.74 1.42 1.285.32.576.478 1.26.478 2.047v7.094H44.4V55.97c0-1.38-.545-2.07-1.637-2.07-.59 0-1.068.187-1.432.558-.363.372-.545.876-.545 1.513v5.776H37.1zm9.37-22.705c-.743-.264-1.38-.64-1.91-1.124-.53-.485-.937-1.073-1.217-1.763s-.42-1.466-.42-2.33c0-.864.14-1.645.42-2.342.28-.696.678-1.292 1.194-1.784.515-.493 1.137-.872 1.864-1.137.73-.266 1.54-.4 2.434-.4 1.137 0 2.157.22 3.06.66.9.44 1.564 1.04 1.988 1.797.228.424.41.943.546 1.557.137.614.205 1.24.205 1.876v.705h-7.368c-.136 0-.23-.004-.284-.01-.052-.01-.14-.028-.26-.058.045.758.238 1.304.58 1.637.34.334.875.5 1.603.5.227 0 .42-.015.58-.045.16-.03.306-.088.443-.172.136-.083.26-.2.375-.352.115-.152.24-.34.376-.57h3.843c-.092.835-.403 1.54-.933 2.116-.47.5-1.114.898-1.933 1.194-.82.295-1.705.443-2.66.443-.94 0-1.782-.134-2.525-.4zm.738-6.752c.084-.008.23-.012.444-.012h2.25c.198 0 .342.004.433.012.09.008.22.026.387.057-.122-.637-.323-1.088-.603-1.353-.282-.265-.71-.398-1.286-.398-1.167 0-1.842.584-2.023 1.75.182-.03.315-.048.398-.056zm6.606 29.458H50.13V51.24h3.684v10.506zM50.517 46.76c.394-.393.872-.59 1.433-.59.576 0 1.06.197 1.455.59.394.396.59.873.59 1.434 0 .576-.196 1.06-.59 1.455-.394.393-.88.59-1.455.59-.56 0-1.04-.197-1.433-.59-.394-.395-.59-.88-.59-1.456 0-.56.196-1.038.59-1.433zm-.82 30.244c.137.38.254.698.353.955.098.257.182.503.25.738l.216.74c.076.257.16.568.25.932h.114c.09-.364.174-.67.25-.92.076-.25.148-.494.216-.73.068-.234.15-.48.25-.738s.216-.583.353-.978l1.136-3.024h3.956L52.29 84.485h-2.98L44.468 73.98h4.094l1.137 3.024zm9.642-8.095c.575 0 1.06.196 1.454.59.394.395.59.872.59 1.433 0 .576-.196 1.06-.59 1.455-.394.395-.88.59-1.455.59-.562 0-1.04-.195-1.434-.59-.394-.394-.59-.88-.59-1.455 0-.56.196-1.038.59-1.433.394-.394.872-.59 1.433-.59zm1.863 15.575H57.52V73.98h3.683v10.505zm-2.295-49.39c-.364-.09-.67-.17-.92-.238-.25-.068-.467-.136-.65-.204-.18-.07-.337-.14-.465-.216-.13-.076-.255-.174-.376-.296-.303-.257-.53-.586-.682-.988-.152-.402-.212-.838-.182-1.308.06-1.227.535-2.18 1.42-2.853.888-.674 2.06-.973 3.515-.898.62.03 1.208.122 1.762.273.553.152 1.21.395 1.967.728l-1.342 2.41c-.455-.257-.91-.458-1.364-.602-.454-.143-.856-.215-1.204-.215-.652 0-.993.242-1.024.727 0 .243.114.44.342.592.12.076.26.144.42.204.16.06.322.114.49.16l.363.068.386.09.364.092c.47.106.86.238 1.17.397.312.16.566.353.763.58.197.228.337.5.42.82.084.317.126.696.126 1.136 0 .532-.1 1.036-.296 1.513-.197.478-.477.883-.84 1.217-.47.44-.99.746-1.56.92-.567.175-1.314.262-2.238.262-.38 0-.816-.05-1.308-.148-.493-.1-.936-.23-1.33-.398-.213-.075-.417-.166-.614-.273-.197-.105-.47-.265-.82-.477l1.138-2.48c.576.335 1.07.574 1.478.718.41.144.82.23 1.228.26.364.032.667-.022.91-.158.242-.137.363-.31.363-.523 0-.197-.11-.364-.33-.5-.22-.137-.58-.265-1.08-.387zM60.18 54.46c-.363.372-.544.876-.544 1.513v5.776h-3.684V51.24h3.638v.615c0 .12-.01.24-.034.352-.023.114-.072.277-.148.49l.09.045c.243-.35.44-.614.592-.796.152-.182.326-.34.523-.478.288-.197.626-.348 1.012-.455.387-.105.792-.16 1.217-.16.818 0 1.55.157 2.194.467.644.31 1.118.74 1.42 1.285.32.576.48 1.26.48 2.047v7.094H63.25V55.97c0-1.38-.545-2.07-1.636-2.07-.59 0-1.07.187-1.433.558zm4.866 27.424c.41.144.82.23 1.228.26.364.032.667-.022.91-.158.242-.136.363-.31.363-.523 0-.196-.11-.363-.33-.5-.22-.136-.58-.264-1.08-.386-.363-.09-.67-.17-.92-.24-.25-.067-.467-.135-.648-.203-.183-.067-.34-.14-.468-.215-.13-.076-.254-.174-.375-.296-.303-.258-.53-.588-.682-.99-.152-.4-.212-.837-.182-1.307.06-1.228.534-2.18 1.42-2.854.888-.676 2.06-.975 3.514-.9.622.03 1.21.122 1.763.273.553.152 1.208.395 1.967.728l-1.342 2.41c-.455-.256-.91-.457-1.364-.6-.454-.145-.856-.217-1.204-.217-.652 0-.993.243-1.024.728 0 .243.114.44.34.592.123.076.263.144.422.204.16.06.322.114.49.16l.363.068.386.09.364.092c.47.106.86.238 1.17.398.312.16.566.352.763.58.197.227.337.5.42.818.084.318.126.698.126 1.137 0 .53-.1 1.034-.296 1.51-.197.48-.477.884-.84 1.218-.47.44-.99.746-1.56.92-.567.175-1.314.262-2.24.262-.378 0-.814-.05-1.306-.148-.493-.098-.936-.23-1.33-.398-.213-.075-.417-.166-.614-.272-.198-.106-.47-.266-.82-.478l1.138-2.48c.576.335 1.07.574 1.478.718zm11.69-30.118v-.523h3.524V61.43c0 .788-.076 1.444-.228 1.967-.15.523-.4.958-.75 1.307-.485.516-1.168.91-2.047 1.183-.88.273-1.902.41-3.07.41-1.015 0-1.913-.15-2.694-.444-.78-.295-1.397-.73-1.852-1.307-.213-.273-.36-.546-.444-.818-.083-.273-.14-.645-.17-1.115h3.843c.075.41.235.697.477.864.243.167.63.25 1.16.25.803 0 1.372-.2 1.705-.602.333-.402.5-1.095.5-2.08v-.25c0-.03.003-.065.01-.103.01-.04.05-.126.126-.263l-.09-.045c-.486.515-.96.875-1.422 1.08-.463.205-1.027.307-1.694.307-.758 0-1.46-.137-2.103-.41-.645-.273-1.198-.648-1.66-1.126-.463-.477-.823-1.05-1.08-1.717-.258-.667-.387-1.402-.387-2.205 0-.804.12-1.54.364-2.206.242-.667.587-1.24 1.034-1.717.447-.478.986-.846 1.615-1.104.63-.257 1.322-.386 2.08-.386.334 0 .64.026.92.08.282.053.55.136.81.25.256.113.51.272.76.477.25.205.52.45.808.74l.092-.024c-.06-.15-.1-.27-.114-.352-.015-.082-.023-.185-.023-.306zm-.524 2.774c-.44-.47-1.008-.705-1.705-.705-.682 0-1.24.23-1.672.694-.432.462-.648 1.057-.648 1.785 0 .788.21 1.406.626 1.853.416.447.99.67 1.716.67.727 0 1.3-.22 1.716-.66.417-.438.626-1.045.626-1.818 0-.742-.22-1.35-.66-1.82zm.385 24.793c0 .5.03.89.09 1.17.062.28.16.524.297.736.333.468.81.703 1.433.703.348 0 .663-.08.943-.24.28-.158.48-.374.603-.646.076-.166.136-.404.182-.714.045-.31.068-.646.068-1.01v-5.35h3.684v5.662c0 .773-.07 1.42-.205 1.944-.136.523-.356.982-.66 1.376-.47.59-1.117 1.05-1.944 1.376-.826.325-1.77.488-2.83.488-1.138 0-2.127-.197-2.968-.59-.84-.395-1.46-.956-1.853-1.683-.35-.652-.523-1.584-.523-2.797V73.98h3.683v5.35zm10.21-4.122c.47-.5 1.023-.887 1.66-1.16.637-.273 1.342-.41 2.115-.41.682 0 1.25.1 1.705.296.455.198.947.56 1.478 1.092l.068-.023c-.06-.136-.098-.246-.113-.33-.016-.083-.023-.162-.023-.238v-.455h3.525v10.505h-3.525v-.363c0-.06.007-.126.023-.194.015-.068.053-.162.113-.284l-.068-.045c-.242.256-.474.465-.693.624-.22.16-.452.288-.694.386-.243.1-.504.167-.784.205-.28.038-.603.057-.967.057-.834 0-1.554-.118-2.16-.353-.606-.235-1.145-.595-1.614-1.08-.5-.53-.88-1.15-1.137-1.854-.258-.705-.387-1.48-.387-2.33 0-.82.128-1.573.386-2.263.257-.69.62-1.285 1.09-1.785zm2.956 6.003c.41.44.978.66 1.706.66.71 0 1.276-.234 1.693-.705.416-.47.625-1.106.625-1.91 0-.757-.21-1.368-.625-1.83-.417-.462-.967-.694-1.65-.694-.348 0-.666.066-.954.195-.29.13-.535.31-.74.545-.205.236-.368.516-.49.842-.12.326-.18.678-.18 1.057 0 .787.204 1.4.613 1.84zm1.41-42.203H87.49V28.502h3.684v10.505zm-3.296-14.985c.394-.394.87-.59 1.432-.59.575 0 1.06.196 1.455.59.394.395.59.872.59 1.433 0 .576-.196 1.06-.59 1.455-.395.394-.88.59-1.456.59-.562 0-1.04-.196-1.433-.59-.395-.394-.59-.88-.59-1.455 0-.56.195-1.038.59-1.433zm4.89 38.11c-.896 0-1.722-.14-2.48-.42-.758-.28-1.414-.67-1.967-1.17-.553-.5-.985-1.096-1.296-1.786-.31-.69-.466-1.444-.466-2.262 0-.82.155-1.573.466-2.263.31-.69.743-1.284 1.296-1.784s1.217-.89 1.99-1.17c.773-.28 1.614-.422 2.524-.422.91 0 1.74.137 2.49.41.75.272 1.398.655 1.944 1.148.546.493.966 1.084 1.262 1.774.296.69.443 1.45.443 2.285 0 .85-.147 1.623-.443 2.32-.296.698-.716 1.293-1.262 1.785-.546.493-1.202.876-1.967 1.15-.765.27-1.61.408-2.534.408zm1.784-7.65c-.43-.493-1.01-.74-1.74-.74-.712 0-1.295.258-1.75.773-.455.516-.682 1.175-.682 1.98 0 .393.06.757.182 1.09.12.334.284.625.49.875.203.25.45.444.738.58.288.137.606.205.955.205.773 0 1.376-.242 1.808-.728.433-.485.65-1.16.65-2.023 0-.85-.217-1.52-.65-2.013zm8.47 30.003h-3.684V68.66h3.684v15.825zm-2.182-33.7V49.49c0-1.334.33-2.3.99-2.9.658-.598 1.738-.897 3.24-.897.318 0 .602.01.852.034.25.022.557.072.92.147v2.797c-.242-.06-.435-.1-.58-.124-.143-.022-.29-.034-.442-.034-.44 0-.76.122-.955.364-.198.243-.296.644-.296 1.205v.968c0 .053-.015.132-.045.238.105-.03.185-.045.238-.045h1.922v2.798h-1.966c-.054 0-.134-.015-.24-.046.03.107.046.186.046.24V61.745h-3.684v-7.253-.262c0-.052.015-.13.045-.238-.106.03-.186.046-.238.046H99.36V51.24h1.285c.052 0 .132.016.238.046-.03-.106-.045-.185-.045-.238v-.262zm17.474-12.04c-.22.16-.45.29-.693.387-.244.1-.505.167-.786.205-.28.038-.602.057-.966.057-.834 0-1.554-.118-2.16-.353-.607-.234-1.145-.593-1.615-1.08-.5-.53-.88-1.147-1.137-1.852-.258-.705-.386-1.482-.386-2.33 0-.82.128-1.573.386-2.263s.622-1.285 1.092-1.785c.47-.5 1.023-.887 1.66-1.16.636-.273 1.34-.41 2.115-.41.682 0 1.25.1 1.705.296.455.198.947.56 1.478 1.092l.068-.023c-.06-.136-.1-.246-.113-.33-.015-.083-.022-.162-.022-.238v-.455h3.524v10.505h-3.524v-.364c0-.06.007-.125.023-.193.015-.068.053-.163.114-.284l-.068-.046c-.243.258-.474.467-.694.626zm.09-6.798c-.416-.462-.965-.694-1.647-.694-.35 0-.667.065-.955.193-.288.13-.535.31-.74.546-.204.235-.367.516-.488.842-.122.326-.182.678-.182 1.057 0 .79.205 1.403.614 1.843.41.44.978.66 1.705.66.712 0 1.276-.236 1.693-.706.417-.47.626-1.106.626-1.91 0-.758-.21-1.368-.627-1.83zm-11.517 49.935c.41.144.82.23 1.228.26.364.032.667-.022.91-.158.242-.136.363-.31.363-.523 0-.196-.11-.363-.33-.5-.22-.136-.58-.264-1.08-.386-.363-.09-.67-.17-.92-.24-.25-.067-.466-.135-.648-.203-.182-.067-.338-.14-.467-.215-.127-.076-.253-.174-.374-.296-.303-.258-.53-.588-.682-.99-.152-.4-.212-.837-.182-1.307.06-1.228.535-2.18 1.42-2.854.888-.676 2.06-.975 3.515-.9.62.03 1.208.122 1.762.273.552.152 1.208.395 1.966.728l-1.342 2.41c-.455-.256-.91-.457-1.364-.6-.455-.145-.857-.217-1.205-.217-.652 0-.993.243-1.024.728 0 .243.115.44.343.592.12.076.26.144.42.204.16.06.322.114.49.16l.363.068.386.09.364.092c.47.106.86.238 1.17.398.312.16.566.352.763.58.196.227.336.5.42.818.083.318.125.698.125 1.137 0 .53-.1 1.034-.296 1.51-.198.48-.478.884-.842 1.218-.47.44-.99.746-1.558.92-.568.175-1.315.262-2.24.262-.38 0-.815-.05-1.307-.148-.493-.098-.936-.23-1.33-.398-.213-.075-.417-.166-.614-.272-.198-.106-.47-.266-.82-.478l1.137-2.48c.576.335 1.07.574 1.478.718zm39.68-22.74c.41.145.82.232 1.228.262.364.03.667-.023.91-.16.242-.135.363-.31.363-.522 0-.197-.11-.364-.33-.5-.22-.137-.58-.265-1.08-.387-.363-.09-.67-.17-.92-.24-.25-.067-.467-.135-.65-.203-.18-.068-.336-.14-.465-.216-.128-.076-.253-.174-.374-.296-.303-.257-.53-.587-.682-.99-.152-.4-.213-.836-.182-1.307.06-1.227.534-2.18 1.42-2.853.888-.675 2.06-.974 3.514-.898.622.03 1.21.12 1.763.272.552.152 1.207.395 1.966.728l-1.342 2.41c-.455-.257-.91-.458-1.364-.602-.455-.144-.857-.216-1.205-.216-.652 0-.994.242-1.024.727 0 .244.115.44.342.593.12.076.262.144.42.204.16.06.323.114.49.16l.364.068.386.09.364.092c.47.106.86.238 1.17.398.312.16.566.352.763.58.196.227.336.5.42.818.083.318.125.697.125 1.137 0 .53-.1 1.035-.296 1.512-.198.478-.478.883-.842 1.217-.47.438-.99.745-1.558.92-.568.174-1.315.26-2.24.26-.38 0-.815-.048-1.307-.147-.493-.1-.936-.23-1.33-.398-.213-.075-.418-.166-.614-.273-.2-.105-.47-.265-.82-.477l1.137-2.48c.576.335 1.07.574 1.478.718zm9.778-12.972c.576 0 1.06.197 1.455.59.394.396.59.873.59 1.434 0 .576-.196 1.06-.59 1.455-.394.393-.88.59-1.455.59-.56 0-1.04-.197-1.433-.59-.394-.395-.59-.88-.59-1.456 0-.56.196-1.038.59-1.433.394-.393.872-.59 1.433-.59zm1.864 15.576h-3.683V51.24h3.683v10.506zm3.047-9.3c.47-.515 1.03-.913 1.683-1.194.652-.28 1.38-.42 2.183-.42.62 0 1.178.072 1.67.216.494.144 1.06.39 1.695.74v3.682c-.227-.257-.443-.473-.648-.648-.204-.174-.402-.31-.59-.41-.19-.097-.388-.17-.592-.215-.205-.046-.43-.068-.67-.068-.714 0-1.274.21-1.684.635-.408.425-.613 1.01-.613 1.75 0 .73.205 1.305.614 1.73.41.424.964.636 1.66.636.47 0 .892-.086 1.263-.26.372-.174.792-.48 1.262-.92v3.592c-.41.18-.758.333-1.046.454-.29.12-.566.212-.83.273-.266.06-.528.1-.785.124-.258.023-.554.034-.887.034-1.516 0-2.676-.394-3.48-1.182-.53-.5-.943-1.126-1.238-1.876-.296-.75-.444-1.573-.444-2.467 0-.864.13-1.652.387-2.365.257-.712.62-1.326 1.09-1.842z"/></svg>