<svg xmlns="http://www.w3.org/2000/svg" width="217" height="101"><path fill-rule="evenodd" fill="#FC0" d="M187.423 75.627c-1.906-1.05-3.907-1.716-5.384-1.716-1.335 0-2.097.573-2.145 1.526 0 .476.24.905.715 1.24.524.332 1.19.57 1.906.76l.762.144.81.19.762.19c3.906.906 5.193 2.478 5.193 6.147 0 2.24-.858 4.335-2.382 5.716-1.953 1.81-4.096 2.478-7.955 2.478-1.572 0-3.86-.476-5.527-1.143-.857-.333-1.572-.714-3-1.572l2.38-5.193c2.383 1.382 3.955 1.954 5.67 2.05 1.525.094 2.668-.525 2.668-1.43 0-.81-.857-1.382-2.953-1.858-3.097-.715-4.002-1.048-5.05-2-1.24-1.097-1.906-2.86-1.81-4.813.238-5.096 4.287-8.193 10.337-7.86 2.573.143 4.67.715 7.813 2.097l-2.81 5.05zm-39.45 24.534l6.528-12.29-10.146-18.532h8.813l5.527 12.244 5.478-12.244h8.29L156.36 100.16h-8.386zm-11.91-10.337c-2 1.81-3.383 2.335-6.432 2.335-3.477 0-5.954-.953-7.907-3.002-2.096-2.19-3.192-5.24-3.192-8.765 0-6.907 4.574-11.767 11.006-11.767 2.81 0 4.383.62 6.527 2.62V69.34h7.384v22.01h-7.384v-1.525zm-4.574-14.72c-2.86 0-4.955 2.334-4.955 5.526 0 3.286 1.81 5.24 4.86 5.24 2.953 0 4.858-2.145 4.858-5.48 0-3.144-1.905-5.288-4.764-5.288zm-29.873 16.245H88.85v-31.73h13.005c9.194 0 15.388 6.29 15.388 15.675 0 9.862-6.003 16.055-15.626 16.055zm4.144-22.725c-1.237-1.143-2.81-1.715-4.763-1.715h-3.24v17.294h3.24c4.574 0 7.146-3.05 7.146-8.385 0-3.573-.667-5.62-2.382-7.194zM76.27 91.348h-7.716v-16.15h-3.097v-5.86h3.097V63.24h7.717v6.098h4.05v5.86h-4.05v16.15zm-24.678.81c-7.528 0-13.006-5.002-13.006-11.815 0-6.86 5.478-11.815 13.148-11.815 7.623 0 12.863 4.812 12.863 11.767 0 7.1-5.192 11.863-13.005 11.863zm.095-17.58c-2.954 0-5.098 2.43-5.098 5.765 0 3.287 2.095 5.764 4.954 5.764 3.24 0 5.145-2.143 5.145-5.764 0-3.525-1.954-5.765-5.003-5.765zm-18.914-7.336c-2.334 0-4.24-1.906-4.24-4.288 0-2.334 1.906-4.24 4.24-4.24 2.382 0 4.288 1.906 4.288 4.24 0 2.382-1.905 4.288-4.287 4.288zM16.86 91.348l-7.146-10.91v10.91h-8.48v-31.73h13.1c2.812 0 5.384.716 7.004 2.002 2.382 1.81 3.716 4.812 3.716 8.194 0 4.574-2.763 8.242-6.765 8.862l9.24 12.672H16.86zm-4.383-24.583H9.81v7.29h2.667c2.19 0 3.668-1.477 3.668-3.62 0-2.288-1.38-3.67-3.668-3.67zM36.68 91.348h-7.718v-22.01h7.718v22.01zM214.154 39.912c-1.408 0-2.572-1.22-2.572-2.653 0-1.382 1.19-2.546 2.626-2.546 1.38 0 2.572 1.164 2.572 2.545 0 1.433-1.19 2.652-2.626 2.652zm-.027 2.193c1.434 0 2.6 1.164 2.6 2.598 0 1.435-1.166 2.572-2.627 2.572-1.408 0-2.545-1.164-2.545-2.6 0-1.38 1.19-2.57 2.572-2.57zm-10.693 2.138c1.083 0 1.435-.243 2.112-1.353h4.575c-.324 2.734-2.87 4.467-6.605 4.467-4.223 0-6.93-2.626-6.93-6.687 0-4.06 2.68-6.74 6.768-6.74 2.68 0 4.954 1.136 5.93 2.922.54 1.002.892 2.572.892 4.088v.84h-9.07c.11 1.65.867 2.463 2.33 2.463zm2.247-5.414c-.242-1.41-.92-2.005-2.22-2.005-1.217 0-2.03.704-2.246 2.004h4.467zm-10.123-.895c-2.328 0-3.547 1.246-3.547 3.628v5.28h-4.385V34.334h4.196v1.57c.92-1.435 1.842-1.95 3.358-1.95.298 0 .487.028 1.516.136V38.1c-.515-.136-.785-.163-1.137-.163zm-11.18 8.907h-4.386v-9.177h-1.76v-3.33h1.76V30.87h4.387v3.465h2.3v3.33h-2.3v9.177zm-11.26-.866c-1.138 1.03-1.923 1.326-3.656 1.326-1.975 0-3.383-.54-4.493-1.705-1.19-1.245-1.814-2.978-1.814-4.98 0-3.927 2.6-6.688 6.254-6.688 1.597 0 2.49.35 3.71 1.488v-1.083h4.195v12.507h-4.196v-.866zm-2.6-8.366c-1.624 0-2.815 1.327-2.815 3.14 0 1.87 1.028 2.98 2.76 2.98 1.68 0 2.762-1.22 2.762-3.114 0-1.787-1.082-3.006-2.707-3.006zm-14.86 6.633c1.082 0 1.434-.243 2.11-1.353h4.576c-.325 2.734-2.87 4.467-6.606 4.467-4.223 0-6.93-2.626-6.93-6.687 0-4.06 2.68-6.74 6.767-6.74 2.68 0 4.955 1.136 5.93 2.922.54 1.002.893 2.572.893 4.088v.84h-9.07c.11 1.65.867 2.463 2.33 2.463zm2.246-5.414c-.244-1.41-.92-2.005-2.22-2.005-1.218 0-2.03.704-2.247 2.004h4.467zm-14.51.838c0-1.408-.704-2.166-2.03-2.166-1.462 0-2.274 1.002-2.274 2.816v6.524h-4.387V28h4.386v7.607c1.217-1.245 2.22-1.678 3.816-1.678 1.868 0 3.573.865 4.36 2.192.35.595.513 1.38.513 2.626v8.094h-4.387v-7.174zm-13.562 7.174h-5.007v-13.78h-4.007v-4.25h12.968v4.25h-3.953v13.78zm-15.185 0h-4.386v-9.177h-1.76v-3.33h1.76V30.87h4.385v3.465h2.3v3.33h-2.3v9.177zm-14.023.46c-4.277 0-7.39-2.842-7.39-6.714 0-3.898 3.113-6.713 7.472-6.713 4.33 0 7.31 2.734 7.31 6.686 0 4.035-2.952 6.742-7.392 6.742zm.055-9.99c-1.68 0-2.897 1.38-2.897 3.276 0 1.868 1.19 3.276 2.815 3.276 1.84 0 2.924-1.218 2.924-3.276 0-2.003-1.11-3.275-2.843-3.275zM89.93 33.145c-1.327 0-2.41-1.083-2.41-2.437 0-1.327 1.083-2.41 2.41-2.41 1.353 0 2.436 1.083 2.436 2.41 0 1.354-1.083 2.437-2.437 2.437zm-9.04 13.698l-4.062-6.2v6.2h-4.82v-18.03h7.446c1.597 0 3.06.406 3.98 1.137 1.353 1.028 2.11 2.733 2.11 4.655 0 2.6-1.57 4.684-3.843 5.036l5.253 7.202H80.89zm-2.492-13.97h-1.516v4.143h1.516c1.246 0 2.085-.84 2.085-2.058 0-1.3-.785-2.084-2.085-2.084zm-25.013 18.98l3.71-6.986-5.767-10.53h5.008l3.14 6.956 3.114-6.957h4.71L58.15 51.85h-4.765zm-3.6-13.944c-1.083-.595-2.22-.974-3.06-.974-.757 0-1.19.325-1.217.866 0 .27.135.514.406.704.298.19.677.325 1.083.433l.433.08.46.11.433.108c2.22.514 2.95 1.408 2.95 3.492 0 1.273-.486 2.464-1.352 3.25-1.11 1.028-2.328 1.407-4.52 1.407-.894 0-2.193-.27-3.14-.65-.488-.19-.894-.406-1.706-.894l1.353-2.95c1.354.785 2.247 1.11 3.222 1.164.865.054 1.515-.298 1.515-.812 0-.46-.487-.786-1.68-1.056-1.758-.406-2.273-.596-2.868-1.137-.704-.624-1.083-1.626-1.03-2.736.136-2.896 2.437-4.656 5.876-4.467 1.462.082 2.653.407 4.44 1.192l-1.598 2.868zm-14.212-.974c-.758 0-1.19.325-1.218.866 0 .27.135.514.406.704.3.19.678.325 1.084.433l.433.08.46.11.433.108c2.22.514 2.95 1.408 2.95 3.492 0 1.273-.486 2.464-1.352 3.25-1.11 1.028-2.33 1.407-4.52 1.407-.895 0-2.194-.27-3.142-.65-.487-.19-.893-.406-1.705-.894l1.354-2.95c1.354.785 2.247 1.11 3.222 1.164.866.054 1.516-.298 1.516-.812 0-.46-.487-.786-1.68-1.056-1.758-.406-2.273-.596-2.868-1.137-.704-.624-1.083-1.626-1.03-2.736.136-2.896 2.438-4.656 5.876-4.467 1.462.082 2.653.407 4.44 1.192l-1.598 2.868c-1.083-.595-2.22-.974-3.06-.974zm-13.59 10.314c-2.706 0-4.818-1-5.738-2.707-.406-.757-.623-1.92-.623-3.33v-6.875h4.386v6.39c0 1.19.135 1.786.46 2.273.38.54.975.84 1.706.84.84 0 1.543-.407 1.84-1.057.19-.378.298-1.19.298-2.056v-6.39h4.386v6.742c0 1.814-.325 3.032-1.03 3.952-1.11 1.408-3.166 2.22-5.684 2.22zm-15.13-6.28l-1.084-.028v5.902H.76v-18.03h7.554c1.976 0 3.52.487 4.52 1.408 1.165 1.056 1.842 2.87 1.842 4.792 0 2.165-.92 4.06-2.437 5.035-1.03.677-2.518.92-5.388.92zm.568-8.15H5.824v4.062h1.652c1.353 0 2.03-.704 2.03-2.085 0-1.38-.623-1.976-2.084-1.976zm84.73 14.024h-4.386V34.335h4.385v12.507zM81.12 16.7L76.437 6.565h1.954l1.554 3.597c.193.468.385.955.578 1.462l.6 1.582h.088c.244-.785.633-1.806 1.166-3.065l1.477-3.576h1.798L81.12 16.7zm-7.682-.81c-.822.304-1.61.456-2.365.456-.578 0-1.18-.104-1.81-.31-.63-.208-1.148-.478-1.555-.812-.547-.436-.977-1.002-1.288-1.698-.31-.696-.466-1.455-.466-2.276 0-.726.13-1.396.39-2.01.258-.614.617-1.145 1.076-1.593.46-.448 1.003-.802 1.632-1.06.63-.26 1.317-.39 2.065-.39 1.103 0 2.08.29 2.93.867.423.274.778.58 1.067.92.29.342.516.693.683 1.056.167.363.29.735.366 1.116.078.38.117.753.117 1.116 0 1.088-.274 2.05-.822 2.887-.518.835-1.19 1.412-2.02 1.73zm.738-6.167c-.218-.426-.49-.787-.816-1.083-.326-.296-.687-.523-1.083-.683-.396-.16-.77-.238-1.127-.238-.718 0-1.365.214-1.943.643-.592.422-.986.9-1.182 1.432-.196.533-.294 1.048-.294 1.543 0 .578.106 1.083.317 1.516.21.433.476.798.794 1.094.32.296.663.52 1.034.67.37.153.777.23 1.22.23.578 0 1.07-.108 1.478-.323.407-.215.755-.49 1.043-.822.29-.333.51-.695.66-1.088.153-.392.23-.825.23-1.3 0-.635-.11-1.166-.33-1.592zM53.713 5.98c-.39-.447-.78-.926-1.172-1.437l-.065.023c.03.48.055 1.014.077 1.598.023.585.034 1.233.034 1.943v7.917h-1.888V-.01l8.805 9.672.7.794c.184.21.353.41.505.6.15.188.31.38.477.577.166.196.368.438.605.727l.078-.022c-.037-.467-.067-.992-.09-1.577-.02-.584-.032-1.24-.032-1.964V.88h1.887v15.988l-8.77-9.65c-.38-.376-.762-.79-1.15-1.237zM34.398 15.87L40.305 4.31c.126-.26.272-.544.438-.855.167-.31.346-.64.54-.988-.238.015-.527.026-.867.033-.34.008-.74.01-1.2.01h-5.14V.88h9.67l-7.87 15.666-1.478-.678zm-4.32-12.9c0-.12.004-.216.01-.29.01-.074.02-.144.035-.21-.148.03-.315.043-.5.043h-2.698L27.88.88h3.908v15.144h-1.71V2.967zm-12.203 1.32c-.303 0-.568-.113-.794-.34-.225-.224-.337-.496-.337-.815 0-.303.112-.57.338-.8.227-.23.492-.343.795-.343.318 0 .592.114.822.344.23.23.344.496.344.8 0 .318-.114.59-.343.815-.23.225-.504.338-.822.338zm-4.253 3.597c-.466 0-.88.197-1.243.59-.364.376-.606.808-.728 1.292-.123.485-.184.972-.184 1.46v4.797H9.78v-9.46h1.688v.677c0 .23-.052.55-.155.956l.09.034c.317-.637.687-1.103 1.11-1.4.42-.295.928-.444 1.52-.444.348 0 .655.045.922.134.266.088.55.255.855.5l-.933 1.298c-.437-.288-.855-.433-1.255-.433zM2.03 8.53c-.074-.008-.14-.02-.2-.034.015.06.026.128.034.205.007.08.01.177.01.296v7.028H-.012V.88H8.08v1.565H2.33c-.126 0-.226-.004-.3-.01-.074-.01-.14-.02-.2-.035.015.06.026.128.034.206.007.078.01.176.01.294v3.62c0 .118-.003.216-.01.294-.008.078-.02.146-.034.205.06-.015.126-.027.2-.034.074-.007.174-.01.3-.01h5.75V8.54H2.33c-.126 0-.226-.003-.3-.01zm16.71 7.494h-1.686v-9.46h1.687v9.46z"/></svg>