<svg xmlns="http://www.w3.org/2000/svg" width="59" height="295"><path fill-rule="evenodd" fill="#F6F6F6" d="M38.33 281.974c5.67 0 9.53-3.366 9.53-8.335 0-4.97-3.45-8.014-9.12-8.014-5.748 0-9.364 3.125-9.364 8.174 0 4.968 3.616 8.174 8.955 8.174m-38.28 12.1v-12.98H21.9c-2.792-3.047-3.86-5.932-3.86-10.26 0-10.898 8.707-18.75 20.7-18.75 5.835 0 11.34 2.082 15.036 5.608 3.368 3.206 5.01 7.453 5.01 12.742 0 5.29-1.314 8.414-4.6 11.22h3.204v12.42H.05zm38.856-57.217c5.67 0 9.037-3.045 9.037-8.173 0-4.97-3.697-8.175-9.448-8.175-5.42 0-9.118 3.205-9.118 8.013s4.025 8.334 9.53 8.334M54.76 220.83c3.124 3.365 4.027 5.69 4.027 10.818 0 5.85-1.643 10.017-5.176 13.303-3.778 3.527-9.035 5.37-15.115 5.37-11.91 0-20.29-7.693-20.29-18.512 0-4.728 1.067-7.373 4.518-10.978h-3.286v-12.422H57.39v12.422h-2.63zm-35.324-15.386v-12.422H24.2c-4.352-2.724-5.913-5.45-5.913-9.937 0-.88.08-1.442.41-4.488h12.16c-.413 1.523-.494 2.325-.494 3.367 0 6.892 3.78 10.498 11.007 10.498h16.02v12.982H19.436zm18.895-41.362c5.67 0 9.53-3.366 9.53-8.335 0-4.968-3.45-8.012-9.12-8.012-5.748 0-9.364 3.124-9.364 8.173 0 4.97 3.616 8.174 8.955 8.174m-38.28 12.1v-12.98H21.9c-2.792-3.047-3.86-5.932-3.86-10.26 0-10.898 8.707-18.75 20.7-18.75 5.835 0 11.34 2.083 15.036 5.61 3.368 3.204 5.01 7.452 5.01 12.74 0 5.29-1.314 8.415-4.6 11.22h3.204v12.42H.05zm19.386-44.62V118.58H57.39v12.983H19.436zM8.428 117.94c4.108 0 7.394 3.205 7.394 7.212 0 3.927-3.286 7.132-7.394 7.132-4.026 0-7.312-3.205-7.312-7.132 0-4.007 3.286-7.213 7.312-7.213m47.32-31.253c2.71 5.37 3.203 7.292 3.203 11.78 0 5.128-1.395 9.136-4.27 11.94-3.615 3.687-9.284 5.77-15.692 5.77-12.487 0-21.03-7.453-21.03-18.27 0-4.168.82-6.973 3.45-11.22h13.308c-3.696 3.046-4.847 4.97-4.847 8.093 0 4.73 3.285 7.614 8.625 7.614 5.258 0 8.544-2.885 8.544-7.533 0-2.964-1.15-5.127-4.272-8.173h12.98zM38.905 71.124c5.67 0 9.037-3.044 9.037-8.173 0-4.968-3.697-8.173-9.448-8.173-5.42 0-9.118 3.205-9.118 8.013 0 4.81 4.025 8.334 9.53 8.334M54.76 55.097c3.124 3.366 4.027 5.69 4.027 10.82 0 5.848-1.643 10.016-5.176 13.3-3.778 3.528-9.035 5.37-15.115 5.37-11.91 0-20.29-7.693-20.29-18.51 0-4.73 1.067-7.374 4.518-10.98h-3.286v-12.42H57.39v12.42h-2.63zM19.437 39.632V26.81h4.354c-4.354-3.286-5.75-6.17-5.75-11.46 0-5.77 2.383-10.578 6.325-12.742C26.42 1.486 28.8.926 31.76.926h25.63v12.98H36.524c-5.093 0-7.476 1.845-7.476 5.772 0 4.167 2.958 6.97 7.476 6.97H57.39v12.984H19.436z"/></svg>