<svg xmlns="http://www.w3.org/2000/svg" width="233" height="45">
  <path fill-rule="evenodd" fill="#E63A82" d="M232.944 22.27c.057 12.08-9.692 21.92-21.773 21.978-12.08.056-21.92-9.692-21.978-21.773-.057-12.082 9.69-21.922 21.773-21.98 12.082-.056 21.922 9.692 21.98 21.774zM211.876 8.93l-3.757 3.717 8.16 7.63h-19.112v5.02h19.096l-8.223 7.434 3.836 3.875 13.88-13.967-13.88-13.707zM170.678 32.255h-5.147l-3.33-10.968-3.418 10.968h-5.23l-7.93-19.49h7.212l3.628 10.505 3.29-10.504h4.936l3.248 10.504 3.628-10.504h6.707l-7.592 19.49zm-35.52.717c-6.666 0-11.517-4.43-11.517-10.46 0-6.076 4.852-10.463 11.643-10.463 6.75 0 11.39 4.26 11.39 10.418 0 6.286-4.598 10.504-11.516 10.504zm.083-15.566c-2.614 0-4.512 2.152-4.512 5.105 0 2.91 1.856 5.105 4.387 5.105 2.868 0 4.555-1.9 4.555-5.104 0-3.12-1.73-5.104-4.43-5.104zm-19.953 4.134c0-2.615-.97-3.838-3.038-3.838-2.194 0-3.67 1.518-3.67 3.838v10.715h-6.834v-19.49h6.75v2.237c1.73-2.236 3.247-2.953 6.03-2.953 3.038 0 5.57 1.223 6.708 3.247.59 1.055.886 2.278.886 3.797v13.16h-6.833V21.54zm-29.53 10.715l-7.51-8.268v8.268h-6.833V2.685h6.834V20.95l7.002-8.184h8.69l-8.732 9.407 9.617 10.082h-9.07zm-27.338.717c-6.666 0-11.517-4.43-11.517-10.46 0-6.076 4.85-10.463 11.643-10.463 6.75 0 11.39 4.26 11.39 10.418 0 6.286-4.6 10.504-11.517 10.504zm.083-15.566c-2.615 0-4.513 2.152-4.513 5.105 0 2.91 1.856 5.105 4.387 5.105 2.868 0 4.556-1.9 4.556-5.104 0-3.12-1.73-5.104-4.43-5.104zM34.33 32.972c-6.665 0-11.516-4.43-11.516-10.46 0-6.076 4.85-10.463 11.643-10.463 6.75 0 11.39 4.26 11.39 10.418 0 6.286-4.6 10.504-11.517 10.504zm.084-15.566c-2.615 0-4.513 2.152-4.513 5.105 0 2.91 1.857 5.105 4.388 5.105 2.868 0 4.556-1.9 4.556-5.104 0-3.12-1.73-5.104-4.43-5.104zm-12.488 6.918c0 2.574-1.434 5.19-3.5 6.454-1.52.97-3.713 1.477-6.118 1.477H.328V4.16h11.685c5.188 0 8.352 2.66 8.352 7.003 0 2.827-1.434 4.894-4.134 5.948 1.773.634 2.785 1.182 3.67 2.11 1.182 1.18 2.026 3.248 2.026 5.104zM10.283 9.814H7.92v5.483h1.857c2.362 0 3.586-1.012 3.586-2.995 0-1.603-1.097-2.488-3.08-2.488zm.97 10.84H7.922v5.737h3.038c2.278 0 3.544-1.053 3.544-2.994 0-1.77-1.18-2.74-3.248-2.74z"/>
</svg>