<svg xmlns="http://www.w3.org/2000/svg" width="255" height="105">
  <path fill-rule="evenodd" fill="#E63A82" d="M245.106 14.82c-.168 0-.284-.005-.35-.014-.065-.01-.172-.033-.322-.07.056.933.294 1.605.714 2.016.42.41 1.078.616 1.974.616.28 0 .518-.02.714-.056.196-.038.378-.108.546-.21.168-.103.322-.248.462-.434.14-.187.294-.42.462-.7h4.732c-.112 1.026-.494 1.894-1.148 2.604-.578.616-1.372 1.106-2.38 1.47-1.008.364-2.1.546-3.276.546-1.157 0-2.193-.164-3.108-.49-.914-.327-1.698-.79-2.352-1.386-.653-.598-1.152-1.32-1.498-2.17-.345-.85-.518-1.806-.518-2.87s.173-2.026.518-2.884c.346-.86.836-1.592 1.47-2.198.635-.607 1.4-1.074 2.296-1.4.896-.327 1.895-.49 2.996-.49 1.4 0 2.656.27 3.766.812 1.11.54 1.928 1.278 2.45 2.212.28.522.504 1.162.672 1.918.168.756.252 1.526.252 2.31v.868h-9.072zm3.514-4.634c-.345-.327-.872-.49-1.582-.49-1.437 0-2.268.718-2.492 2.156.224-.038.388-.06.49-.07.103-.01.285-.014.546-.014h2.772c.243 0 .42.004.532.014.112.01.27.032.476.07-.15-.784-.396-1.34-.742-1.666zm-4.577 25.662l-1.652 2.968c-.56-.318-1.12-.565-1.68-.742-.56-.178-1.054-.266-1.483-.266-.803 0-1.223.298-1.26.896 0 .298.14.54.42.728.15.093.322.177.518.252.196.074.397.14.602.196l.448.084.476.112.45.112c.578.13 1.058.294 1.44.49.384.196.696.434.94.714.242.28.414.616.517 1.008.103.392.154.858.154 1.4 0 .653-.12 1.274-.363 1.862-.243.588-.588 1.087-1.036 1.498-.578.54-1.217.92-1.917 1.134-.7.214-1.62.322-2.758.322-.467 0-1.003-.06-1.61-.182-.607-.122-1.153-.285-1.638-.49-.26-.094-.513-.206-.756-.336-.242-.13-.578-.327-1.007-.588l1.4-3.052c.71.41 1.316.704 1.82.882.504.177 1.008.284 1.512.322.448.037.82-.028 1.12-.196.3-.168.448-.383.448-.644 0-.243-.135-.448-.406-.616-.27-.168-.714-.327-1.33-.476-.448-.112-.826-.21-1.134-.294-.308-.084-.574-.168-.798-.252-.224-.084-.415-.173-.574-.266-.158-.094-.312-.215-.46-.364-.374-.318-.654-.724-.84-1.218-.188-.495-.262-1.032-.225-1.61.075-1.512.658-2.684 1.75-3.514 1.092-.83 2.534-1.2 4.326-1.106.766.037 1.49.15 2.17.336.682.186 1.49.485 2.423.896zM233.43 12.636c0-1.494-.7-2.24-2.1-2.24-.765 0-1.348.247-1.75.742-.4.494-.6 1.218-.6 2.17v6.748h-4.537V.568h4.536v4.928c0 .373-.006.68-.015.924l-.028.686c-.01.214-.028.438-.056.672-.027.233-.06.518-.097.854l.112.056c.653-.728 1.278-1.242 1.876-1.54.598-.3 1.317-.448 2.157-.448.97 0 1.862.205 2.674.616.813.41 1.424.96 1.835 1.652.186.317.322.686.406 1.106.085.42.127.956.127 1.61v8.372h-4.536v-7.42zm-7.544 31.99c.345-.195.592-.46.742-.795.093-.204.168-.497.224-.88.056-.38.084-.794.084-1.24v-6.59h4.536v6.972c0 .952-.084 1.75-.252 2.394-.168.644-.44 1.208-.813 1.694-.578.728-1.376 1.292-2.393 1.694-1.018.4-2.18.602-3.486.602-1.4 0-2.618-.243-3.654-.728-1.037-.486-1.797-1.176-2.282-2.072-.43-.803-.644-1.95-.644-3.444V35.12h4.536v6.59c0 .613.037 1.092.112 1.437.074.344.195.646.364.907.41.577.998.866 1.764.866.43 0 .816-.098 1.162-.294zM220.9 10.564c-.065 0-.163-.02-.293-.056.037.13.056.228.056.294v9.254h-4.536v-8.932-.322c0-.066.018-.164.056-.294-.13.037-.23.056-.294.056h-1.583V7.12h1.582c.064 0 .162.018.293.056-.038-.13-.056-.23-.056-.294V3.536h4.536v3.346c0 .065-.02.163-.056.294.13-.038.228-.056.294-.056H223.044v3.444H220.9zm-4.688 30.996c0 1.045-.182 1.997-.546 2.856-.364.858-.882 1.59-1.554 2.198-.672.606-1.48 1.078-2.422 1.414-.943.336-1.984.504-3.122.504-1.102 0-2.12-.173-3.052-.518-.934-.346-1.74-.826-2.422-1.442-.682-.616-1.214-1.35-1.596-2.198-.383-.85-.574-1.778-.574-2.786s.19-1.937.574-2.786c.382-.85.914-1.582 1.596-2.198.68-.616 1.498-1.097 2.45-1.442.952-.346 1.988-.518 3.108-.518s2.142.168 3.066.504c.924.336 1.722.807 2.394 1.414.672.606 1.19 1.334 1.554 2.184.364.85.546 1.787.546 2.814zm-5.446-2.45c-.532-.607-1.246-.91-2.142-.91-.878 0-1.596.317-2.156.952-.56.634-.84 1.446-.84 2.436 0 .485.074.933.224 1.344.15.41.35.77.602 1.078.252.308.555.546.91.714.354.168.746.252 1.176.252.952 0 1.694-.3 2.226-.896.532-.598.798-1.428.798-2.492 0-1.046-.266-1.872-.798-2.478zm-8.08-19.614c0-.094.01-.192.03-.294.018-.103.065-.238.14-.406l-.085-.028c-.67.653-1.32 1.115-1.945 1.386-.625.27-1.376.406-2.253.406-.915 0-1.75-.168-2.507-.504-.756-.336-1.41-.812-1.96-1.428-.55-.616-.975-1.35-1.274-2.198-.297-.85-.447-1.788-.447-2.814 0-1.008.16-1.937.476-2.786.317-.85.765-1.582 1.344-2.198.578-.616 1.26-1.092 2.044-1.428.783-.336 1.65-.504 2.603-.504.767 0 1.44.112 2.018.336.578.224 1.138.578 1.68 1.064l.083-.056c-.036-.374-.064-.69-.083-.952-.018-.262-.032-.51-.04-.742-.01-.234-.016-.49-.016-.77V.512h4.537v19.544h-4.34v-.56zm-.642-8.12c-.505-.56-1.176-.84-2.017-.84-.858 0-1.563.298-2.113.896-.55.597-.827 1.372-.827 2.324 0 .933.243 1.68.728 2.24.486.56 1.148.84 1.99.84.895 0 1.618-.29 2.168-.868.55-.58.826-1.354.826-2.324 0-.952-.253-1.708-.756-2.268zm-8.638 23.744c.065 0 .163.018.294.056-.038-.13-.056-.23-.056-.294v-3.346h4.536v3.346c0 .065-.02.163-.056.294.13-.038.228-.056.294-.056h2.142v3.444h-2.142c-.066 0-.164-.02-.294-.056.037.13.056.228.056.294v9.254h-4.536v-8.932-.322c0-.066.018-.164.056-.294-.13.037-.23.056-.294.056h-1.582V35.12h1.582zm-4.046 11.494c-.672.606-1.48 1.078-2.422 1.414-.943.336-1.984.504-3.122.504-1.102 0-2.12-.173-3.052-.518-.934-.346-1.74-.826-2.422-1.442-.682-.616-1.214-1.35-1.596-2.198-.383-.85-.574-1.778-.574-2.786s.19-1.937.574-2.786c.382-.85.914-1.582 1.596-2.198.68-.616 1.498-1.097 2.45-1.442.952-.346 1.988-.518 3.108-.518s2.142.168 3.066.504c.924.336 1.722.807 2.394 1.414.672.606 1.19 1.334 1.554 2.184.364.85.546 1.787.546 2.814 0 1.045-.182 1.997-.546 2.856-.364.858-.882 1.59-1.554 2.198zm-3.346-7.504c-.532-.607-1.246-.91-2.142-.91-.878 0-1.596.317-2.156.952-.56.634-.84 1.446-.84 2.436 0 .485.074.933.224 1.344.15.41.35.77.602 1.078.252.308.555.546.91.714.354.168.746.252 1.176.252.952 0 1.694-.3 2.226-.896.532-.598.798-1.428.798-2.492 0-1.046-.266-1.872-.798-2.478zm.014-26.166c0-1.7-.672-2.548-2.016-2.548-.728 0-1.316.228-1.764.686-.448.457-.672 1.078-.672 1.862v7.112h-4.536V7.12h4.48v.756c0 .15-.014.294-.042.434-.028.14-.09.34-.182.602l.112.056c.298-.43.54-.756.728-.98.186-.224.4-.42.644-.588.354-.243.77-.43 1.246-.56.476-.13.975-.196 1.498-.196 1.008 0 1.908.19 2.702.574.793.382 1.376.91 1.75 1.582.392.71.588 1.55.588 2.52v8.736h-4.536v-7.112zM174.464 74.18c-.578.728-1.376 1.292-2.394 1.694-1.017.4-2.18.602-3.486.602-1.4 0-2.618-.243-3.654-.728-1.036-.486-1.796-1.176-2.282-2.072-.43-.803-.644-1.95-.644-3.444V63.12h4.536v6.59c0 .613.038 1.092.112 1.437.075.344.196.646.364.907.41.577 1 .866 1.764.866.43 0 .817-.098 1.162-.294.346-.195.593-.46.742-.795.094-.204.168-.497.224-.88.056-.38.084-.794.084-1.24v-6.59h4.536v6.972c0 .952-.084 1.75-.252 2.394-.168.644-.438 1.208-.812 1.694zm-2.352-68.292c-.69 0-1.28-.243-1.764-.728-.486-.486-.728-1.083-.728-1.792 0-.69.242-1.28.728-1.764.485-.486 1.073-.728 1.764-.728.71 0 1.306.242 1.792.728.485.485.728 1.073.728 1.764 0 .71-.243 1.306-.728 1.792-.486.485-1.083.728-1.792.728zm-2.24 1.232h4.536v12.936h-4.536V7.12zm4.424 40.936h-4.536V35.12h4.536v12.936zm-4.06-18.452c.485-.486 1.073-.728 1.764-.728.71 0 1.307.242 1.792.728.485.485.728 1.073.728 1.764 0 .71-.243 1.306-.728 1.792-.485.485-1.083.728-1.792.728-.69 0-1.28-.243-1.764-.728-.485-.486-.728-1.083-.728-1.792 0-.69.243-1.28.728-1.764zm-3.108 9.24c-2.445 0-3.668 1.25-3.668 3.752v5.46h-4.536V35.12h4.34v.812c0 .15-.02.308-.056.476-.037.168-.103.41-.196.728l.14.028c.485-.896 1-1.526 1.54-1.89.54-.364 1.223-.546 2.044-.546.093 0 .22.004.378.014.16.01.322.023.49.042l.224.028.252.028.224.028v4.144c-.26-.075-.476-.122-.644-.14-.168-.02-.345-.028-.532-.028zm-4.312-26.208c0-1.494-.7-2.24-2.1-2.24-.766 0-1.35.247-1.75.742-.402.494-.602 1.218-.602 2.17v6.748h-4.536V.568h4.536v4.928c0 .373-.005.68-.014.924l-.028.686c-.01.214-.028.438-.056.672-.028.233-.06.518-.098.854l.112.056c.653-.728 1.278-1.242 1.876-1.54.597-.3 1.316-.448 2.156-.448.97 0 1.862.205 2.674.616.812.41 1.423.96 1.834 1.652.186.317.322.686.406 1.106.084.42.126.956.126 1.61v8.372h-4.536v-7.42zm-5.403 50.596c.746.336 1.288.793 1.624 1.372.373.634.56 1.558.56 2.772v8.68h-4.536V68.3c0-1.438-.597-2.156-1.79-2.156-1.345 0-2.017.774-2.017 2.324v7.588h-4.536V68.3c0-1.42-.58-2.128-1.736-2.128-.634 0-1.138.205-1.51.616-.375.41-.56.97-.56 1.68v7.588h-4.537V63.12h4.48v.756c0 .13-.014.27-.042.42-.027.15-.088.364-.18.644l.11.028c.28-.43.52-.756.715-.98.196-.224.396-.41.602-.56.354-.262.78-.458 1.274-.588.495-.13 1.004-.196 1.527-.196.597 0 1.17.08 1.722.238.55.158 1.03.387 1.44.686.206.15.383.312.533.49.15.177.317.434.504.77.28-.392.56-.724.84-.994.28-.27.57-.486.868-.644.298-.16.625-.276.98-.35.354-.075.756-.112 1.204-.112.895 0 1.716.168 2.463.504zm-14.827-48.426c-.066-.01-.173-.033-.322-.07.056.933.294 1.605.714 2.016.42.41 1.078.616 1.974.616.28 0 .518-.02.714-.056.196-.038.378-.108.546-.21.168-.103.322-.248.462-.434.14-.187.294-.42.462-.7h4.732c-.112 1.026-.495 1.894-1.148 2.604-.58.616-1.372 1.106-2.38 1.47-1.008.364-2.1.546-3.276.546-1.158 0-2.194-.164-3.108-.49-.915-.327-1.7-.79-2.352-1.386-.654-.598-1.153-1.32-1.498-2.17-.346-.85-.518-1.806-.518-2.87s.172-2.026.518-2.884c.345-.86.835-1.592 1.47-2.198.634-.607 1.4-1.074 2.296-1.4.896-.327 1.894-.49 2.996-.49 1.4 0 2.655.27 3.766.812 1.11.54 1.927 1.278 2.45 2.212.28.522.504 1.162.672 1.918.168.756.252 1.526.252 2.31v.868h-9.072c-.168 0-.285-.005-.35-.014zm3.598-3.038c.242 0 .42.004.532.014.112.01.27.032.476.07-.15-.784-.397-1.34-.742-1.666-.346-.327-.873-.49-1.582-.49-1.438 0-2.268.718-2.492 2.156.224-.038.387-.06.49-.07.102-.01.284-.014.546-.014h2.772zm-11.676 7.056c-1.12 1.138-2.604 1.708-4.452 1.708-.653 0-1.264-.09-1.834-.266-.57-.178-1.04-.425-1.414-.742-.13-.094-.252-.206-.364-.336-.112-.13-.242-.308-.392-.532l-.14.028c.094.242.154.415.182.518.028.102.042.2.042.294v.56h-4.34V.512h4.536V5.51c0 .29-.01.56-.028.812l-.056.784c-.018.27-.046.602-.084.994l.084.056c.542-.542 1.092-.93 1.652-1.162.56-.234 1.232-.35 2.016-.35.952 0 1.83.177 2.632.532.803.354 1.494.844 2.072 1.47.58.625 1.032 1.367 1.358 2.226.327.858.49 1.8.49 2.828 0 1.008-.172 1.955-.518 2.842-.345.886-.826 1.647-1.442 2.282zm-3.528-7.462c-.504-.57-1.204-.854-2.1-.854-.877 0-1.572.28-2.086.84-.513.56-.77 1.297-.77 2.212 0 .97.266 1.754.798 2.352.532.597 1.237.896 2.114.896.878 0 1.564-.276 2.058-.826.495-.55.742-1.312.742-2.282 0-.99-.252-1.77-.756-2.338zm-5.248 23.856c.793.382 1.376.91 1.75 1.582.39.71.588 1.55.588 2.52v8.736h-4.536v-7.112c0-1.7-.673-2.548-2.016-2.548-.728 0-1.316.228-1.764.686-.448.457-.672 1.078-.672 1.862v7.112h-4.536V35.12h4.48v.756c0 .15-.014.294-.043.434-.028.14-.088.34-.18.602l.11.056c.3-.43.542-.756.73-.98.185-.224.4-.42.643-.588.354-.243.77-.43 1.246-.56.476-.13.975-.196 1.498-.196 1.008 0 1.908.19 2.702.574zm-24.963-9.982l3.835-7.224L99.06 7.887v3.125c-.26-.075-.475-.122-.643-.14-.168-.02-.345-.028-.532-.028-2.445 0-3.668 1.25-3.668 3.752v5.46H89.68V7.12h4.34v.812c0 .15-.017.308-.055.476-.037.168-.102.41-.196.728l.14.028c.485-.896.998-1.526 1.54-1.89.54-.364 1.222-.546 2.043-.546.094 0 .22.004.378.014.16.01.323.023.49.042l.225.028.252.028.224.028v.252h4.76l1.737 3.864c.187.392.34.728.462 1.008.12.28.232.546.335.798.103.252.2.513.294.784.092.27.214.602.363.994h.112c.13-.392.247-.724.35-.994.103-.27.2-.532.294-.784.092-.252.2-.518.32-.798.122-.28.276-.616.463-1.008l1.736-3.864h4.87l-9.463 18.116h-4.928zM93.013 43.24c-.448-.112-.826-.21-1.134-.294-.308-.084-.574-.168-.798-.252-.224-.084-.416-.173-.574-.266-.16-.094-.313-.215-.462-.364-.374-.318-.654-.724-.84-1.218-.187-.495-.262-1.032-.224-1.61.074-1.512.658-2.684 1.75-3.514 1.092-.83 2.534-1.2 4.326-1.106.765.037 1.488.15 2.17.336.68.186 1.488.485 2.422.896l-1.652 2.968c-.56-.318-1.12-.565-1.68-.742-.56-.178-1.055-.266-1.484-.266-.803 0-1.223.298-1.26.896 0 .298.14.54.42.728.15.093.322.177.518.252.196.074.396.14.602.196l.448.084.476.112.448.112c.578.13 1.06.294 1.442.49.382.196.695.434.938.714.242.28.415.616.518 1.008.102.392.154.858.154 1.4 0 .653-.122 1.274-.364 1.862-.243.588-.588 1.087-1.036 1.498-.58.54-1.218.92-1.918 1.134-.7.214-1.62.322-2.758.322-.467 0-1.004-.06-1.61-.182-.607-.122-1.153-.285-1.638-.49-.262-.094-.514-.206-.756-.336-.243-.13-.58-.327-1.008-.588l1.4-3.052c.71.41 1.316.704 1.82.882.504.177 1.008.284 1.512.322.448.037.82-.028 1.12-.196.298-.168.448-.383.448-.644 0-.243-.136-.448-.406-.616-.27-.168-.714-.327-1.33-.476zm-6.986-4.676c-.065 0-.163-.02-.294-.056.037.13.056.228.056.294v9.254h-4.536v-8.932-.322c0-.066.02-.164.056-.294-.13.037-.23.056-.294.056h-1.582V35.12h1.582c.065 0 .163.018.294.056-.037-.13-.056-.23-.056-.294v-3.346h4.536v3.346c0 .065-.02.163-.056.294.13-.038.23-.056.294-.056h2.142v3.444h-2.142zm-.294-19.95c-.672.606-1.48 1.078-2.422 1.414-.943.336-1.984.504-3.122.504-1.102 0-2.12-.173-3.052-.518-.934-.346-1.74-.826-2.422-1.442-.682-.616-1.214-1.35-1.596-2.198-.383-.85-.574-1.778-.574-2.786s.19-1.937.574-2.786c.382-.85.914-1.582 1.596-2.198.68-.616 1.498-1.097 2.45-1.442.952-.346 1.988-.518 3.108-.518s2.142.168 3.066.504c.924.336 1.722.807 2.394 1.414.672.606 1.19 1.334 1.554 2.184.364.85.546 1.787.546 2.814 0 1.045-.182 1.997-.546 2.856-.364.858-.882 1.59-1.554 2.198zm-3.346-7.504c-.532-.607-1.246-.91-2.142-.91-.878 0-1.596.317-2.156.952-.56.634-.84 1.446-.84 2.436 0 .485.074.933.224 1.344.15.41.35.77.602 1.078.252.308.555.546.91.714.354.168.746.252 1.176.252.952 0 1.694-.3 2.226-.896.532-.598.798-1.428.798-2.492 0-1.046-.266-1.872-.798-2.478zm-12.348-.546c-.066 0-.164-.02-.294-.056.037.13.056.228.056.294v9.254h-4.536v-8.932-.322c0-.066.018-.164.056-.294-.13.037-.23.056-.294.056h-1.582V7.12h1.582c.065 0 .163.018.294.056-.038-.13-.056-.23-.056-.294V3.536h4.536v3.346c0 .065-.02.163-.056.294.13-.038.228-.056.294-.056h2.142v3.444H70.04zm-10.542-.49c-.56-.178-1.055-.266-1.484-.266-.803 0-1.223.298-1.26.896 0 .298.14.54.42.728.15.093.322.177.518.252.196.074.396.14.602.196l.448.084.476.112.448.112c.578.13 1.06.294 1.442.49.382.196.695.434.938.714.242.28.415.616.518 1.008.102.392.154.858.154 1.4 0 .653-.122 1.274-.364 1.862-.243.588-.588 1.087-1.036 1.498-.58.54-1.218.92-1.918 1.134-.7.214-1.62.322-2.758.322-.467 0-1.004-.06-1.61-.182-.607-.122-1.153-.285-1.638-.49-.262-.094-.514-.206-.756-.336-.243-.13-.58-.327-1.008-.588l1.4-3.052c.71.41 1.316.704 1.82.882.504.177 1.008.284 1.512.322.448.037.82-.028 1.12-.196.298-.168.448-.383.448-.644 0-.243-.136-.448-.406-.616-.27-.168-.714-.327-1.33-.476-.448-.112-.826-.21-1.134-.294-.308-.084-.574-.168-.798-.252-.224-.084-.416-.173-.574-.266-.16-.094-.313-.215-.462-.364-.374-.318-.654-.724-.84-1.218-.187-.495-.262-1.032-.224-1.61.074-1.512.658-2.684 1.75-3.514 1.092-.83 2.534-1.2 4.326-1.106.765.037 1.488.15 2.17.336.68.186 1.488.485 2.422.896l-1.652 2.968c-.56-.318-1.12-.565-1.68-.742zm-7.364 28.49h-2.142c-.065 0-.163-.02-.294-.056.037.13.056.228.056.294v9.254h-4.536v-8.932-.322c0-.066.02-.164.056-.294-.13.037-.23.056-.294.056h-1.582V35.12h1.582c.065 0 .163.018.294.056-.037-.13-.056-.23-.056-.294v-3.346h4.536v3.346c0 .065-.02.163-.056.294.13-.038.23-.056.294-.056h2.142v3.444zM35.6 14.806c-.066-.01-.173-.033-.322-.07.056.933.294 1.605.714 2.016.42.41 1.078.616 1.974.616.28 0 .518-.02.714-.056.196-.038.378-.108.546-.21.168-.103.322-.248.462-.434.14-.187.294-.42.462-.7h4.732c-.112 1.026-.495 1.894-1.148 2.604-.58.616-1.372 1.106-2.38 1.47-1.008.364-2.1.546-3.276.546-1.158 0-2.194-.164-3.108-.49-.915-.327-1.7-.79-2.352-1.386-.654-.598-1.153-1.32-1.498-2.17-.346-.85-.518-1.806-.518-2.87s.172-2.026.518-2.884c.345-.86.835-1.592 1.47-2.198.634-.607 1.4-1.074 2.296-1.4.896-.327 1.894-.49 2.996-.49 1.4 0 2.655.27 3.766.812 1.11.54 1.927 1.278 2.45 2.212.28.522.504 1.162.672 1.918.168.756.252 1.526.252 2.31v.868H35.95c-.168 0-.285-.005-.35-.014zm3.598-3.038c.242 0 .42.004.532.014.112.01.27.032.476.07-.15-.784-.397-1.34-.742-1.666-.346-.327-.873-.49-1.582-.49-1.438 0-2.268.718-2.492 2.156.224-.038.387-.06.49-.07.102-.01.284-.014.546-.014h2.772zm-6.832 23.394c.952-.346 1.988-.518 3.108-.518s2.142.168 3.066.504c.924.336 1.722.807 2.394 1.414.672.606 1.19 1.334 1.554 2.184.364.85.546 1.787.546 2.814 0 1.045-.182 1.997-.546 2.856-.364.858-.882 1.59-1.554 2.198-.672.606-1.48 1.078-2.422 1.414-.942.336-1.983.504-3.122.504-1.1 0-2.118-.173-3.052-.518-.933-.346-1.74-.826-2.422-1.442-.68-.616-1.213-1.35-1.596-2.198-.382-.85-.574-1.778-.574-2.786s.192-1.937.574-2.786c.383-.85.915-1.582 1.596-2.198.682-.616 1.498-1.097 2.45-1.442zm.308 7.77c.15.41.35.77.602 1.078.252.308.556.546.91.714.355.168.747.252 1.176.252.952 0 1.694-.3 2.226-.896.532-.598.798-1.428.798-2.492 0-1.046-.266-1.872-.798-2.478-.532-.607-1.246-.91-2.142-.91-.877 0-1.596.317-2.156.952-.56.634-.84 1.446-.84 2.436 0 .485.075.933.224 1.344zm-8.4-30.296c0-1.494-.7-2.24-2.1-2.24-.765 0-1.35.247-1.75.742-.4.494-.602 1.218-.602 2.17v6.748h-4.536V.568h4.536v4.928c0 .373-.005.68-.014.924l-.028.686c-.01.214-.028.438-.056.672-.028.233-.06.518-.098.854l.112.056c.653-.728 1.28-1.242 1.876-1.54.597-.3 1.316-.448 2.156-.448.97 0 1.862.205 2.674.616.812.41 1.423.96 1.834 1.652.187.317.322.686.406 1.106.084.42.126.956.126 1.61v8.372h-4.536v-7.42zm-8.287 29.008c0 1.045-.154 1.997-.462 2.856-.308.858-.742 1.59-1.302 2.198-.56.606-1.237 1.078-2.03 1.414-.794.336-1.676.504-2.646.504-.86 0-1.564-.112-2.114-.336-.55-.224-1.097-.616-1.638-1.176l-.112.056c.037.317.065.588.084.812.018.224.037.443.056.658.018.214.028.443.028.686v3.864H1.316V35.12h4.34v.56c0 .093-.01.19-.028.294-.02.102-.066.238-.14.406l.084.056c.337-.355.65-.644.94-.868.288-.224.587-.406.895-.546.308-.14.64-.238.994-.294.353-.056.764-.084 1.23-.084.97 0 1.85.163 2.633.49.784.326 1.45.798 2.002 1.414.55.616.975 1.353 1.274 2.212.297.858.447 1.82.447 2.884zm-5.502-2.38c-.514-.598-1.2-.896-2.058-.896-.84 0-1.53.308-2.072.924-.542.616-.812 1.41-.812 2.38 0 .952.26 1.717.784 2.296.522.578 1.204.868 2.044.868.897 0 1.6-.285 2.115-.854.513-.57.77-1.34.77-2.31 0-1.008-.257-1.81-.77-2.408zM9.87 5.804c-.067 0-.165-.02-.295-.056.037.13.056.228.056.294v14.014H4.45V6.364v-.322c0-.066.02-.164.057-.294-.13.037-.23.056-.294.056H.308V1.408H13.72v4.396H9.87zM2.574 64.59c.634-.607 1.4-1.074 2.296-1.4.897-.327 1.895-.49 2.997-.49 1.4 0 2.655.27 3.766.812 1.11.54 1.927 1.278 2.45 2.212.28.522.504 1.162.672 1.918.168.756.252 1.526.252 2.31v.868H5.935c-.168 0-.285-.005-.35-.014-.066-.01-.173-.033-.322-.07.056.933.294 1.605.714 2.016.42.41 1.078.616 1.974.616.28 0 .52-.02.715-.056.196-.038.378-.108.546-.21.17-.103.323-.248.463-.434.14-.187.294-.42.462-.7h4.732c-.112 1.026-.495 1.894-1.148 2.604-.58.616-1.373 1.106-2.38 1.47-1.01.364-2.1.546-3.277.546-1.158 0-2.194-.164-3.108-.49-.915-.327-1.7-.79-2.352-1.386-.654-.598-1.153-1.32-1.498-2.17-.346-.85-.518-1.806-.518-2.87s.172-2.026.518-2.884c.345-.86.835-1.592 1.47-2.198zm3.29 3.192c.102-.01.284-.014.546-.014h2.773c.242 0 .42.004.532.014.112.01.27.032.476.07-.15-.784-.396-1.34-.74-1.666-.347-.327-.874-.49-1.583-.49-1.438 0-2.268.718-2.492 2.156.224-.038.387-.06.49-.07zm-3.43 24.85c.578-.616 1.26-1.092 2.044-1.428.783-.336 1.65-.504 2.603-.504.84 0 1.54.12 2.1.364.56.242 1.166.69 1.82 1.344l.084-.028c-.075-.168-.122-.304-.14-.406-.02-.103-.028-.2-.028-.294v-.56h4.34v12.936h-4.34v-.448c0-.075.008-.154.027-.238.018-.084.065-.2.14-.35l-.084-.056c-.3.317-.584.574-.854.77-.272.196-.557.354-.855.476-.3.12-.62.205-.966.252-.347.046-.743.07-1.19.07-1.028 0-1.915-.145-2.66-.434-.748-.29-1.41-.733-1.99-1.33-.615-.654-1.082-1.414-1.4-2.282-.317-.868-.475-1.825-.475-2.87 0-1.008.158-1.937.476-2.786.318-.85.766-1.582 1.345-2.198zm3.64 7.392c.504.54 1.204.812 2.1.812.877 0 1.572-.29 2.086-.868.514-.58.77-1.363.77-2.352 0-.934-.256-1.685-.77-2.254-.513-.57-1.19-.854-2.03-.854-.43 0-.82.08-1.175.238-.355.158-.658.382-.91.672-.252.29-.453.634-.602 1.036-.15.4-.224.835-.224 1.302 0 .97.25 1.726.755 2.268zm16.267-8.148c0 .15-.014.294-.042.434-.028.14-.09.34-.182.602l.112.056c.298-.43.54-.756.728-.98.186-.224.4-.42.644-.588.354-.243.77-.43 1.246-.56.476-.13.975-.196 1.498-.196 1.008 0 1.908.19 2.702.574.793.382 1.376.91 1.75 1.582.392.71.588 1.55.588 2.52v8.736H26.85v-7.112c0-1.7-.672-2.548-2.016-2.548-.728 0-1.316.228-1.764.686-.448.457-.672 1.078-.672 1.862v7.112h-4.536V91.12h4.48v.756zm1.597-15.82h-3.67L14.308 63.12h5.04l1.4 3.724c.168.466.312.858.434 1.176.122.317.225.62.31.91.083.29.17.592.265.91.093.317.196.7.308 1.148h.14c.112-.448.214-.826.308-1.134.094-.308.183-.607.267-.896.084-.29.186-.593.308-.91.12-.318.266-.72.434-1.204l1.4-3.724h4.87l-5.85 12.936zm-.254-40.782c.54-.364 1.223-.546 2.044-.546.093 0 .22.004.378.014.16.01.322.023.49.042l.224.028.252.028.224.028v4.144c-.26-.075-.476-.122-.644-.14-.168-.02-.345-.028-.532-.028-2.445 0-3.668 1.25-3.668 3.752v5.46h-4.536V35.12h4.34v.812c0 .15-.02.308-.056.476-.037.168-.103.41-.196.728l.14.028c.485-.896 1-1.526 1.54-1.89zm5.923 37.268c-.347-.85-.52-1.806-.52-2.87s.173-2.026.52-2.884c.344-.86.834-1.592 1.47-2.198.633-.607 1.4-1.074 2.295-1.4.896-.327 1.894-.49 2.996-.49 1.4 0 2.656.27 3.767.812 1.11.54 1.927 1.278 2.45 2.212.28.522.504 1.162.672 1.918.167.756.25 1.526.25 2.31v.868h-9.07c-.17 0-.286-.005-.35-.014-.067-.01-.174-.033-.323-.07.056.933.294 1.605.714 2.016.42.41 1.08.616 1.975.616.28 0 .518-.02.714-.056.195-.038.377-.108.545-.21.168-.103.322-.248.462-.434.14-.187.294-.42.462-.7h4.73c-.11 1.026-.494 1.894-1.147 2.604-.58.616-1.372 1.106-2.38 1.47-1.008.364-2.1.546-3.276.546-1.158 0-2.194-.164-3.108-.49-.916-.327-1.7-.79-2.353-1.386-.654-.598-1.153-1.32-1.498-2.17zm4.76-4.76c.1-.01.283-.014.545-.014h2.772c.242 0 .42.004.532.014.11.01.27.032.475.07-.15-.784-.397-1.34-.742-1.666-.346-.327-.873-.49-1.582-.49-1.437 0-2.267.718-2.49 2.156.223-.038.386-.06.49-.07zm.656 24.85c.578-.616 1.26-1.092 2.044-1.428.784-.336 1.652-.504 2.604-.504.765 0 1.437.112 2.016.336.578.224 1.138.578 1.68 1.064l.084-.056c-.038-.374-.066-.69-.084-.952-.02-.262-.033-.51-.042-.742-.01-.234-.014-.49-.014-.77v-5.068h4.536v19.544h-4.34v-.56c0-.094.01-.192.028-.294.018-.103.065-.238.14-.406l-.084-.028c-.672.653-1.32 1.115-1.946 1.386-.626.27-1.377.406-2.254.406-.915 0-1.75-.168-2.506-.504-.756-.336-1.41-.812-1.96-1.428-.55-.616-.976-1.35-1.274-2.198-.3-.85-.448-1.788-.448-2.814 0-1.008.158-1.937.476-2.786.317-.85.765-1.582 1.344-2.198zm3.612 7.364c.485.56 1.148.84 1.988.84.896 0 1.62-.29 2.17-.868.55-.58.826-1.354.826-2.324 0-.952-.252-1.708-.756-2.268-.504-.56-1.176-.84-2.016-.84-.86 0-1.564.298-2.114.896-.55.597-.826 1.372-.826 2.324 0 .933.242 1.68.728 2.24zm6.693-23.94V63.12h4.48v.756c0 .15-.013.294-.04.434-.03.14-.09.34-.183.602l.112.056c.297-.43.54-.756.727-.98.186-.224.4-.42.644-.588.355-.243.77-.43 1.247-.56.476-.13.975-.196 1.498-.196 1.008 0 1.908.19 2.702.574.793.382 1.376.91 1.75 1.582.392.71.588 1.55.588 2.52v8.736H54.32v-7.112c0-1.7-.673-2.548-2.017-2.548-.728 0-1.316.228-1.764.686-.45.457-.673 1.078-.673 1.862v7.112H45.33zm11.536-27.958c-.915-.327-1.7-.79-2.352-1.386-.653-.598-1.153-1.32-1.498-2.17-.345-.85-.518-1.806-.518-2.87s.173-2.026.518-2.884c.345-.86.835-1.592 1.47-2.198.635-.607 1.4-1.074 2.296-1.4.896-.327 1.895-.49 2.996-.49 1.4 0 2.655.27 3.766.812 1.11.54 1.927 1.278 2.45 2.212.28.522.504 1.162.672 1.918.168.756.252 1.526.252 2.31v.868h-9.072c-.168 0-.285-.005-.35-.014-.065-.01-.173-.033-.322-.07.056.933.294 1.605.714 2.016.42.41 1.078.616 1.974.616.28 0 .518-.02.714-.056.196-.038.378-.108.546-.21.168-.103.322-.248.462-.434.14-.187.294-.42.462-.7h4.732c-.112 1.026-.495 1.894-1.148 2.604-.58.616-1.372 1.106-2.38 1.47-1.008.364-2.1.546-3.276.546-1.157 0-2.193-.164-3.108-.49zm.91-8.316c.103-.01.285-.014.546-.014h2.772c.243 0 .42.004.532.014.112.01.27.032.476.07-.15-.784-.397-1.34-.742-1.666-.345-.327-.873-.49-1.582-.49-1.437 0-2.268.718-2.492 2.156.224-.038.387-.06.49-.07zm8.135 36.274h-4.535V63.12h4.536v12.936zm-4.06-18.452c.486-.486 1.074-.728 1.765-.728.71 0 1.306.242 1.792.728.485.485.728 1.073.728 1.764 0 .71-.243 1.306-.728 1.792-.486.485-1.083.728-1.792.728-.69 0-1.28-.243-1.764-.728-.485-.486-.727-1.083-.727-1.792 0-.69.242-1.28.728-1.764zm-1.01 37.24c.17.466.314.858.435 1.176.12.317.224.62.308.91l.266.91c.092.317.195.7.307 1.148h.14c.112-.448.215-.826.308-1.134.093-.308.182-.607.266-.896.085-.29.188-.593.31-.91.12-.318.265-.72.433-1.204l1.4-3.724h4.872l-5.852 12.936h-3.668L54.4 91.12h5.04l1.4 3.724zm11.873-9.968c.71 0 1.306.242 1.792.728.485.485.728 1.073.728 1.764 0 .71-.243 1.306-.728 1.792-.486.485-1.083.728-1.792.728-.69 0-1.28-.243-1.764-.728-.487-.486-.73-1.083-.73-1.792 0-.69.243-1.28.73-1.764.484-.486 1.072-.728 1.763-.728zm2.296 19.18h-4.537V91.12h4.536v12.936zM72.18 43.24c-.448-.112-.826-.21-1.134-.294-.308-.084-.574-.168-.798-.252-.224-.084-.415-.173-.574-.266-.16-.094-.313-.215-.462-.364-.373-.318-.653-.724-.84-1.218-.187-.495-.26-1.032-.224-1.61.075-1.512.658-2.684 1.75-3.514 1.092-.83 2.534-1.2 4.326-1.106.765.037 1.49.15 2.17.336.68.186 1.49.485 2.422.896l-1.652 2.968c-.56-.318-1.12-.565-1.68-.742-.56-.178-1.055-.266-1.484-.266-.803 0-1.223.298-1.26.896 0 .298.14.54.42.728.15.093.322.177.518.252.196.074.397.14.602.196l.448.084.476.112.448.112c.58.13 1.06.294 1.442.49.383.196.695.434.938.714.243.28.415.616.518 1.008.103.392.154.858.154 1.4 0 .653-.12 1.274-.364 1.862-.243.588-.588 1.087-1.036 1.498-.58.54-1.218.92-1.918 1.134-.7.214-1.62.322-2.758.322-.467 0-1.003-.06-1.61-.182-.607-.122-1.153-.285-1.638-.49-.26-.094-.513-.206-.756-.336-.243-.13-.58-.327-1.008-.588l1.4-3.052c.71.41 1.316.704 1.82.882.504.177 1.008.284 1.512.322.448.037.82-.028 1.12-.196.3-.168.448-.383.448-.644 0-.243-.135-.448-.406-.616-.27-.168-.714-.327-1.33-.476zm1.57 23.842c-.45.457-.673 1.078-.673 1.862v7.112h-4.537V63.12h4.48v.756c0 .15-.014.294-.042.434-.027.14-.088.34-.18.602l.11.056c.3-.43.542-.756.73-.98.185-.224.4-.42.643-.588.354-.243.77-.43 1.246-.56.475-.13.974-.196 1.497-.196 1.008 0 1.908.19 2.702.574.792.382 1.375.91 1.75 1.582.39.71.587 1.55.587 2.52v8.736H77.53v-7.112c0-1.7-.67-2.548-2.015-2.548-.728 0-1.316.228-1.764.686zm5.99 33.768c.503.177 1.007.284 1.51.322.45.037.822-.028 1.12-.196.3-.168.45-.383.45-.644 0-.243-.137-.448-.407-.616-.27-.168-.714-.327-1.33-.476-.448-.112-.826-.21-1.134-.294-.307-.084-.573-.168-.797-.252-.224-.084-.416-.173-.574-.266-.16-.094-.314-.215-.463-.364-.374-.318-.654-.724-.84-1.218-.187-.495-.262-1.032-.224-1.61.074-1.512.658-2.684 1.75-3.514 1.092-.83 2.534-1.2 4.326-1.106.764.037 1.487.15 2.17.336.68.186 1.487.485 2.42.896l-1.65 2.968c-.56-.318-1.12-.565-1.68-.742-.56-.178-1.056-.266-1.485-.266-.803 0-1.223.298-1.26.896 0 .298.14.54.42.728.15.093.322.177.518.252.196.074.396.14.602.196l.448.084.476.112.447.112c.578.13 1.06.294 1.442.49.38.196.694.434.937.714.242.28.415.616.518 1.008.102.392.154.858.154 1.4 0 .653-.123 1.274-.365 1.862-.243.588-.588 1.087-1.036 1.498-.58.54-1.22.92-1.92 1.134-.7.214-1.62.322-2.757.322-.467 0-1.004-.06-1.61-.182-.607-.122-1.153-.285-1.638-.49-.262-.094-.514-.206-.756-.336-.244-.13-.58-.327-1.01-.588l1.4-3.052c.71.41 1.317.704 1.82.882zm14.392-37.086v-.644h4.34v12.544c0 .97-.093 1.778-.28 2.422-.186.644-.494 1.18-.924 1.61-.597.634-1.437 1.12-2.52 1.456-1.082.336-2.342.504-3.78.504-1.25 0-2.356-.182-3.318-.546-.96-.364-1.722-.9-2.282-1.61-.26-.336-.443-.672-.546-1.008-.102-.336-.172-.794-.21-1.372h4.732c.094.504.29.858.588 1.064.3.205.775.308 1.428.308.99 0 1.69-.248 2.1-.742.41-.495.616-1.35.616-2.562v-.308c0-.038.005-.08.014-.126.01-.047.06-.154.154-.322l-.112-.056c-.597.634-1.18 1.078-1.75 1.33-.57.252-1.264.378-2.086.378-.933 0-1.796-.168-2.59-.504-.793-.336-1.474-.798-2.044-1.386-.57-.588-1.012-1.293-1.33-2.114-.317-.822-.476-1.727-.476-2.716 0-.99.15-1.895.448-2.716.3-.822.724-1.526 1.274-2.114.55-.588 1.214-1.04 1.988-1.358.775-.318 1.63-.476 2.562-.476.41 0 .79.032 1.134.098.346.065.677.168.994.308.318.14.63.336.938.588.308.252.64.555.994.91l.112-.028c-.074-.187-.12-.332-.14-.434-.018-.103-.028-.23-.028-.378zm-.644 3.416c-.54-.58-1.24-.868-2.1-.868-.84 0-1.526.284-2.058.854-.532.57-.798 1.302-.798 2.198 0 .97.257 1.73.77 2.282.514.55 1.218.826 2.114.826.896 0 1.6-.27 2.114-.812.514-.542.77-1.288.77-2.24 0-.915-.27-1.662-.812-2.24zm.475 30.53c0 .613.037 1.092.112 1.437.074.344.196.646.364.907.41.577 1 .866 1.765.866.43 0 .816-.098 1.162-.294.345-.195.592-.46.742-.795.092-.204.167-.497.223-.88.056-.38.084-.794.084-1.24v-6.59h4.536v6.972c0 .952-.084 1.75-.252 2.394-.167.644-.438 1.208-.81 1.694-.58.728-1.378 1.292-2.395 1.694-1.018.4-2.18.602-3.486.602-1.4 0-2.62-.243-3.655-.728-1.036-.486-1.797-1.176-2.282-2.072-.43-.803-.644-1.95-.644-3.444V91.12h4.535v6.59zm12.57-5.078c.58-.616 1.26-1.092 2.045-1.428.784-.336 1.652-.504 2.604-.504.84 0 1.54.12 2.1.364.56.242 1.167.69 1.82 1.344l.084-.028c-.074-.168-.12-.304-.14-.406-.018-.103-.028-.2-.028-.294v-.56h4.34v12.936h-4.34v-.448c0-.075.01-.154.028-.238.02-.084.066-.2.14-.35l-.084-.056c-.298.317-.583.574-.854.77-.27.196-.555.354-.854.476-.298.12-.62.205-.966.252-.345.046-.742.07-1.19.07-1.026 0-1.913-.145-2.66-.434-.746-.29-1.41-.733-1.988-1.33-.616-.654-1.082-1.414-1.4-2.282-.317-.868-.476-1.825-.476-2.87 0-1.008.16-1.937.476-2.786.318-.85.766-1.582 1.344-2.198zm3.64 7.392c.505.54 1.205.812 2.1.812.88 0 1.574-.29 2.087-.868.514-.58.77-1.363.77-2.352 0-.934-.256-1.685-.77-2.254-.513-.57-1.19-.854-2.03-.854-.43 0-.82.08-1.176.238-.354.158-.658.382-.91.672-.252.29-.452.634-.602 1.036-.15.4-.224.835-.224 1.302 0 .97.252 1.726.756 2.268zm1.74-51.968h-4.537V35.12h4.536v12.936zm-4.06-18.452c.484-.486 1.072-.728 1.763-.728.71 0 1.306.242 1.792.728.485.485.728 1.073.728 1.764 0 .71-.243 1.306-.728 1.792-.486.485-1.083.728-1.792.728-.69 0-1.28-.243-1.764-.728-.486-.486-.728-1.083-.728-1.792 0-.69.242-1.28.728-1.764zm9.14 46.424c-.942.336-1.983.504-3.12.504-1.103 0-2.12-.173-3.053-.518-.934-.346-1.74-.826-2.422-1.442-.682-.616-1.214-1.35-1.596-2.198-.383-.85-.574-1.778-.574-2.786s.19-1.937.574-2.786c.382-.85.914-1.582 1.596-2.198.68-.616 1.498-1.097 2.45-1.442.952-.346 1.988-.518 3.108-.518s2.142.168 3.066.504c.924.336 1.722.807 2.394 1.414.672.606 1.19 1.334 1.554 2.184.364.85.546 1.787.546 2.814 0 1.045-.182 1.997-.546 2.856-.364.858-.882 1.59-1.554 2.198-.672.606-1.48 1.078-2.422 1.414zm-.923-8.918c-.532-.607-1.246-.91-2.142-.91-.878 0-1.596.317-2.156.952-.56.634-.84 1.446-.84 2.436 0 .485.074.933.224 1.344.15.41.35.77.602 1.078.252.308.555.546.91.714.354.168.746.252 1.176.252.952 0 1.694-.3 2.226-.896.532-.598.798-1.428.798-2.492 0-1.046-.266-1.872-.798-2.478zm10.428 36.946h-4.536V84.568h4.536v19.488zm-2.687-41.496v-1.596c0-1.643.406-2.833 1.218-3.57.813-.738 2.143-1.106 3.99-1.106.393 0 .743.014 1.05.042.31.028.687.088 1.135.182v3.444c-.298-.075-.536-.126-.714-.154-.176-.028-.358-.042-.545-.042-.54 0-.933.15-1.176.448-.243.298-.365.793-.365 1.484v1.19c0 .065-.018.163-.056.294.13-.038.228-.056.293-.056h2.366v3.444h-2.423c-.065 0-.163-.02-.294-.056.038.13.056.228.056.294v9.254h-4.537v-8.932-.322c0-.066.02-.164.056-.294-.13.037-.23.056-.295.056h-1.582V63.12h1.582c.066 0 .164.018.294.056-.038-.13-.057-.23-.057-.294v-.322zm21.518-14.826c-.27.196-.555.354-.853.476-.3.12-.62.205-.966.252-.345.046-.74.07-1.19.07-1.026 0-1.913-.145-2.66-.434-.746-.29-1.41-.733-1.987-1.33-.616-.654-1.083-1.414-1.4-2.282-.318-.868-.476-1.825-.476-2.87 0-1.008.158-1.937.476-2.786.317-.85.765-1.582 1.344-2.198.578-.616 1.26-1.092 2.044-1.428.785-.336 1.653-.504 2.605-.504.84 0 1.54.12 2.1.364.56.242 1.166.69 1.82 1.344l.084-.028c-.076-.168-.123-.304-.14-.406-.02-.103-.03-.2-.03-.294v-.56h4.34v12.936h-4.34v-.448c0-.075.01-.154.03-.238.017-.084.064-.2.14-.35l-.085-.056c-.3.317-.584.574-.854.77zm.113-8.372c-.514-.57-1.19-.854-2.03-.854-.43 0-.822.08-1.176.238-.355.158-.658.382-.91.672-.252.29-.453.634-.602 1.036-.15.4-.224.835-.224 1.302 0 .97.253 1.726.757 2.268.504.54 1.204.812 2.1.812.877 0 1.572-.29 2.086-.868.513-.58.77-1.363.77-2.352 0-.934-.257-1.685-.77-2.254zM131.26 100.85c.504.177 1.008.284 1.512.322.448.037.82-.028 1.12-.196.298-.168.448-.383.448-.644 0-.243-.136-.448-.406-.616-.27-.168-.714-.327-1.33-.476-.448-.112-.826-.21-1.134-.294-.308-.084-.574-.168-.798-.252-.224-.084-.416-.173-.574-.266-.16-.094-.313-.215-.462-.364-.374-.318-.654-.724-.84-1.218-.187-.495-.262-1.032-.224-1.61.074-1.512.658-2.684 1.75-3.514 1.092-.83 2.534-1.2 4.326-1.106.765.037 1.488.15 2.17.336.68.186 1.488.485 2.422.896l-1.652 2.968c-.56-.318-1.12-.565-1.68-.742-.56-.178-1.055-.266-1.484-.266-.803 0-1.223.298-1.26.896 0 .298.14.54.42.728.15.093.322.177.518.252.196.074.396.14.602.196l.448.084.476.112.448.112c.578.13 1.06.294 1.442.49.382.196.695.434.938.714.242.28.415.616.518 1.008.102.392.154.858.154 1.4 0 .653-.122 1.274-.364 1.862-.243.588-.588 1.087-1.036 1.498-.58.54-1.218.92-1.918 1.134-.7.214-1.62.322-2.758.322-.467 0-1.004-.06-1.61-.182-.607-.122-1.153-.285-1.638-.49-.262-.094-.514-.206-.756-.336-.243-.13-.58-.327-1.008-.588l1.4-3.052c.71.41 1.316.704 1.82.882zm48.86-28c.504.177 1.008.284 1.512.322.448.037.82-.028 1.12-.196.298-.168.448-.383.448-.644 0-.243-.136-.448-.406-.616-.27-.168-.714-.327-1.33-.476-.448-.112-.826-.21-1.134-.294-.308-.084-.574-.168-.798-.252-.224-.084-.416-.173-.574-.266-.16-.094-.313-.215-.462-.364-.374-.318-.654-.724-.84-1.218-.187-.495-.262-1.032-.224-1.61.074-1.512.658-2.684 1.75-3.514 1.092-.83 2.534-1.2 4.326-1.106.765.037 1.488.15 2.17.336.68.186 1.488.485 2.422.896l-1.652 2.968c-.56-.318-1.12-.565-1.68-.742-.56-.178-1.055-.266-1.484-.266-.803 0-1.223.298-1.26.896 0 .298.14.54.42.728.15.093.322.177.518.252.196.074.396.14.602.196l.448.084.476.112.448.112c.578.13 1.06.294 1.442.49.382.196.695.434.938.714.242.28.415.616.518 1.008.102.392.154.858.154 1.4 0 .653-.122 1.274-.364 1.862-.243.588-.588 1.087-1.036 1.498-.58.54-1.218.92-1.918 1.134-.7.214-1.62.322-2.758.322-.467 0-1.004-.06-1.61-.182-.607-.122-1.153-.285-1.638-.49-.262-.094-.514-.206-.756-.336-.243-.13-.58-.327-1.008-.588l1.4-3.052c.71.41 1.316.704 1.82.882zm12.04-15.974c.71 0 1.306.242 1.792.728.485.485.728 1.073.728 1.764 0 .71-.243 1.306-.728 1.792-.486.485-1.083.728-1.792.728-.69 0-1.28-.243-1.764-.728-.486-.486-.728-1.083-.728-1.792 0-.69.242-1.28.728-1.764.485-.486 1.073-.728 1.764-.728zm2.296 19.18h-4.536V63.12h4.536v12.936zm3.752-11.452c.578-.635 1.27-1.125 2.072-1.47.802-.346 1.698-.518 2.688-.518.765 0 1.45.088 2.058.266.606.177 1.302.48 2.086.91v4.536c-.28-.318-.546-.584-.798-.798-.252-.215-.495-.383-.728-.504-.234-.122-.476-.21-.728-.266-.252-.056-.528-.084-.826-.084-.878 0-1.568.26-2.072.784-.504.522-.756 1.24-.756 2.156 0 .896.252 1.605.756 2.128.504.522 1.185.784 2.044.784.578 0 1.096-.108 1.554-.322.457-.215.975-.593 1.554-1.134v4.424c-.504.224-.934.41-1.288.56-.355.15-.696.26-1.022.336-.327.074-.65.126-.966.154-.318.028-.682.042-1.092.042-1.867 0-3.295-.486-4.284-1.456-.654-.616-1.162-1.386-1.526-2.31-.364-.924-.546-1.937-.546-3.038 0-1.064.158-2.035.476-2.912.317-.878.765-1.634 1.344-2.268z"/>
</svg>