<svg xmlns="http://www.w3.org/2000/svg" width="298" height="138">
  <path fill-rule="evenodd" fill="#FC0" d="M256.06 104.207c-2.62-1.44-5.37-2.358-7.4-2.358-1.835 0-2.883.785-2.95 2.095 0 .655.33 1.245.984 1.703.72.46 1.637.786 2.62 1.048l1.048.197 1.114.262 1.048.262c5.37 1.245 7.14 3.406 7.14 8.45 0 3.08-1.18 5.96-3.275 7.86-2.687 2.49-5.635 3.407-10.94 3.407-2.163 0-5.307-.655-7.6-1.572-1.18-.458-2.16-.983-4.126-2.162l3.275-7.14c3.274 1.9 5.436 2.686 7.794 2.817 2.096.13 3.668-.72 3.668-1.965 0-1.114-1.18-1.9-4.06-2.555-4.26-.982-5.503-1.44-6.945-2.75-1.703-1.508-2.62-3.93-2.49-6.617.33-7.01 5.897-11.267 14.216-10.81 3.537.198 6.42.984 10.743 2.884l-3.865 6.943zm-54.24 33.736l8.974-16.9-13.952-25.483h12.118l7.6 16.835 7.532-16.835h11.398l-22.14 42.383h-11.53zm-16.38-14.215c-2.75 2.49-4.65 3.21-8.842 3.21-4.782 0-8.188-1.31-10.874-4.127-2.882-3.012-4.39-7.205-4.39-12.052 0-9.5 6.29-16.18 15.133-16.18 3.865 0 6.027.85 8.974 3.603v-2.62h10.155v30.264H185.44v-2.096zm-6.287-20.24c-3.93 0-6.813 3.208-6.813 7.597 0 4.52 2.49 7.206 6.682 7.206 4.06 0 6.68-2.947 6.68-7.532 0-4.324-2.62-7.27-6.55-7.27zm-41.075 22.336h-17.556V82.197h17.884c12.642 0 21.158 8.647 21.158 21.552 0 13.558-8.254 22.074-21.486 22.074zm5.7-31.246c-1.704-1.572-3.866-2.358-6.552-2.358h-4.454v23.778h4.454c6.29 0 9.826-4.192 9.826-11.53 0-4.912-.917-7.728-3.275-9.89zm-40.55 31.246H92.616v-22.206h-4.258V95.56h4.258v-8.384h10.612v8.384h5.568v8.058h-5.568v22.206zm-33.935 1.114c-10.35 0-17.883-6.878-17.883-16.246 0-9.433 7.534-16.245 18.08-16.245 10.48 0 17.686 6.616 17.686 16.18 0 9.76-7.14 16.31-17.883 16.31zm.13-24.172c-4.06 0-7.008 3.34-7.008 7.926 0 4.52 2.883 7.926 6.813 7.926 4.454 0 7.075-2.947 7.075-7.926 0-4.847-2.686-7.926-6.88-7.926zM43.42 92.678c-3.21 0-5.83-2.62-5.83-5.895 0-3.21 2.62-5.83 5.83-5.83 3.275 0 5.896 2.62 5.896 5.83 0 3.275-2.62 5.895-5.896 5.895zm-21.88 33.146l-9.826-15v15H.052V82.197h18.014c3.864 0 7.402.983 9.63 2.75 3.274 2.49 5.108 6.618 5.108 11.27 0 6.287-3.8 11.33-9.3 12.183l12.707 17.424H21.538zm-6.027-33.8h-3.667v10.022h3.668c3.014 0 5.045-2.03 5.045-4.98 0-3.143-1.9-5.043-5.044-5.043zm33.28 33.8H38.178V95.56H48.79v30.264zM293.816 55.1c-1.935 0-3.536-1.676-3.536-3.65 0-1.897 1.638-3.498 3.61-3.498 1.9 0 3.537 1.6 3.537 3.5 0 1.972-1.638 3.647-3.61 3.647zm-.037 3.014c1.972 0 3.573 1.6 3.573 3.574 0 1.973-1.6 3.536-3.61 3.536-1.937 0-3.5-1.6-3.5-3.573 0-1.898 1.638-3.536 3.536-3.536zm-14.703 2.94c1.49 0 1.973-.334 2.904-1.86h6.292c-.447 3.76-3.946 6.142-9.083 6.142-5.808 0-9.53-3.61-9.53-9.194 0-5.584 3.685-9.27 9.306-9.27 3.685 0 6.812 1.564 8.152 4.02.744 1.378 1.228 3.537 1.228 5.622v1.154h-12.47c.15 2.27 1.19 3.387 3.2 3.387zm3.09-7.444c-.335-1.935-1.266-2.754-3.053-2.754-1.675 0-2.79.967-3.09 2.754h6.143zm-13.92-1.228c-3.203 0-4.878 1.712-4.878 4.988v7.26h-6.03v-17.2h5.77v2.16c1.264-1.973 2.53-2.68 4.614-2.68.41 0 .67.037 2.085.186v5.51c-.708-.187-1.08-.224-1.564-.224zM252.872 64.63h-6.03V52.01h-2.42v-4.58h2.42v-4.764h6.03v4.765h3.164v4.58h-3.164v12.62zm-15.483-1.192c-1.564 1.414-2.643 1.824-5.026 1.824-2.717 0-4.653-.745-6.18-2.346-1.637-1.712-2.493-4.094-2.493-6.85 0-5.396 3.575-9.193 8.6-9.193 2.196 0 3.425.484 5.1 2.047v-1.49h5.77v17.2h-5.77v-1.192zm-3.574-11.503c-2.233 0-3.87 1.824-3.87 4.318 0 2.57 1.413 4.095 3.796 4.095 2.308 0 3.797-1.675 3.797-4.28 0-2.458-1.49-4.133-3.724-4.133zm-20.434 9.12c1.49 0 1.973-.335 2.903-1.86h6.29c-.446 3.76-3.945 6.14-9.082 6.14-5.807 0-9.53-3.61-9.53-9.193 0-5.584 3.686-9.27 9.307-9.27 3.685 0 6.812 1.564 8.152 4.02.745 1.378 1.23 3.537 1.23 5.622v1.154H210.18c.15 2.27 1.192 3.387 3.202 3.387zm3.09-7.445c-.336-1.935-1.266-2.754-3.053-2.754-1.676 0-2.793.967-3.09 2.754h6.14zm-19.95 1.154c0-1.935-.97-2.978-2.793-2.978-2.01 0-3.128 1.378-3.128 3.872v8.97h-6.03V38.72h6.03v10.46c1.675-1.712 3.052-2.307 5.25-2.307 2.567 0 4.912 1.19 5.992 3.015.484.82.707 1.898.707 3.61v11.13h-6.03v-9.864zm-18.65 9.865h-6.885V45.68h-5.51v-5.843h17.83v5.844h-5.434v18.95zm-20.88 0h-6.03V52.01h-2.42v-4.58h2.42v-4.764h6.03v4.765h3.164v4.58h-3.164v12.62zm-19.28.632c-5.883 0-10.163-3.91-10.163-9.232 0-5.36 4.28-9.232 10.273-9.232 5.956 0 10.05 3.76 10.05 9.195 0 5.546-4.057 9.27-10.162 9.27zm.073-13.736c-2.308 0-3.983 1.898-3.983 4.504 0 2.568 1.638 4.504 3.872 4.504 2.53 0 4.02-1.675 4.02-4.504 0-2.755-1.526-4.504-3.91-4.504zm-14.777-5.733c-1.824 0-3.313-1.49-3.313-3.35 0-1.824 1.49-3.313 3.313-3.313 1.86 0 3.35 1.49 3.35 3.313 0 1.86-1.49 3.35-3.35 3.35zm-12.43 18.836l-5.584-8.526v8.525h-6.626V39.836h10.236c2.197 0 4.207.56 5.472 1.564 1.862 1.415 2.904 3.76 2.904 6.403 0 3.574-2.16 6.44-5.286 6.924l7.222 9.902h-8.34zm-3.425-19.21h-2.085v5.696h2.085c1.712 0 2.866-1.154 2.866-2.83 0-1.786-1.08-2.865-2.867-2.865zM72.76 71.516l5.1-9.604-7.93-14.48h6.887L81.135 57l4.28-9.567h6.478L79.31 71.516h-6.55zm-4.95-19.17c-1.49-.82-3.053-1.34-4.207-1.34-1.042 0-1.637.446-1.675 1.19 0 .373.186.708.56.97.408.26.93.445 1.488.594l.595.11.634.15.596.15c3.052.706 4.057 1.934 4.057 4.8 0 1.75-.67 3.388-1.86 4.468-1.527 1.414-3.202 1.935-6.218 1.935-1.23 0-3.016-.372-4.32-.893-.67-.26-1.227-.56-2.344-1.23l1.86-4.056c1.863 1.08 3.09 1.526 4.43 1.6 1.192.075 2.086-.41 2.086-1.116 0-.633-.67-1.08-2.308-1.452-2.42-.558-3.127-.82-3.946-1.563-.968-.856-1.49-2.234-1.415-3.76.187-3.983 3.35-6.403 8.078-6.142 2.01.113 3.65.56 6.106 1.64l-2.196 3.945zm-19.542-1.34c-1.042 0-1.638.446-1.675 1.19 0 .373.186.708.558.97.41.26.932.445 1.49.594l.596.11.633.15.594.15c3.053.706 4.058 1.934 4.058 4.8 0 1.75-.67 3.388-1.86 4.468-1.528 1.414-3.203 1.935-6.218 1.935-1.228 0-3.015-.372-4.318-.893-.67-.26-1.228-.56-2.345-1.23l1.862-4.056c1.86 1.08 3.09 1.526 4.43 1.6 1.19.075 2.084-.41 2.084-1.116 0-.633-.67-1.08-2.307-1.452-2.42-.558-3.128-.82-3.947-1.563-.968-.856-1.49-2.234-1.415-3.76.186-3.983 3.35-6.403 8.078-6.142 2.01.113 3.648.56 6.105 1.64l-2.195 3.945c-1.49-.82-3.053-1.34-4.207-1.34zM29.583 65.187c-3.722 0-6.626-1.377-7.89-3.722-.56-1.043-.858-2.643-.858-4.58v-9.454h6.03v8.786c0 1.638.187 2.457.634 3.127.52.744 1.34 1.154 2.344 1.154 1.154 0 2.122-.56 2.53-1.452.262-.52.41-1.638.41-2.83v-8.784h6.03v9.27c0 2.494-.446 4.17-1.414 5.435-1.526 1.935-4.355 3.052-7.817 3.052zM8.777 56.55l-1.49-.036v8.115H.402V39.836h10.387c2.717 0 4.84.67 6.216 1.936 1.6 1.452 2.532 3.946 2.532 6.59 0 2.977-1.266 5.582-3.35 6.922-1.415.93-3.463 1.266-7.408 1.266zm.78-11.204H7.363v5.584h2.27c1.862 0 2.793-.968 2.793-2.866 0-1.9-.857-2.718-2.867-2.718zM126.062 64.63h-6.03v-17.2h6.03v17.2zM111.897 23.185l-6.443-13.94h2.687l2.14 4.948c.263.64.528 1.31.793 2.007.264.698.54 1.423.824 2.176h.122c.335-1.08.87-2.483 1.602-4.214l2.03-4.916h2.474l-6.23 13.94zm-10.565-1.115c-1.13.418-2.214.626-3.252.626-.794 0-1.624-.142-2.488-.427-.866-.286-1.578-.658-2.138-1.116-.753-.6-1.343-1.38-1.77-2.336-.428-.956-.642-2-.642-3.13 0-.997.178-1.918.534-2.762.357-.845.85-1.575 1.48-2.19.632-.617 1.38-1.103 2.245-1.46.866-.355 1.813-.534 2.84-.534 1.517 0 2.86.397 4.03 1.19.582.378 1.07.8 1.467 1.268.397.47.71.952.94 1.45.228.5.396 1.01.503 1.535.107.524.16 1.036.16 1.534 0 1.496-.377 2.82-1.13 3.97-.712 1.15-1.638 1.943-2.778 2.38zm1.015-8.48c-.3-.585-.674-1.082-1.122-1.49-.448-.406-.944-.72-1.49-.938-.543-.218-1.06-.328-1.548-.328-.987 0-1.878.295-2.672.885-.814.58-1.356 1.236-1.626 1.97-.27.732-.405 1.44-.405 2.12 0 .795.145 1.49.435 2.085.29.595.654 1.097 1.09 1.504.44.406.912.714 1.42.922.51.21 1.07.313 1.68.313.794 0 1.47-.147 2.03-.442.56-.296 1.04-.672 1.436-1.13.397-.458.7-.957.908-1.496.21-.54.313-1.135.313-1.787 0-.875-.15-1.605-.45-2.19zM74.21 8.445c-.534-.616-1.07-1.275-1.61-1.977l-.092.03c.04.662.076 1.395.107 2.2.03.803.045 1.693.045 2.67v10.886h-2.595V.208L82.17 13.506c.388.437.71.8.963 1.09.255.29.486.566.695.826.208.26.427.524.656.794.23.27.507.603.832 1l.107-.03c-.05-.642-.09-1.365-.122-2.17-.03-.803-.045-1.704-.045-2.7V1.43h2.596v21.984L75.79 10.147c-.52-.52-1.046-1.086-1.58-1.702zM47.652 22.04l8.122-15.893c.173-.356.374-.748.603-1.175.23-.428.476-.88.74-1.36-.325.02-.722.037-1.19.047-.468.01-1.018.014-1.65.014H47.21V1.43h13.297L49.683 22.97l-2.03-.93zM41.712 4.3c0-.163.006-.295.016-.397.01-.102.025-.2.046-.29-.204.04-.433.06-.687.06h-3.71L38.69 1.43h5.374v20.824h-2.35V4.3zM24.935 6.117c-.418 0-.782-.155-1.092-.466-.31-.31-.466-.683-.466-1.12 0-.418.155-.785.466-1.1.31-.316.674-.474 1.092-.474.437 0 .814.158 1.13.474.315.315.473.682.473 1.1 0 .437-.158.81-.474 1.12-.315.312-.692.467-1.13.467zm-5.848 4.946c-.64 0-1.212.27-1.71.81-.5.518-.832 1.11-1 1.778-.168.667-.252 1.337-.252 2.008v6.596h-2.32V9.246h2.32v.932c0 .315-.07.753-.214 1.313l.122.046c.438-.875.947-1.516 1.527-1.923.58-.407 1.276-.61 2.09-.61.48 0 .9.06 1.268.182.366.122.758.35 1.175.687l-1.282 1.786c-.6-.396-1.175-.595-1.724-.595zm-15.94.885c-.1-.01-.193-.025-.274-.045.02.08.035.175.046.282.01.107.015.242.015.405v9.664H.338V1.43h11.13v2.152h-7.91c-.172 0-.31-.005-.41-.015-.103-.01-.195-.025-.276-.046.02.083.035.177.046.284.01.107.015.242.015.404v4.977c0 .163-.005.298-.015.405-.01.107-.026.2-.046.282.08-.02.173-.035.275-.046.1-.01.24-.015.412-.015h7.907v2.154H3.56c-.174 0-.312-.005-.413-.016zm22.978 10.306h-2.32V9.246h2.32v13.008z"/>
</svg>