<svg xmlns="http://www.w3.org/2000/svg" width="301" height="60">
  <path fill-rule="evenodd" fill="#FFF" d="M12.873 38.956c0 5.75 3.445 9.665 8.53 9.665 5.085 0 8.2-3.498 8.2-9.248 0-5.83-3.197-9.498-8.364-9.498-5.086 0-8.367 3.667-8.367 9.082M.49.13h13.285v22.163c3.117-2.833 6.07-3.916 10.5-3.916 11.153 0 19.19 8.83 19.19 20.995 0 5.917-2.132 11.5-5.74 15.25-3.28 3.414-7.628 5.08-13.04 5.08-5.414 0-8.613-1.332-11.484-4.665v3.25H.49V.13zm58.558 39.41c0 5.75 3.116 9.165 8.365 9.165 5.085 0 8.366-3.75 8.366-9.583 0-5.498-3.282-9.248-8.203-9.248-4.92 0-8.53 4.083-8.53 9.665m16.404 16.08c-3.443 3.167-5.822 4.083-11.07 4.083-5.99 0-10.253-1.666-13.615-5.25-3.61-3.832-5.496-9.164-5.496-15.33 0-12.08 7.873-20.58 18.945-20.58 4.84 0 7.546 1.083 11.236 4.583v-3.333h12.714v38.494H75.45V55.62zM91.2 19.793h12.713v4.832c2.79-4.415 5.577-5.998 10.17-5.998.902 0 1.476.083 4.593.416v12.33c-1.558-.416-2.378-.5-3.445-.5-7.053 0-10.744 3.834-10.744 11.166v16.246H91.198V19.793zm42.33 19.163c0 5.75 3.446 9.665 8.53 9.665 5.086 0 8.202-3.498 8.202-9.248 0-5.83-3.198-9.498-8.365-9.498-5.086 0-8.366 3.667-8.366 9.082M121.144.13h13.286v22.163c3.118-2.833 6.07-3.916 10.5-3.916 11.154 0 19.19 8.83 19.19 20.995 0 5.917-2.132 11.5-5.74 15.25-3.28 3.414-7.628 5.08-13.04 5.08-5.413 0-8.612-1.332-11.483-4.665v3.25h-12.712V.13zm45.666 19.663H180.1v38.493H166.81V19.793zm13.944-11.165c0 4.166-3.28 7.5-7.382 7.5-4.02 0-7.3-3.334-7.3-7.5 0-4.083 3.28-7.416 7.3-7.416 4.1 0 7.382 3.333 7.382 7.416M212.74 56.62c-5.496 2.75-7.464 3.25-12.057 3.25-5.25 0-9.35-1.417-12.22-4.333-3.774-3.666-5.906-9.416-5.906-15.914 0-12.665 7.628-21.33 18.7-21.33 4.265 0 7.135.833 11.482 3.5V35.29c-3.118-3.75-5.086-4.916-8.284-4.916-4.84 0-7.792 3.333-7.792 8.75 0 5.33 2.952 8.664 7.71 8.664 3.033 0 5.248-1.166 8.365-4.332V56.62zm15.926-17.08c0 5.75 3.116 9.165 8.365 9.165 5.087 0 8.367-3.75 8.367-9.583 0-5.498-3.28-9.248-8.2-9.248-4.922 0-8.53 4.083-8.53 9.665m16.402 16.08c-3.446 3.167-5.825 4.083-11.073 4.083-5.987 0-10.252-1.666-13.614-5.25-3.61-3.832-5.495-9.164-5.495-15.33 0-12.08 7.874-20.58 18.945-20.58 4.84 0 7.546 1.083 11.236 4.583v-3.333h12.71v38.494h-12.71V55.62zm15.827-35.827h13.123v4.416c3.363-4.417 6.316-5.833 11.728-5.833 5.905 0 10.826 2.416 13.04 6.415 1.15 2.083 1.723 4.5 1.723 7.5v25.994h-13.285V37.124c0-5.166-1.887-7.583-5.906-7.583-4.266 0-7.136 3-7.136 7.584v21.162h-13.287V19.793z"/>
</svg>